<mxfile host="Electron" compressed="false" modified="2022-09-01T09:38:51.246Z" agent="5.0 (Macintosh; Intel Mac OS X 10_15_7) AppleWebKit/537.36 (KHTML, like Gecko) draw.io/19.0.3 Chrome/102.0.5005.63 Electron/19.0.3 Safari/537.36" etag="9ScPNfD9N5_heiU-heTX" version="19.0.3" type="device">
  <diagram id="W86VsvGAwGps79trbfbv" name="Page-1">
    <mxGraphModel dx="1106" dy="1026" grid="1" gridSize="10" guides="1" tooltips="1" connect="1" arrows="1" fold="1" page="1" pageScale="1" pageWidth="1169" pageHeight="827" background="#ffffff" math="0" shadow="0">
      <root>
        <object label="" btpsa-usecase="&quot;services&quot;: [&#xa;    {&#xa;      &quot;name&quot;: &quot;xsuaa&quot;,&#xa;      &quot;plan&quot;: &quot;apiaccess&quot;,&#xa;      &quot;instancename&quot;: &quot;xsuaa_api&quot;,&#xa;      &quot;category&quot;: &quot;SERVICE&quot;,&#xa;      &quot;createServiceKeys&quot;: [&#xa;        &quot;myServiceKey1&quot;&#xa;      ]&#xa;    },&#xa;    {&#xa;      &quot;name&quot;: &quot;destination&quot;,&#xa;      &quot;plan&quot;: &quot;lite&quot;,&#xa;      &quot;category&quot;: &quot;SERVICE&quot;,&#xa;      &quot;parameters&quot;: {&#xa;        &quot;HTML5Runtime_enabled&quot;: &quot;true&quot;,&#xa;        &quot;init_data&quot;: {&#xa;          &quot;subaccount&quot;: {&#xa;            &quot;existing_destinations_policy&quot;: &quot;fail&quot;,&#xa;            &quot;destinations&quot;: [&#xa;              {&#xa;                &quot;Name&quot;: &quot;Fieldglass&quot;,&#xa;                &quot;Type&quot;: &quot;HTTP&quot;,&#xa;                &quot;URL&quot;: &quot;https://sample_url.com&quot;,&#xa;                &quot;Authentication&quot;: &quot;OAuth2SAMLBearerAssertion&quot;,&#xa;                &quot;ProxyType&quot;: &quot;Internet&quot;,&#xa;                &quot;tokenServiceURLType&quot;: &quot;Dedicated&quot;,&#xa;                &quot;audience&quot;: &quot;Fieldglass&quot;,&#xa;                &quot;Description&quot;: &quot;SAP Fieldglass sample SAP Task Center destination&quot;,&#xa;                &quot;authnContextClassRef&quot;: &quot;urn:oasis:names:tc:SAML:2.0:ac:classes:PreviousSession&quot;,&#xa;                &quot;tokenServiceURL.headers.X-ApplicationKey&quot;: &quot;sample_XApplication_key&quot;,&#xa;                &quot;tokenServiceURL.queries.client_secret&quot;: &quot;sample_client_secret&quot;,&#xa;                &quot;tokenServiceUser&quot;: &quot;sample_user&quot;,&#xa;                &quot;tokenServiceURL&quot;: &quot;https://sample_url.com/token&quot;,&#xa;                &quot;tokenServicePassword&quot;: &quot;sample&quot;,&#xa;                &quot;tc.ui.group&quot;: &quot;Fieldglass&quot;,&#xa;                &quot;tc.ui.label&quot;: &quot;Fieldglass task&quot;,&#xa;                &quot;clientKey&quot;: &quot;sample&quot;,&#xa;                &quot;nameIdFormat&quot;: &quot;urn:oasis:names:tc:SAML:1.1:nameid-format:unspecified&quot;,&#xa;                &quot;URL.headers.X-ApplicationKey&quot;: &quot;sample_XApplication_key&quot;,&#xa;                &quot;tokenServiceURL.queries.client_id&quot;: &quot;sample_client_id&quot;,&#xa;                &quot;tc.provider_type&quot;: &quot;Fieldglass&quot;,&#xa;                &quot;tc.clientId&quot;: &quot;sample_id&quot;&#xa;              },&#xa;              {&#xa;                &quot;Name&quot;: &quot;Success_Factors&quot;,&#xa;                &quot;Type&quot;: &quot;HTTP&quot;,&#xa;                &quot;URL&quot;: &quot;https://sample_url.com&quot;,&#xa;                &quot;Authentication&quot;: &quot;OAuth2SAMLBearerAssertion&quot;,&#xa;                &quot;ProxyType&quot;: &quot;Internet&quot;,&#xa;                &quot;tokenServiceURLType&quot;: &quot;Dedicated&quot;,&#xa;                &quot;audience&quot;: &quot;www.successfactors.com&quot;,&#xa;                &quot;Description&quot;: &quot;SAP Success Factors sample SAP Task Center destination&quot;,&#xa;                &quot;authnContextClassRef&quot;: &quot;urn:oasis:names:tc:SAML:2.0:ac:classes:PreviousSession&quot;,&#xa;                &quot;apiKey&quot;: &quot;sample_apiKey&quot;,&#xa;                &quot;tokenServiceURL&quot;: &quot;https://sample_url.com/oauth/token&quot;,&#xa;                &quot;tc.ui.group&quot;: &quot;SFSF&quot;,&#xa;                &quot;tc.ui.label&quot;: &quot;SFSF task&quot;,&#xa;                &quot;companyId&quot;: &quot;sample_CompanyId&quot;,&#xa;                &quot;clientKey&quot;: &quot;sample&quot;,&#xa;                &quot;nameIdFormat&quot;: &quot;urn:oasis:names:tc:SAML:1.1:nameid-format:unspecified&quot;,&#xa;                &quot;SystemUser&quot;: &quot;TECHNICAL_USER_INBOX_CEF979F3&quot;,&#xa;                &quot;nameQualifier&quot;: &quot;www.successfactors.com&quot;,&#xa;                &quot;tc.provider_type&quot;: &quot;SuccessFactors&quot;,&#xa;                &quot;tc.clientId&quot;: &quot;sample_id&quot;&#xa;              },&#xa;              {&#xa;                &quot;Name&quot;: &quot;Ariba&quot;,&#xa;                &quot;Type&quot;: &quot;HTTP&quot;,&#xa;                &quot;URL&quot;: &quot;https://sample_url.com&quot;,&#xa;                &quot;Authentication&quot;: &quot;OAuth2SAMLBearerAssertion&quot;,&#xa;                &quot;ProxyType&quot;: &quot;Internet&quot;,&#xa;                &quot;tokenServiceURL.headers.apikey&quot;: &quot;sample_apikey&quot;,&#xa;                &quot;tokenServiceURLType&quot;: &quot;Dedicated&quot;,&#xa;                &quot;audience&quot;: &quot;Ariba&quot;,&#xa;                &quot;Description&quot;: &quot;SAP Ariba sample SAP Task Center destination&quot;,&#xa;                &quot;authnContextClassRef&quot;: &quot;urn:oasis:names:tc:SAML:2.0:ac:classes:PreviousSession&quot;,&#xa;                &quot;tokenServiceUser&quot;: &quot;sample_token_service_user&quot;,&#xa;                &quot;tokenServiceURL&quot;: &quot;https://sample_url.com/oauth/token&quot;,&#xa;                &quot;tokenServicePassword&quot;: &quot;sample&quot;,&#xa;                &quot;tc.ui.group&quot;: &quot;Ariba&quot;,&#xa;                &quot;tc.ui.label&quot;: &quot;Ariba task&quot;,&#xa;                &quot;URL.headers.apikey&quot;: &quot;sample_apikey&quot;,&#xa;                &quot;URL.queries.realm&quot;: &quot;sample_realm&quot;,&#xa;                &quot;clientKey&quot;: &quot;sample&quot;,&#xa;                &quot;nameIdFormat&quot;: &quot;urn:oasis:names:tc:SAML:1.1:nameid-format:unspecified&quot;,&#xa;                &quot;tc.provider_type&quot;: &quot;Ariba&quot;&#xa;              },&#xa;              {&#xa;                &quot;Name&quot;: &quot;Success_Factors_PP&quot;,&#xa;                &quot;Type&quot;: &quot;HTTP&quot;,&#xa;                &quot;URL&quot;: &quot;https://sample_url.com&quot;,&#xa;                &quot;Authentication&quot;: &quot;OAuth2SAMLBearerAssertion&quot;,&#xa;                &quot;ProxyType&quot;: &quot;Internet&quot;,&#xa;                &quot;tokenServiceURLType&quot;: &quot;Dedicated&quot;,&#xa;                &quot;audience&quot;: &quot;www.successfactors.com&quot;,&#xa;                &quot;companyId&quot;: &quot;sample_CompanyId&quot;,&#xa;                &quot;Description&quot;: &quot;SAP Success Factors sample SAP Task Center Principal Propagation destination&quot;,&#xa;                &quot;authnContextClassRef&quot;: &quot;urn:oasis:names:tc:SAML:2.0:ac:classes:PreviousSession&quot;,&#xa;                &quot;apiKey&quot;: &quot;sample_apiKey&quot;,&#xa;                &quot;clientKey&quot;: &quot;sample&quot;,&#xa;                &quot;nameIdFormat&quot;: &quot;urn:oasis:names:tc:SAML:1.1:nameid-format:unspecified&quot;,&#xa;                &quot;tokenServiceURL&quot;: &quot;https://sample_url.com/oauth/token&quot;,&#xa;                &quot;tc.provider_type&quot;: &quot;SuccessFactors&quot;&#xa;              },&#xa;              {&#xa;                &quot;Name&quot;: &quot;Concur_req&quot;,&#xa;                &quot;Type&quot;: &quot;HTTP&quot;,&#xa;                &quot;URL&quot;: &quot;https://sample_url.com/travel/request&quot;,&#xa;                &quot;Authentication&quot;: &quot;OAuth2SAMLBearerAssertion&quot;,&#xa;                &quot;ProxyType&quot;: &quot;Internet&quot;,&#xa;                &quot;tokenServiceURLType&quot;: &quot;Dedicated&quot;,&#xa;                &quot;audience&quot;: &quot;Concur&quot;,&#xa;                &quot;Description&quot;: &quot;SAP Concur Request sample SAP Task Center destination&quot;,&#xa;                &quot;authnContextClassRef&quot;: &quot;urn:oasis:names:tc:SAML:2.0:ac:classes:PreviousSession&quot;,&#xa;                &quot;tokenServiceUser&quot;: &quot;sample_token_service_user&quot;,&#xa;                &quot;tokenServiceURL&quot;: &quot;https://sample_url.com/oauth2/v0/token&quot;,&#xa;                &quot;tc.concur.dc&quot;: &quot;sample_dc&quot;,&#xa;                &quot;tc.grant_type&quot;: &quot;refresh_token&quot;,&#xa;                &quot;tokenServicePassword&quot;: &quot;sample&quot;,&#xa;                &quot;tc.ui.group&quot;: &quot;Concur&quot;,&#xa;                &quot;tc.ui.label&quot;: &quot;Concur request task&quot;,&#xa;                &quot;clientKey&quot;: &quot;sample&quot;,&#xa;                &quot;tc.concur.companyUUID&quot;: &quot;sample_company_UUID&quot;,&#xa;                &quot;tc.concur.auth.req.token.enabled&quot;: &quot;true&quot;,&#xa;                &quot;tc.provider_type&quot;: &quot;Concur&quot;&#xa;              },&#xa;              {&#xa;                &quot;Name&quot;: &quot;Task_Center_global_settings&quot;,&#xa;                &quot;Type&quot;: &quot;HTTP&quot;,&#xa;                &quot;URL&quot;: &quot;http://sap.com&quot;,&#xa;                &quot;Authentication&quot;: &quot;NoAuthentication&quot;,&#xa;                &quot;ProxyType&quot;: &quot;Internet&quot;,&#xa;                &quot;Description&quot;: &quot;SAP Task Center Global Settings&quot;,&#xa;                &quot;tc.languages&quot;: &quot;en-US,de-DE&quot;&#xa;              },&#xa;              {&#xa;                &quot;Name&quot;: &quot;S4HANACloud&quot;,&#xa;                &quot;Type&quot;: &quot;HTTP&quot;,&#xa;                &quot;URL&quot;: &quot;https://sample_url.com&quot;,&#xa;                &quot;Authentication&quot;: &quot;OAuth2SAMLBearerAssertion&quot;,&#xa;                &quot;ProxyType&quot;: &quot;Internet&quot;,&#xa;                &quot;tc.ui.label&quot;: &quot;S/4Hana Cloud task&quot;,&#xa;                &quot;tokenServiceURLType&quot;: &quot;Dedicated&quot;,&#xa;                &quot;audience&quot;: &quot;sample_audience&quot;,&#xa;                &quot;Description&quot;: &quot;SAP S/4HANA Cloud sample SAP Task Center destination&quot;,&#xa;                &quot;authnContextClassRef&quot;: &quot;urn:oasis:names:tc:SAML:2.0:ac:classes:X509&quot;,&#xa;                &quot;clientKey&quot;: &quot;sample&quot;,&#xa;                &quot;tokenServiceUser&quot;: &quot;sample_token_service_user&quot;,&#xa;                &quot;tokenServiceURL&quot;: &quot;https://sample_url.com/oauth2/token&quot;,&#xa;                &quot;URL.queries.sap-client&quot;: &quot;sample_sap_client&quot;,&#xa;                &quot;tc.provider_type&quot;: &quot;S/4HANACloud&quot;,&#xa;                &quot;tokenServicePassword&quot;: &quot;sample&quot;,&#xa;                &quot;tc.ui.group&quot;: &quot;S/4Hana Cloud&quot;&#xa;              },&#xa;              {&#xa;                &quot;Name&quot;: &quot;Concur_exp&quot;,&#xa;                &quot;Type&quot;: &quot;HTTP&quot;,&#xa;                &quot;URL&quot;: &quot;https://sample_url.com/expensereports&quot;,&#xa;                &quot;Authentication&quot;: &quot;OAuth2SAMLBearerAssertion&quot;,&#xa;                &quot;ProxyType&quot;: &quot;Internet&quot;,&#xa;                &quot;tokenServiceURLType&quot;: &quot;Dedicated&quot;,&#xa;                &quot;audience&quot;: &quot;Concur&quot;,&#xa;                &quot;Description&quot;: &quot;SAP Concur Expense sample SAP Task Center destination&quot;,&#xa;                &quot;authnContextClassRef&quot;: &quot;urn:oasis:names:tc:SAML:2.0:ac:classes:PreviousSession&quot;,&#xa;                &quot;tokenServiceUser&quot;: &quot;sample_token_service_user&quot;,&#xa;                &quot;tokenServiceURL&quot;: &quot;https://sample_url.com/oauth2/v0/token&quot;,&#xa;                &quot;tc.concur.dc&quot;: &quot;sample_dc&quot;,&#xa;                &quot;tc.grant_type&quot;: &quot;refresh_token&quot;,&#xa;                &quot;tokenServicePassword&quot;: &quot;sample&quot;,&#xa;                &quot;tc.ui.group&quot;: &quot;Concur&quot;,&#xa;                &quot;tc.ui.label&quot;: &quot;Concur expense task&quot;,&#xa;                &quot;clientKey&quot;: &quot;sample&quot;,&#xa;                &quot;tc.concur.companyUUID&quot;: &quot;sample_company_UUID&quot;,                &quot;tc.concur.auth.req.token.enabled&quot;: &quot;true&quot;,&#xa;                &quot;tc.provider_type&quot;: &quot;Concur&quot;&#xa;              },&#xa;              {&#xa;                &quot;Name&quot;: &quot;S4HANA&quot;,&#xa;                &quot;Type&quot;: &quot;HTTP&quot;,&#xa;                &quot;URL&quot;: &quot;https://sample.com&quot;,&#xa;                &quot;Authentication&quot;: &quot;BasicAuthentication&quot;,&#xa;                &quot;ProxyType&quot;: &quot;Internet&quot;,&#xa;                &quot;User&quot;: &quot;sample_user&quot;,&#xa;                &quot;Password&quot;: &quot;sample_pass&quot;&#xa;              }&#xa;            ]&#xa;          }&#xa;        }&#xa;      }&#xa;    },&#xa;    {&#xa;      &quot;category&quot;: &quot;SERVICE&quot;,&#xa;      &quot;name&quot;: &quot;one-inbox-service&quot;,&#xa;      &quot;plan&quot;: &quot;standard&quot;,&#xa;      &quot;instancename&quot;: &quot;default_taskcenter&quot;,&#xa;      &quot;createServiceKeys&quot;: [&#xa;        &quot;defaultKey&quot;&#xa;      ]&#xa;    },&#xa;    {&#xa;      &quot;category&quot;: &quot;APPLICATION&quot;,&#xa;      &quot;name&quot;: &quot;SAPLaunchpad&quot;,&#xa;      &quot;plan&quot;: &quot;standard&quot;,&#xa;      &quot;requiredrolecollections&quot;: [&#xa;        {&#xa;          &quot;name&quot;: &quot;Launchpad_Admin&quot;,&#xa;          &quot;assignedUserGroupsFromParameterFile&quot;: [&#xa;            &quot;developers&quot;&#xa;          ]&#xa;        }&#xa;      ]&#xa;    }&#xa;  ]" id="0">
          <mxCell />
        </object>
        <mxCell id="1" parent="0" />
        <mxCell id="7Cv30EDc3GMNcKOpRmR3-1" value="Network" style="endArrow=none;html=1;fontColor=#7F7F7F;labelBackgroundColor=none;strokeWidth=4;sketch=0;shadow=0;anchorPointDirection=1;editable=1;orthogonalLoop=0;comic=0;noJump=0;backgroundOutline=0;metaEdit=0;fixDash=0;fontStyle=1;jumpStyle=gap;strokeColor=#7F7F7F;endSize=3;startSize=3;jumpSize=3;rounded=0;fontFamily=Arial;fontSize=13;" edge="1" parent="1">
          <mxGeometry x="0.9565" y="37" width="50" height="50" relative="1" as="geometry">
            <mxPoint x="786.99" y="590" as="sourcePoint" />
            <mxPoint x="787" y="130" as="targetPoint" />
            <mxPoint as="offset" />
            <Array as="points">
              <mxPoint x="786.99" y="330" />
            </Array>
          </mxGeometry>
        </mxCell>
        <mxCell id="7Cv30EDc3GMNcKOpRmR3-2" value="&lt;p style=&quot;margin-top: 6pt ; margin-bottom: 0pt ; margin-left: 0in ; direction: ltr ; unicode-bidi: embed ; vertical-align: baseline ; word-break: normal ; font-size: 14px&quot;&gt;&lt;br&gt;&lt;/p&gt;" style="rounded=0;whiteSpace=wrap;html=1;align=left;fontStyle=1;verticalAlign=top;strokeColor=#0A6ED1;fillColor=none;strokeWidth=2;fontSize=14;fontFamily=Arial;container=1;recursiveResize=0;collapsible=0;fontColor=#595959;" vertex="1" parent="1">
          <mxGeometry x="193.99" y="160" width="571" height="430" as="geometry" />
        </mxCell>
        <mxCell id="7Cv30EDc3GMNcKOpRmR3-3" value="&lt;p style=&quot;margin-top: 0pt; margin-bottom: 0pt; margin-left: 0in; direction: ltr; unicode-bidi: embed; word-break: normal; font-size: 14px;&quot;&gt;&lt;b style=&quot;font-size: 14px;&quot;&gt;Subaccount&lt;/b&gt;&lt;/p&gt;" style="rounded=0;whiteSpace=wrap;html=1;strokeColor=#074D92;strokeWidth=2;fillColor=none;align=left;verticalAlign=top;fontSize=14;fontFamily=Arial;container=1;recursiveResize=0;collapsible=0;fontColor=#053B70;spacingLeft=7;" vertex="1" parent="7Cv30EDc3GMNcKOpRmR3-2">
          <mxGeometry x="19.01" y="80" width="528.5" height="180" as="geometry" />
        </mxCell>
        <mxCell id="7Cv30EDc3GMNcKOpRmR3-4" style="edgeStyle=none;rounded=0;orthogonalLoop=1;jettySize=auto;html=1;entryX=0;entryY=0.5;entryDx=0;entryDy=0;dashed=1;startArrow=classic;startFill=1;endArrow=classic;endFill=1;strokeColor=#C0399F;strokeWidth=1;fontSize=16;" edge="1" parent="7Cv30EDc3GMNcKOpRmR3-3">
          <mxGeometry relative="1" as="geometry">
            <mxPoint x="377" y="77" as="sourcePoint" />
            <mxPoint x="377" y="77" as="targetPoint" />
          </mxGeometry>
        </mxCell>
        <mxCell id="7Cv30EDc3GMNcKOpRmR3-5" value="" style="shape=image;aspect=fixed;image=data:image/png,iVBORw0KGgoAAAANSUhEUgAAAdMAAAHTCAYAAAB8/vKtAAAACXBIWXMAAFxGAABcRgEUlENBAAAgAElEQVR4nO3dMXIbSZbG8eREG/CoG4jrySPXV4TYFwCxJxB1AEiUIVtsW0ZDxAFEnmBBXGCICPlNevKGPMEKHjxsZPerVokNkgDqZebLzP8vQtEzu9NQsUjWVy/zZebOcrl0AABge//i3gEA0A1hCgBAR4QpAAAdEaYAAHREmAIA0BFhCgBAR4QpAAAdEaYAAHREmAIA0BFhCgBAR4QpAAAdEaYAAHREmAIA0BFhCgBAR4QpAAAdEaYAAHREmAIA0BFhCgBAR4QpAAAdEaYAAHREmAIA0BFhCgBAR4QpAAAdEaYAAHREmAIA0BFhCgBAR4QpAAAdEaYAAHREmAIA0BFhCgBAR4QpAAAdEaYAAHT0CzcQiK/XHx+u+EufOecONriY78656xX/99vFdHjLtxWIZ2e5XHK7gY56/fGBhOGe/HESjM9a/3k30X2+keB1Er7f20G8mA6vEl0XUAzCFFiTVJNNWB60KslUIaltJp931QpbqlxgDYQpcI+E5kErNEsKzG35oL2VPz5srxfT4fcwfxWQH8IUVWsFZ/Nnv/Z7soG5VK9X8s9rqljUijBFNXr9sa80m/A8JDiDuGsF7NViOlzVIAUUhzBFsVrh2fx5znc7iVkrXGl2QpEIUxSj1x/7hqAB4WneJZUrSkOYImuyJGUgfxi2zc+dBOtkMR1Oar8ZyBdhiuz0+uNBqwKl+iyLr1onEq50CyMbhCmy0ArQActUquE3mziXYKVLGKYRpjCLAEWLD9YRFSusIkxhisyBnhCgeMSlhOo5NwlWEKZITpawDCREmQPFuuYyvzqiKxipEaZIRoZxj51zR3wX0NGdDAOfMwyMFAhTRCVV6LH8oQpFCBcSqmwQgWgIU0Qhe+D6AH3NHUckNzIEzNwqgiNMEVSvPz6WuVA2VPihfb5oo0sV1T5DtfGq2yUWZS5DwCOGgBEKYQp1sq3fSYVDue3zQF3ryLKkB3C3Di53stGFa53HulfZ98gPAZ+ybhXaCFOoaYXoScHLWtrnevoO0u8lzM21Avewdeh5yee4XkqlyrwqVBCm6Eyaik4Lmw9tjhJrjhO7rbGakRek9nmve4UNIc+kUiVU0Qlhiq0VFKLz1gHXV3LINXNrj5BK9rCgQ9UJVXRCmGJjBYRoc1JJcwwY82cdSQXbPjs213AlVLEVwhRry3hOtNkph/CMpIBwJVSxEcIUT8o0RGdNgLLVXHoymnHYOjovl58jun+xFsIUj5J1oqcZLJ9oV5+cLGKcbOLRnAiUw9KczxKq/FxhJcIUK8nDbmR8eG7eOkh6YuB6sAVpZjrOIFjnEqgjA9cCYwhT/ESG40aGN58nQAuWSbD6BrZj5lPRRpjiT6150Y9G78hlK0QZaqtABmfbziRUmU8FYYq/j0IbGawEmmO1Jjyw6iZz9wOjIya/LabDUwPXgYQI04oZHtLlCC2sZPgIP4Z+K0eYVqrXH59Il66V4TMOd8ZGpFo9Nra94aWEKj/DlSFMKyPzUCNDD6CZbDhOMxG2YnBHrrkEKj/TFSFMK9Lrj08NNRhdSIiyoQJUGNxchAalihCmFZBq9NzAmtG5XMeIBwxCMrTZCGtTK0GYFs5INTqXoeURc0mIyVCoMpdaOMK0UDKPdJ54bpQQhQlGQpW51IIRpgWSB8co4bwRIQqTjIQq+/wWiDAtiDRgnCdcN0qIIgsGQvVGqlQa8ApBmBZCmowmCR8OHFWF7BhYb/2e5qQyEKYFkAfC74m+Etr/kTUDS2poTioAYZqxxMO6bJ+GoiTe/MH/Pg0Y9s0XYZqphMO6rJtD0RKf5ftmMR2e8xOWH8I0Qwm7df286AnDUahBwvlUfs8yRJhmptcf+xB9F/mqb+SXmyFdVEWmUkYJhn7979whgZoPwjQT8ks9ibwJw1yWuXBWI6omQ7/nkadV5hKozKNmgDDNQKK9denSBe5JtD0n86gZIEyNkzfiScR5GxqMgEckern9vJgOT/i+2EWYGiaNRl8iXiHVKLCmBFUq61ENI0yN6vXH5xGbHqhGgS0kqFJpTDKKMDUmQfcg1SjQUeQuezZ4MIgwNUSC9CriW+5vdOoCOiL3N9Dpa8y/ar8BVkQOUv9m+98EKaBH1mHvydxmaD6wr6SvAgZQmRoQeWtAmhiAwCIfPsHSGQMI08QkSK8iDQ1x3BMQSeSXZAI1MYZ5E4oYpM2wLkEKRCLzmQeRhn2/yFIdJEJlmkjEIJ1J5x/DukAiEdekXiymQ+ZREyBME4gYpOyaAhgRsduXQE2AYd7IpPvuj8C/UHOZQyFIASOk2/dQNl4I6bVs+oKIqEwjirQ9IOvPAMNkGZwPu6PAV0mFGhFhGokM7f4R+G9jqzEgE5F2TSJQI2GYN4LWHGlIFwQpkA+ZhnkT+IIZ8o2EyjSwSM1GvH0CmYrUmEQzYmCEaUCRgpTF2kDmeFbkj2HeQPjlALCu1gYPITt9v7CXbzhUpgFIt951wG3E6NgFChTpwAtewgMgTJVF+GUgSIGCyTPEz6G+CvhV/jfPEF2EqSKCFIAW6cJ9HeiG8ixRxpyprlHAIPVzKQf88AN1kA79i0BfbHMe6jN+nHQQpkoCv0U2mzHcRv/CACRDoOaDMFUgHXKhg5TNGIAKBQ7UfZmfRUeEaUey4DrUfrsEKYDQgfqKXZK6I0w7aJ2kHwJBCuBvgQPVbzvIDkkd0M27pcCduwQpgJUC92f8KkfFYUNUptubBApS37I+IEgBrBK4Qp3IiBs2RJhuQY5OCrGgek7XLoCnSKBeBrhRvsP3nA7fzRGmG5LO3RBnELKIGsAmjgPt5bsvh5djA4TpBmT4YxTo4wlSAGuTqaDDQIF61OuPT/lurI8GpDUF3ryejacBbCXws4mGpDVRma7vnCAFYI1UqAOZKtI2Yf50PYTpGmT91VGAj74gSAF0JVNEhwFu5C47JK2HMH2CzJP+HuCjL6QjDwA6k0B9E+BOvmL+9GmE6SNa5wpq8w0D7DYCQJWMdP0W4K5+lK1T8QDC9HEh5knn7G4EIJTFdHgaaFMH5k8fQZg+QNaTas+TEqQAYjgJsGRml/WnD2NpzAq9/nhPWs13lT+azl0AUUgVeRvgOfZ+MR2GWm+fLSrT1c4D/AB+JkgBxNLa1EHbqRQcaCFM75GuNe19d2eL6ZCGIwBRBerwZbnMCoRpiyyD+aj8sXeyoBoAopMRMe2GpH2Wy/yMMP1ZiGFYjlMDkFqIhqSPHNf2A2Eq5C1L+3zS92xeDyA1eaE/DrDlIH0ggjANN7x7SccbACvkxV67d4PhXkGY/kU79O7kLRAAzAg0f+qHe6vv7q0+TGUTe+3uXeZJAVgVYv60+uHeqsNU3qa0hyh+Y54UgFWt+VNNr6QwqVbtlelIeXOGmeyLCQBmyQv/e+XrO615795qw7TXHw+U996dM08KIBfSIDlTvNzdAP0n2agyTOXtSfubfrqYDm+VPxMAQtJeLvO61qPaaq1MT5SPVpuxDAZAbqQA0J6aqvJZWF2YStOR5ppShncBZCvAcO9+jc1INVamDO8CwM+0h3ura0aqKkxlLF+z6YjhXQDZCzDcuxtg+Ni02ipTzeBjeBdAMQIM976raWekasK01x8fK29kP2J4F0BhtAuEanZG2lkulwYuIywZu79W7OC9WUyHHD0EoDiycb1mk+avi+nwqvSflFoqU+2lMFVvmwWgXLKL253iF1hFX0nxYSpVqWb4XdTwlgWgaprDvfsyzVa0GirTE8X9d+dUpQBKJwXDpeKXWXxnb9FhKp1kmuF3ytFqACpxorj29Hnp1WnplempYlV6x5pSALWQ1Qqaz7yiq9Niw1Sq0teKH8maUgC1GSk2IxVdnZZcmWq+Bc1oOgJQG5nW0nyWFludFhmmVKUAoGMxHfqNF26UPq7Y6rTUylTz7eeCnY4AVE61kbPEW1ncDkiyrvT/lD7Od7Id1BimOy8/DJxz/mAAv9PTnvKmF0BO5rKDmh/y9NM9k+XXT9U9E3r9sf/aXyl93BupeIvxS0lfjNB8g6pu/92dlx9OZVib8AT+stsKEX/q1O87Lz/4DeFPl18/1dRL4Z8N/1b8rKLCtKjKVKrSW6XlMP5tdK+WdaU7Lz/4CnRCiAIb+SyhWsVzotcfnyv2oxRVnZY2Z6q529GooiD1legfBCmwsXd+6Hfn5YdaDsLWnO8sqhGptDDV+ubMa9mcWYL0i4FLAXK1X0ugyrTXhdLHver1x4dKn5VcMWEq7dZalVUVVakM7RKkQHf7FZ3dqVmdFrPXeUmVqdY3pYqqVN6iJwYuBSjFkXTBF025Oj2SfQGyV0SYylDBvtLH1TJXqn3GK4BKpoeoTv+plMqUudLNsasToO95RdWp1hFtx7ISI2vZh6ny1oHnFc2VUpUCYRQfpkKr8Ngt4Z6VUJlqVli1VKW1/LIDKRzUcNfl8I+Z0sdlv8UgYfpDTXvwVvHLDiSi1b+RA60C5Hnuy2SyDtNefzzQXA6j9Dk5qGWBOYCAFtPhRPG806z7OHLfm1fr5vvzSq+VPqtkWkM6QC4OttlVbeflh72KNsP3Q7Qa69Vf9/rjk1z7VrINU2k8OlL6uJqq0q0tv34qZrcSYB07Lz9sdVJKZafK+Op0pLSV63Guz+Och3m1mmjuZKgCALAhqSS1dn/Kdqg35zDVWuhLVQoA3Wg9R/d7/XGWDZJZhqncbK3Go1r20wSAIGQlhFZPRZbVaa6VqVZVelHLMWsAEJhWdZrlOvhcw1TrZlOVAoACxWUyz2XZY1ayC1O5yRpdY3eygwcAQIdWMydhGoHWTabxCAB0VTvUW3OYshwGABQpNiLt5jbUm1WYKg7xXla0Dy8AxKTVi0KYBkRVCgC2VTlvWmOYzglTAAhDlhteKHx4VkO92YSp4hDvhLWlABBUddVpThvdM8SbsZ23357JziYcTP6Dn7c/X5696LxEi/u7kj8JaqJxf7EZv+a01x/PFQogwjQAjRNL5mxqH9/O229++8crpZGFkvjTSF7vvP32eXn2Yutdvbi/D/L3913X+4ut+Wft6463zw/1HuawJ0AWw7yKe/ESpJFJxcSD/nH+gb/VfqTc37X4+0vFHl9VQ725zJkyxJsvrbnu0m1bOXF/15Pt0V65klHAucLlZ3GOck1hyhBvGhwovp79Lf+9LI+rSuCouq/YBo1nrj+Wbc/6F2o+THv98bMOD5o2gjQN878EmSNMYZnWc9f8S3kOlanWEC8dfQAQl9Zz1/y8aQ5hqvVGQmUKABHJmv5Lhb+RylSBxk2csVEDACShUZ3uyqoOs0yHqUw6syQGAPJVxRIZ65WpVmnPfCkAJCAndN0p/M2mh3prCFO/JOZa4XMAANvRqE5fWb73NYQpQ7wAkJbK6KDfWtDq99FsmCrOlzLECwBpaT2HCdMtMF8KAAWQ1RQ3Cl+J2Y5ey2GqcdPuZPIbAJCWRmFDZboFjZtGVQoANmitNzW5RanlMNXYj5cwBQAbip43NRmmih1bhCkAGFD6vKnVylTjZs2ZLwUAUzQKHMJ0A8yXAkB5NDbQMbl5g9Uw1ZhgZtcjALBFa/MGc9Wp1TCl+QgACiNTb3OFr4owfYpi8xGVKWrAS+N6NB7g0KHxbDa3PMZiZaq1WQPnl6IGhOl62KPbjiI3b7AYpsyXAmtanr3wD6YZ9+tRvio9NXx9tdF4PjPMuwaNm0SYoib+0ORLvuMr+XM0D5dnL1gmZ4fG98LvhPTM0hf1i4FruE8jTBn6QjWWZy/8lMZg5+23PQlWUw+ZhK6kcoch/nzpXn+scUEHlp71FsN0V+EzeAtFdaT6GvGdRwZmCutFTYWpqWFerU5edj4CANM0ntGmRmCszZlqNB/RjAEAtmmEqamO3hLDlKoUAGzTGJ6lMn2ERvMRYQoAtmnsA6CxU54aa2Gq8abBshgAMMx39GpcnaWDwkusTNn5CADsu1O4QsL0AZ2XxSymQ9aVAYB9GlNyhOl9Fo/UAQAEU9SG95YqU435UpbFAEAeNKbkzHT0WgpTc0fqAACCKWrD+9LClPlSAMhDUc2iFvfmBbCBnbffnkV+Q7/tcgpLbteLYDS+J2YqU0thyoYNwIZ23n47lIOvNQ6IWNvO22/vl2cvNt5Uf+ftt2Zz8tjX+3l59uIk5t+Jx/k91BVOj4n6c/SY0hqQCFPU5iTRA2Xbw7YHia73XYK/ExWxeDg4gPWl6mY0UxEgazddL17rtLGuLIVp52FeNmwAgKwU04RkKUx50wUAZIlhXgBAKsXsglRSmHYeewcARKUxzEuYNpQmkDktBgCQBMO8AAB0RJgCAFJROSTcAsIUAJCKxvSciS0FSwpT1pgCQH1MHMNmJUzNnEkHAMCmrISpmZ3/AQDYFHOmAAB0RJgCANARYQoAQEeEKQAAHRGmAAB0RJgCANARYQoAQEeEKQAAHRGmCI2j8QAUjzBFaMWcChHYXdFfHVA4K2FK9VKu89pvwJq4T0DGrIQp1Uuhlmcvbp1zv9V+H55w45wbbfnv3ka7yp/NE/29gEklDfPuGbgGrLA8e3HqnPsfCQ38cCcvGofLsxfbjs6MEgXbyZb/3nmiIW1e6BDULwXdXsLUsOXZi4lzblL7fdC2PHtxndMRhjJSwe8qNJk4y5oGJABAKsUcv0mYAgBSyWZU5SlWwjRVEwUAAJ2ZCNPFdKgRpq8UPgMAkBcTSysZ5gUApKIxZ2piaSVhCgBIhTnTADqvQez1x8V0hgEA8mEpTDXGvYt5ywGACjDMCwBAR7tdP2AxHdKAdI/G28Wh6hUBAILo9cdFjSSWNswLAMiDxhDvzMpXWlqY0oAEAIjO0kb3GsO8NCAZtPP223Hkzc39i9n5tiexJLheb5TR9VZ1fxGMxrScmd3zSjo1xnEahT07b7/5o7p+T3Bh/hd1sOm/JA/6L2Eu6VGH2zxcEt7fwZbXm+r+Dhi5KpKZMDUzzLuYDjWO0Xmu8BnQtXGgKTna8mNSNbFtux1mqvu77fWmeuHdT/T34mEav2tmRhuKWxrDxg3oiNENIB8m1pg6g2Gq0ZnFvCkA2KdxOAmVaUCsNQUAw7TWmC6mQyrTB2jMm1KZAoBtGtNxd5a+QmthylpTACifxnPaTCevMximGiU7YQoAtmk0+pkZ4nUGw1TjTWO3tD0fAaAwGkWPqU04TIXpYjrUKtupTgHALo1ntEaPjRqL3bway2MIUwAwSEYOOx+9xpzp0zRuEGEKADapPJ8VRzJVEKYAgJg09gIwc/Raw2KYaoyDsw8nANhU3LIYZzRMVdqd2aMXAEzSeDabWhbjLIbpYjr07c5zhY9iW0EAMESajzRO9yJM18TmDQBQHq3mI1PLYpzhMNW4UYQpANiiMWJ4Y/F7WnJlus9OSABgikaYmhvidYWHqWPeFABM0TjDlDBdlyzG1ThehzAFAAMUV1gQphvSuGGEKQDYoPI8tth85IyHqcrmDcybAoAJRe581Cg9TB3VKQCYUGzzkbMcpovpkCYkpGDqjESgBDJfqnFSjMkhXme8MnVKJT1hmlaqN8nLLf+9VL+s2zbcpbrebdf6pXpZ0WhoxPYGSvfObJj+YuAaHnOl0Ert5033rB3XU5FT55yft96L+CXfyt+7jXO53pgvYd87XO9IrjfmJiVbX+/y7MVo5+23nO4vdKhs1iDbzZqUQ5h+VPicQ3lIIrLl2Qv/w3+cy32X683mwSvXe2LgUta2PHtBsFVEmkA11pearUqd9WFexRZorSEGAMBmtEYhCNOOtp37amPeFADSKH6+1GUSpho3cLfXHxOoABCfRpjOLM+XuorC1DHUCwBx1bAkpmE+TGW9qUZbO2EKAHFpNR9OrH/fcqhMndJbyXPFjZYBAE/TKGLmipv4BJNLmGq9lWSzRAMAcibFy3OFL8F8VepyCdPFdKh1MxnqBYA4tIoX8/OlLqPK1CktkWGoFwDi0CpeqEyVMdQLABlQHOK9tL4kplFjmDLUCwBhVdPF28gmTOXtZNuTKtoY6gWAsKrY9ajN+kb39/nN6n9X+JwThns3t/PywzK3awYQV68/HigN8d7kdNpXTsO8jqFeADBP6/ma1UlfWYWpvKVoDPX6vXprrkw52xWAOjluraou3kZulamTw5A11Fydmt9NBMjYrOJv3kBpL95ZTkO8LtMw1XpbOer1x3tKn5WbrN74gMxk0zQTgNZB9VkN8bocw1S6ejU2cHC1NiEtv366rfztGQgpuyDQIKsk9pU+LrsX/hwrU8cGDipOC/gaAGsu5GW1RlpVaTYbNbRlGaaL6dC/+c0VPup5rY1Iy6+frhQrfAB/PZOqfElVbjzKsrLPtTJ1VKcqjpXOigXg3GnFValW49Fc8WCTqHIOU62u3le1NiItv376Lr8EGlU+UDM/vKv1TMqRVkWe7XxztmEqh8VqVVXVzh8uv37y9/GQChXYmg/Sake4ev2xf35o7HjkFIuk6HKuTJ3ijX8tY/5VkkA9YA4V2Igf0Xlfc5AKrWIku7WlbbmHqeaQgFYnWpb8kO/y6yc/5Psry2aAR/kQvfAvoJUP7TqZInul9HFZLynaWS7z3ru81x/7b8BrhY/yE9/VVqf37bz8cCDDv/4P9wX4a+cw3wV/Jf0G1eP5+0MJYeof9v9W+rg3suwGAPD4s9dXpf9RukefF9Nh1qODuQ/z+kakK6XN7x0bGQDA2jTnirMfLs8+TIXWN6LaTRwAYF3SsKm541H263OLCFPFHZEc1SkAPOlEaZMGV0JV6gqqTB3VKQCEp1yV3slUXfYI09WoTgFgNc2qtJhnbTFhKqcMXCh9HNUpANyjXJXOS1o9UVJl6pTfcqhOAeBnzJU+oKgwlY4wrS3xqE4BQGhXpYSpfcydAoA+1ao0xwPAH1NcmEpnmNbesr46rXrPXgCQ3Y4+Kt6I4naaK7EyddpzpzWfKAMAys/UixI2abivyDBVrk53az9RBkC9ev3xgdJm9o0ip89+MXANoZwqboB/4k9HKPFtqmQ7Lz8MZP9QRhZs8L8/k+XXT5Pab0RmNPtQiqxKXQmnxjym1x9fKZ61538I6O7NwM7LDz48J4rfe+jyB1MccoyZfb3+2L+Q/q/ihf5XqWFa6pxpQ3M44bUc9wbDJEivCVLT9uVcUNhHVbqmosNUee7UlbYuqlC+In1e+03IwP7Oyw+M9BjW649PFX+X5qX3npRemTrl6nSfpTJ27bz8cEBFmpVB7TfAKlkKo/msK25d6X3Fh6lUp1p79jqWypjGwzkvB7XfAMNGihs0FLfb0So1VKZOuTrdZbgXUMFwvEHSG3KkeGXFV6WuljCVSe/Pih9JMxKA4siom+buRP680iq2Za2lMnVSnc4VP6+47bAKwFKLvNzUfgMM0mw6cjXtb15NmMowg+Y39rl0u8EONgPIC98vQ2Sno3eKVzQr6bzSp9RUmfpA9XOdd4of+VF+AGHA8usn7eF8hFNFU0pmtIOvqmKjqjAV2mvbGO41ZPn10wnDh1k4ZgckO2SUbV/xgi5kJUU1qgvTABs57DPca86h4iHx0OUr0jfsz2uHjK5pHq9W/AYNq9RYmboA1SnDvYb4imf59ZNfc/qrhKrm0D62M5Mh+IPl10+M5tiiPrxbw1KY+4re6P4xUk1qvo3dLKZDAhVANngO6qm1MnWy9kmzYvHDvTRUAMiCrJXXDFJX89nP1Yap0B7ufcdmDgCsC7A5g/e5tqajtqrDVL7x2o0qE/buBWDcSHlzhnltS2Huq70ydVKdau6MtMtyGQBW9fpj/8x7rXx5xzU2HbVVH6byA6A93HvEUW0ArJFVB9q9HZeL6bD6pU7Vh6n7K1AnymtPvd9ZLgPAitY8qdbRaq7WNaWrEKY/aA/3OuZPARgyUt7lyMmaUr+NZ/UIUyE/ENpvWM+ZPwWQWqB50pnsd149R5j+TE440O7uPWK7QQCpBJon9aN4A76pPxCm/xRiuPcj608BxCbTTBPleVJH9+4/Eab3BOrudTJ/SkMSgJgmyutJHd27qxGmK8gPiva5mH+uP6UhCUAMsr3pK+W/6i5QsZE9wvRhpwHOxdynIQlAaNJw9C7AX8Pw7gMI0wcEHO49YkN8AKHIdNKXAB//W8177z6FMH3EYjq8ds69D/DR7+TNEQDUSJCGCLyZnLSFBxCmT5B1VNrLZbwvdPgC0BJohyPHMpj1EKbrOVY++7RBhy+AziRIrwLscOQNmCd9GmG6BvlBCvFm5t8gr3r98V6AzwZQjxBbBTrmSddHmK5J5k/fBPjoXfbwBbCtXn98HmCrQMc86WYI0w3IdoMXAT56XypUAhXA2mSr0hBBesc86WYI0w0tpsPjAOtPnQQqu4oAWIusCPgY4G7NmSfdHGG6ncMA+/d6r2TIBgAeJEEaYi2pdyLTWtgAYboFeWMLtazlNYEK4CGBg/SzTGdhQ4TplgI2JDkCFcAqgYPUb2CvfaZzNQjTDuQNTntD/AaBCuBvgYP0hg3su9lZLpc5X78Jvf7YNw4dBbqWC2l6AlCpwEHq+z8OFtPhLT9f26My1RGqw9dRoQJ1ixCkhwRpd4SpglZDUogtBx2BCtQpcJA6Onf1EKZKWlsOhlgy4whUoC4RgvQNnbt6mDNV1joCSfvkhsYlB/QCZYsQpJ/p3NVFZapMhkxC/pAesfUgUC7ZIjBkkF4QpPqoTAOJ8GZ5I40DVKhAIQJuWt9gdUAgVKaByFxEqE0dnOzle815qED+/EhThCC9CTxqVjUq08BkyCbEZtSNprWdjjwgQ4EP9m4wkhUYlWlgch5giGPbGr7R6Q8ZVgaQkVbDIkGaOcI0ApmjCBmo3hepggFkgCAtC8O8EUWYE3ES2if88gB2RWhQdARpXIRpZJEClV8iwKhefzxyzr0LfHU8AyIjTBOIFKg0JgGGSKORPxTjVeCrIkgTYM40gUhzqDQmAUbI/Og1QbnPYjsAAAZASURBVFouKtOEIg33OOZRgXTkhXYUcIvRBkGaEGGaWKRGBNcc/suwLxCHDOuOIkzpOII0PcLUgIiBOpcKlZMigIBkWPc88LKXBlsEGkCYGhExUB3DvkA4EYd1HUFqB2FqSITj29oY9gUURR7WdRyjZgthakzkQPXeL6bDUTY3CDCo1x8fyrDu80hXx8HexhCmBkXa+LptJlXqbY73C0gpwmEWbfQ9GEWYGhVxgXfD/5KeUqUC64ncZOTYiMU2wtS4SLsltVGlAk+IXI066XEY8HtpF2GagV5/7JsMfo94pVSpwAoJqlHvUl5w6b43jDDNhDQ4TCI2JjmqVOAvMu1yGmnHsjY6djPB3ryZWEyHviHpUIZ7YvHztf/hnFTUTF5kryMH6Vw6dgnSTFCZZkbekP0w01HkK7+TKvUq+5sIrKHXH+/JutEUv2sDGo3yQphmKkEDRONSWvMZ+kWx5PfrJPK0ipOplQHzo/khTDOWaB7VyRCUf2Mf8UuPkvT644H8bMfafKHtt8V0yJRKpgjTzCVYj9p2J12/LCBH1qRLd5To92gu1ShTKBkjTAuRcNjXSVPUCQ8D5EbmRU8jr+VuY1i3EIRpQRIO+zZmUqkSqjBNRnROEr6AOoZ1y0KYFiZht2/bhYQqTUowpRWiKZqLGnTGF4gwLZTsmnSa8IHhCFVYYSREHbsZlYswLZjMB00ib322CqGKJAyF6FxCdMJPQpkI0wokbk5qu5TlNAxvISh5kTw2EKKOJqM6EKaVSLRB90NmEqq8pUOVge7cNg6MqAhhWhlDVapr1qn6oWje2tGFdLKfJlonugo7hVWGMK2QvL2fG3rwzOV6Rjx8sC6ZDx1IiKbYsWgV5kYrRZhWzEjH733+jf6chxEeIlMWJxKkln52P8uwLqMsFSJMKydv9yMjc0xtd9KJTLWKdhV6YmTev40dwECY4i8y5zQy+KBy0rB0ztxqfWTj+YHBKtTRYIQ2whQ/MTr023YhocowcKFkGPdYAtTKXOh9F1KN8nKHPxGm+AcZUvOB+s7w3ZnLMDDBWoBMAtSx/zQeQpjiQQa7fh/yd7A6566oFvKQUYA6jhvEUwhTPMn4fOoqviP4SqpWmpeMkBGPQ8NzoKvMpQmO013wKMIUa+v1x8fG1vSto+kKvqJqjU+qz4GEqPURjra5vECO+JnBOghTbCzTUG3cNMFKuOqT8Dxs/cmh+ryP5iJsjDDF1jIP1UYTrtcSrgwLr0mGbdvhmVPluQqnG2FrhCk6KyRUG/MmWOWft4vp8NrGpaVzLzgP5E8J329HiEIDYQo1hYXqfX5JxK388UH7vcSQbYWm/7PX+s85Dtc+ppkTPSdEoYEwhToJ1eMChv3WcScB64P1e+uftxYf0q2wdFJltv9Zw/eLxiIEQZgiGFlS43dUOqr8Lt9IwLpW2LoH/vsq/v//bI2/5+De/67930usLjfBOlEERZgiONn84USq1Zof6IjvUqpQdixCUIQpojF6/iTKw/m4iI4wRRIyBHxs8Og35GsmDUUM5SI6whRJSbXaNCzlsl0h7KAKhQmEKczIbONzpHUpVSgnBsEEwhQmGT8UGmlwSDzMIkxhHsFatZtWgDKMC7MIU2SFYK3CZetsWgIUWSBMkS3pCG6O96J5KV/z1jF5DOEiS4QpiiAbQ7TDlarVtlkrPKs/SAD5I0xRpIwPpS4V58iiaIQpqiBDwoetY8SoXMOatY6yIzxRPMIUVWoNCzdHjFG9bu9GgvPPP+yDixoRpoCQoeHmHM9DTlpZadY6co7gBARhCjzi3mHZzyRknxXePXz/jNYrq+ezAlYQpsCWZKi4/ad98LblqnYm/7yVP38fak5nLbAdwhQITJqfGk34tt0/1Hsb94dbm4BsXNMEBIRDmAIA0NG/uIEAAHRDmAIA0BFhCgBAR4QpAAAdEaYAAHREmAIA0BFhCgBAR4QpAAAdEaYAAHREmAIA0BFhCgBAR4QpAAAdEaYAAHREmAIA0BFhCgBAR4QpAAAdEaYAAHREmAIA0BFhCgBAR4QpAAAdEaYAAHREmAIA0BFhCgBAR4QpAAAdEaYAAHREmAIA0BFhCgBAR4QpAAAdEaYAAHREmAIA0BFhCgBAR4QpAABdOOf+H0YoUEmUq/XRAAAAAElFTkSuQmCC;spacingTop=-10;labelPosition=center;verticalLabelPosition=bottom;align=center;verticalAlign=top;fontSize=15;fontColor=#053B70;fontStyle=1;spacingTop=-10;" vertex="1" parent="7Cv30EDc3GMNcKOpRmR3-3">
          <mxGeometry x="35" y="62" width="56" height="56" as="geometry" />
        </mxCell>
        <mxCell id="7Cv30EDc3GMNcKOpRmR3-6" value="" style="group;spacingTop=-10;labelPosition=center;verticalLabelPosition=bottom;align=center;verticalAlign=top;" vertex="1" connectable="0" parent="7Cv30EDc3GMNcKOpRmR3-3">
          <mxGeometry x="139" y="62" width="145" height="86" as="geometry" />
        </mxCell>
        <mxCell id="7Cv30EDc3GMNcKOpRmR3-7" value="" style="group" vertex="1" connectable="0" parent="7Cv30EDc3GMNcKOpRmR3-6">
          <mxGeometry x="10" width="135" height="75.5" as="geometry" />
        </mxCell>
        <mxCell id="7Cv30EDc3GMNcKOpRmR3-8" value="" style="shape=image;verticalLabelPosition=bottom;verticalAlign=top;imageAspect=0;image=data:image/png,iVBORw0KGgoAAAANSUhEUgAAAJcAAACXCAYAAAAYn8l5AAAAAXNSR0IArs4c6QAAAHhlWElmTU0AKgAAAAgABAEaAAUAAAABAAAAPgEbAAUAAAABAAAARgEoAAMAAAABAAIAAIdpAAQAAAABAAAATgAAAAAAAAFKAAAAAQAAAUoAAAABAAOgAQADAAAAAQABAACgAgAEAAAAAQAAAJegAwAEAAAAAQAAAJcAAAAAKNMRBQAAAAlwSFlzAAAywAAAMsABKGRa2wAAKSBJREFUeAHtfQmcFMW9f1UfM7O7ICuIF6iIilcEBRQWVh3ihQaP+I/mqUnEJM+nwgKL51MTln/8R+ORBVbxSOLTPH1JvGKiPtSgjGGXUxAPNCFGUQEj17LC7jLT013/b83s7HRPd890z3TPzixb+5nt7qrqql/96lu/+tWvjiakz/VxoI8DfRzo40AfB/o40MeBPg74zQHqdwblln5oSlPYmmaty1+I6MP3vlxneNaH7ev3+yS40gDSwowIZyZBwMKFg4FGKNHeSqcjRPZl8PV6cKWAxAiZQ4gXAEpDx80dJWwuj7/35ZkNbt4r57i9DlxGMPGq6TlAZQPGvgC2XgMuDqqelk7ZwJQ9LNmd9japVtbg8gdQNGIFhJQuldbRUrG8lYy9SaKVHbi8AVQSQEnAJEd/XijeyS45NapEh5wYLOQPPg60cpZmZQOuwkCVGsX1zOgtBbp8wVauICt5cOUHqp4FU6rDtLvmC7Zy6zJLFlzuQZXq6gi6kvIxbKaBRmEqcebKRZKVJLhCU+Y3MOKU2VxKlReg7CDEy83DnJa91EFWUuBKSiu2xI75ev9SZ6ye1nzu3TSwUuVFSYDLeRfYe6SUU8A5BRkHGCE9M2CxK0uPg8sZ8/Y9UGVWmDM+EVJKUqxHwRWc0oQuMLsdqJSYlVnhPfHsBGSlwrMeAZcz3apPWmUDbzmATMxWAD/Ckkwh/2WfNgcVvSb6ct3c+IZFG+3j7dsh8Q2vRuQRkyEcaNieEzTM4/C49nH8Cymq5MrVDZaKOPeP3f6knEuK9RRfiwau3MCik0rG+MkYHThjZf+YWDWaaexIIrABCVhotI1QYQutjK3dEzxlB2mgmj9wcZ9qLoBBwkXQG0xyn3L+b/gOrtxmhuIX2hG7rn9v/8oAu55q9BwmaMP4O5TRz/B/pRpgj+y9f9SnjtIpcqRcIIPKUbRG7Cu4cinuPSWus9X3/te+PSAWkm9lhNyaiAdzOf70jvtwz/8R4vKs3Q8dv0MfWAr3pQIwI9s85EypFNBNkSpmrj+ckPgvKSMX4T05x7txQOxdlahXRBec8o8ccYsenJv//i/n8QVcuSVW8USz01qtunn9wUxRbyCadjtA42wUzQi0M/qcRtQ7ShNgfHWu/XSa312k4JT5TuNlB1bCzFC0Pt8pzTyeFtWGU1WbgSkUZ8DiL6F20LVfjP/DyWXPOH+Pv1sExwdIHEAgNGKVHQcery+rMC/8PJVcuYBV7NGKUwb1u+7dA7UA+XciSHcRDb2dG8eFnKa9KEjanXsaT17v5tVixs02WvdLgnkmucoVWLyC1RA9ClLou4TlYVng71Dsf9TYocUEi9u8kg27uBLMM3BhdDXHusA9bGo4ui5IauuHk9OmDbKmDx2hxgYwRo6GBmUXJYs/f4cOAMYCtpHOvamKnD7rEDLm2qS9zDaivwHZAWZXf/nT5Am4+MjEegK6B4F1et3gQG39lfJB4oMBjT0QlAJj7NgE24IA5Qmjw3zAlUiVEp6CjQt0KkcFNDJbDlU+JE+c9ePQhGlH2ET13dseYCyc7Dq9I6FgcGUb8vaIjnXG7MPk2vobZFWczxjDyI9dySi5AJ3XMHLZZZZKN2VaHOaHTq6h5+kY0bKIPZWOQLqXI/3/A/zeolGpUaqtvzFQM/24PPMr6DX7emHhpKAoKPnul6XuuzxusgErOUrJI9F8Xxl5U5XcX/0OiWvnASPj8DsMSUEaJQEDK/v+ZNvgCvjtycwC8mob5M5qdJDfJEzNDM7+zAUWY18JVO6wjDjmWpkJ5CCAaggiiiDnGEjK4bg/lVCpVp448w0lTp4lK+d/Zfm+T568fqzMFKBtDvRnT864KEhycUKsyp60vBdvk0Swtn6y3D9+N4Ztt6HyLgNNqDyjERT91hhZDXAJYnLByvgn0Jme44YF1w6jRbz2e5XSf1q+W9XvYIDvKITppaYISTkUEhXGWnqzLNF7AjUzOd1Fc2kzhTlLr0wUeYPLrn8u5pROJZRkuXbmDHR5PwGLrkdF8W4mQxoDMEnpMkzTIEEsXOsvxrZRUVtONOVdp/bTRDKJdOPbIJVe7txywmaLpImsxQ+EZDw8GWYCL+c/D7uaCfTOQO3MO8nE+hOt0vHDLwmw5AEpmemDZkvBkRkv27O+NWWLZwjr6penGjzxUDRgQXeSBp57pkbY9YRRGD7pMcg+o6F0V+R7mHH+X8R7RQzQ1erGFTsz6ebPVeOv24sOsR1AmQD9vhLdllW0tB+ABS1rL6W0iQjK/yqPD/k6HZi+04ZNlESNREHdv8AgtAMOcNMMAG8BHPino0IOkoaNj6uDR/6TfLmGx/fV8bVe0ogLwshkWEZGwwpdC9ZdAxkJ2z5ms2dFX57hOj3bjOwCMKwPdKgXa0z7MSp2kiUGKMeZ9h7C1gICr8YE+leydN6/4JkVMf3q1g6Gsn0dwPhd1P+JCbuXSU9HEQWkr6mb0a09T6Ls3s5HTraUWoYiwBQSDEg1GhPOAxnj8BuLhJBYBklJKbsO/o8oSvw5suoh3hgyIhlS9uTBzshaiIHVteSSRkyeilYWziwRJ8LnlaOUhG88QN6rfR+AuR3SZbSJ5bxiCNmIUWJEENnDiiQ9qi5tXE0+X2FS4jPp58+xVY92KKN+9HZApNvxiMEAlzSsH4Amd+ljqGTtM/gvR3mfDgj7Ne558PhteM7tNq/uVD9fuUE7/IxmmcY/g74ahyQLoByDzdihByPBCYIoqvLQms1qzew28uGzvgJMHnEBL9dUc0HoMHXDoifN/rl9ErWRO1oyht3oEJWNXc4zG5ym4zoeusHQ5gOHxmngKuDnFoAKxkgTr3llrQTwnwWo/kAi93FJlbfjKyQYU84UGDkNk9MHIF2IGdYJ4L4N3e316EOjsBICanm+DgZVuaLiYhRjKtI5Fb9+lmUi9BH0v79R2qo/JOsbYvlm5+Q9r+vXFbiCUxZYMNNnQymG8oHK4DFElX7AqHYTKsEobRO6D9sMECzHQP9uZWk1upQG73WVhgaBNHifbnBC3VEaFW5GuSZBOo7gipzJUfLfhAkLFXnnOhJ5Yq8p3EMPu+4xH5XHWFFZiEwq8TScGQWt+UnfNgCEG6QAVY5jVJiJfKebgJUghv4NXdXDChNu11rmfUFIxKJ2MqnO4zniT7rqF6tataPOf5WqHVvR1WJgwrjCb2z0lI6CeWCgQEKfacOP20Y2rnM5u+68vHbdI1f63XaPjsDltbh0VFR0hcE90nAcO3QdRno34B0jw7GqD17viiqZHVs+/ymyaYVvDHdEbyGRNkY09sXKD6TDa5YCXKOg6B+I5AwmFQDveHSh1SKp+FgbPHKrXyNJrjfb7CrC6PGCt9zo1RnDd3cc8lHPohVfHjqEqcI1YCgklsFxydSJ30pBI5fvXdG42BBaxg+xlsb1IaXyEmhyiyG82lAUnRTGEIDSS7G859pAqGoEuuiC6i4bm+zqFcTMyfZeZlhOArNJrczEPHs+bdpAhQhXojCzkKZeunJmd4D5b8oCuSy6vPFjz/IskYR2r7p7R6yf+G8g5wX8WoEvXuakS9zSH8JvasXi1qEpbz+ukJSTzOnyuUfniwtzgsucQdLHDt128R37h6eGZClwEWWsHu/wuUC964T/khijP+hYOu9LfUCvun/9/nZFJdOgCLyIrt8IMHhA/5quMKw/O3lWtV/lTm7zM6//AtLnOM0zK7iKL7UaBFGtngz2QWJRrnfonYIW+3Ys0HkNWd5oaWXXRy77++WNnYpKp6Mv/BOsIBnWfyGEipslV5JLCAY9fpUVSu5cc9rOpVdWcJkTTvr4JbXkCbtGolleBYaONKgbCWMmfU/ShCtJ5DFu4Nw3HAcYk2diSVALChxNFxqyiwqHQrL9KKi0WnRf6ZiF3BUqvWzBlZzmMa964AbTQgi2fbemvgLTKZcCXFjzlFYzuuJ/iF3P13Yub8w9zWKbQZkGtNy7O8Ci14D69w0l4DyitFbDKpCK2pmHG8I8fKAFSC9bcEFYhK1o9E1qYT5PIPQHnGPpfBO3n0C5/JmydN7atP++dbdn2SNbYXnBqg/2gYE9HGCMXqFo9Dt+caQQ6WULLqu1Wn5JLbm2bhQV2MWMsiOM3SHbBWa+hCH6M34xr1zSVVoefBtW+och1T9DA9SRTfuhOV4SnDjzHJ2np7fIba45QRY2+xl9LMGVtMYbI/Inv6QWY9K3NEbP0lt1krmz1RUq+b9mSvZNH2XIgF9DircAYLo5xoQKUYMppCmEbwTxwSWllznhXGYJS3CZk+FtxR9di7c4pM0PmurfnS/vGSlZi5UtD3y9L4wMuwue4+bZhhgmzu8Db1YZukduzdfYpMDu+EU5Uigg2L1ZwhJcVl1iAVRlfRUrDs4Gs0YbIjF0hxpbEj2+802Df98DUZY1YrWs9hyk10YDOyg5HgOic8mYG7GCw3uXT9doAlcxu0TsgDkbQn0iusO0OE/o8+wdImlPk8ceg22rzxk5QJkiBf8AvgFkhuqTIM1OkyviFxjje/Nkp9hn6xoN1HEyzF/l8q9LROvDbhtyor74EPtb0AJfU4RBxqG3PtK+fo+1apSyF7BT6UOjco+NKRo9k0y8Ja1ieMir1Jfb9EkC5HP0z/p7E7gAr7A+Ar/3Q5GXa+pOgagdi/wGdOcHqYW9pWsFJrxMIg3xbv++GxMHlGjgdZghIL3AxW7HQrg9WSTRSd1ent4IEXNyZryk4hjAZdclpiJ7eWVU5Aw4Fi0vzR3GtkOSLY/JA/7uZV49mtaF11aSM6YfSbBZ11M6VmOlLaWvQXphPZvOUTIcDfRMnY9nt267RgO4rKjwZZSIDayYgB6KbpFvJN2dyDeJsXc0UY30GqmFVbTirspzJVV8QFK160m4ztOVDKKo/BW8W9ule2H1LWsFT3dg5f9gvsLVqj798LPrGg2Tnl3fA/Qjf2OaHdE4q6LPYWnyUuxGhn5A+zOmVUKafaSqgd6ha3FghfqdL2jajSjfeDBgrKyIFWTCrCeVZfPWGRmS39Pe9tgmKVj5GwiAtwGsDtjA9mDHUocmsF0yC+7WTUbml4HFW+hm5gJMYYsgk1e6S0KQ1Rr5fNZOm3LJ5cHPcNg0NECq4xpZ1OQHT3JR4HE4VnfUtl4gMHorEq7BL7UmbRvu/4TZiKbY0vnveZIpQEyGH0pxIAB0VO/X+FvRaIUTvv4r09jaLbmSy2sykzIbzjJjePL87LMq0uGrS3uDwwkQbefi5GdILAOweNkGo9v6NlOZINfOWKg0L1hTcIHXwFxTeCouyeC4sFfkU4ll1bmshp6pF/uu1hyQaurPgz7JJVYtfimJlY5M6SDoSJeiq5wt1cyYkA4o7zsrvasbXFb2rfIubvGpl06vPxN2Tb6v8gzk3t0rWFBSDTPCJYIg3IqzLsZZhJe0F9e7nBCoY4CVmBMiThLpiwMk1c6shcS6ExJpIqazuhttFt5UorXzlQx8xHxFlnhlG5SVCZkKWtmW0mfC5QmzTsaHWhogscLQReyPrzTSAWzxzSZ0k9G79J+scWEWTgnJlVx1ysvqv6ue9U51pyoNkhirjMtiZzS+eytpGgdbF9aglqELTJyG6SuG4Tnlo8IEPx0Ug5d1JyTck7Hmedht7ZG76d2qUFwbjOXgfI2XwjR1556m0XyE6oMzK/UcR3rgdTFDC6NyMwjwdqTYr279CXFBPSAWV78hCtpozB8eJMaV7ZUktILOeO/jOHt/YzQa/Zw8NrZsJqsrxtUNxcDvHpTlbDCPT704dIlFkM8ozfP4iLIwh/2LoW0XHSbJ9Mi4Qg4XiHgqTtA8HE21HZtr3+03/Z2VONhuV/uBuz4gDZNgriies21pno0Up34aqqxsP4nR+N0wmp5BpKCMlo4S8h8ATelUpipEEtjvhFDwwc5bmt8n99ZCkpW4C998cDwe+ykUc668uwEWrOg4LEWunlFwCeuXVVRtDxzNJGmaprEfCqIsw9SBMSo2cCQSF67Aca8QquydftsH3ixf+/aa1sfG8s22BTuODyQcNibEhRSJpPyy6lypSPlfGa3sv+ssIqqvYbfKWUhHxul9WJ6PBqTBtMWvABZ3sM5fQanWVBHdbzKp+0cw4Vmq/2pv219Woj9Dy7gSJO7ngkxsEROfVwLV0wqe4mpYIlWpIRxUF1iAs1n+A7TICV5285bzl/MWclUQRuPkwhejocB3veOtEMksd6bFISG5rKd9zC9nJpbruf/0NceqVH4K8TD0xtRXNseZIkijqabcWEXa2yDTX88W3XUYP49+aGh/shsZXdh/Z94n1oQbQnJs1xzYqq6EeKh0QQdOLWR/xk7yOwoGFjKt3DVwJCTHrUQUwzm/+gHeIy6m2diCSrFzK4an2Gzrv/NVcsUF+VcoEArl0CUAJo9DK/uP/v/50SCHb+WOho2j0oGBcbIS/x85FL+HvL77MEyVuC/7+XVBWWmbCkPDj5GpC2CxvdAAXlBEbTZZdv/W3ATniMG/M6TRaYh1Tk5gdSeV6CgDmNR+uNvL5xv3DHZIUNX0j07ChCpGUBnnaeV6nx/VzciIeEf07FxRnYUzCkCcTAX1J6jgSSDnRzLV5pJaftaCC4BBcZbbpKt56wd9Vc7yTsRSYG54lSrsfrK0yZORW8Whx46FVoVPymQOwnJShRfY4Mq6tT/MGdODCL6Bi9HotwEs9yQmN8Qeiy+0ch2tYBcaX38EqJgLQJydUHZ590zJ1RIRHgqc0XYimJ2bSEysy4tbcW48ewgEYUDi2KlI/CVk8dPYSo8mqpG1oNEwGq71QXE5SQMiqejjRo40AV3gYuG0V/JOb6/IDHP0LFCcM5UPuvhbgoyuZxDBaMhRXnaRoB/FBdKIVn6eIQoADGv6FBZnvxbH1002hJkeILE2DR0DcC5HkGQKzuKBjugV5HR3bHnj+1miuQ7CMqXjALGDuIh379CYKD8DrDBnjQ8jjnyTXGixOIElt1AorIjZ3w4obU+hnX4LsUTLmJScJojS3WJtPaSspaNkwp4DcJQAP2vVXWEoXSYS4VGlpdHzNQv4QloQ5ORfd/lg0pI92T3zJzB7umhUfGdwkUphQUtg4swXkDsHVo5ujI0UGPulVDtrdkYylNTOPAwnL2/K8M/+mMRgC9K8K3rOfq8isudMwOYMLAdXO7MTYh8KabrXPtS7EP/ARckGjrC8SNW0vXj1S9I4IS8GyhPrnwEDz0X+DoybCTTAos1ux3d4ukZS6Dq+WTdcZvy81Vzg1JWQJ8XYJxplC6Ny9V/yNnfokrS8pZwu+q88ewYMxrGptgjON3CptPP3rrsSXmBeQZSsx4+3+jwdOwQvOgBWd/LgAx2I3+WYhH6UhG85SI5KqxHqXOdLAUsjd6pS2wte2LK6qcu80dhyTO986ranTiWDDy0U085FI6mMU9dsmx1TcbJd986r2Yj2/zyaMqyjLhxUCYi7f3TsH3/TxVuGqIqgXoo03oBn0vxvCLV94DrV/gD1VbKiQMdi+9vGNAUkJNbXIPxnKqEv+n2cd0fTqHWaQNZg38EeEynZPTSU76POgc//KXu03KHW+DDiyDfJlSAv2l6P62b8nHWPAjYNq1oEBx80kYaxfJ1Tfg72pDiJX4OXX8DPTTocYFX4HY6fQ8dfQSVTOksJxJ7DqYd5deUOM+uKhuPgNOFRHMC7GLMaDl/lDQDfKtLEq3zrrjMo8RVcnY9M2Aw2XIxiQf/C/4R6k0EBf+T+HFha/C3siv357oEB7GYp0LU8uEWi7BZw9Dn80MKRh+eOl4m14zcD3+l5nkQWupUkeVMUHfSNTykV5xJVfTEBMNvBI6eRVzP7CnOM320f9JynZpFsBfAVXDzj9qbR78LofiWMfvMBtO0JRsCMRfgPn9TpanlfMhbH6S3CjPbOaAtpODGWjWinYZ3N8z8XqTAXmfwKtq6vvAcYBDIjsxSFPU9WNmFSuoiugWrt1Vs/UOPsNgBsDgj5mAiwuCR4muYtRpZtOCLhaSZKF3W0bV9cLKnFOeFUphbEtY6HRq0NTVu7Q5LFP+N7OpUCFY7AOLIfY+pOxuh2URBbVZV93N500mZk5KwLdUjR3ubGT0ITbpwfpwA2Y1MhJY/xKAu+rmWaEg0+S9b8orjASpUd67OihPy9aub7j2pEfROrYQdBxR1EBWEw1fj+ReEL9AR7pJj2+e4FI9F7eOm0cGZjzVymlQCXk7U5hZK196HRnyEN/iMD61bspwSkQCWVO7/q98dOv1vT3mUPfIbDOZ6QBCUKk8O1AFieUyddXODduMZmKqr6dI8Bq4sUfmmffxKkMsEPQ6j6TaH+wldVkkSU1nvGfI2yetpYddnmvO2SXEIEhEG0pl3m2px0SOF3O5vGJ1p6UVcEtty7JV5T/3sZu5FRBz9GqxufrwSDhfxGfEHtCbLy3qIWITfnAaRG0gmikoOKX+R+w88YvutcfhLvOm2cBq3I9HmqMbCd/SVTrDtJjzHhtni04xGCU5adxO+tcayFDxdSaZcAl5NJyPQrZX4XmbcrFtz1qiCwBzDIeB2lcdhtQDsk7OfxwM75ZM1jbswbZc4wO/KNk9Q8ViaOskoua0OZXWZl5I9vFkbFtrc0mD0wTcSt1WoO6nHcu3B/TFbu9ttAmoOOsgrWgctoXS2rUuRDLAAWP2vAUhwKchckEje22s0k8C/QPhHTcIJeEe1Y+RSpWO9YCx0zfroUejuy+HAzvZvDLlZ+/uhlLrtcIJ/sj0OUYiLpqKoilZUw0LTvKVol4suvmB9aGzi9DlYjka/ywiI63WQ3TXwS5Q8BKXaH0rywCJZ3l5zkJ9xIwYrEWztA69D3VTJ4cLKbTx7u4jJBp9FzmyF4St3gwuB6LqgK65O3Vtr0MfK/lyfUj6JfDjmeBfGB8liFzGSs/4op6H0q3oIIac4/ZfdvxpY2fRisqb8Di/C49LoQP77uPwbF/y+ySm5pb16IYX7puWCFfKSm0YlMEAfSg9R2Ej85RrZoKgxwn6AgS/2i2HpDjzm3bnCZg7iPWWmzjpeXbw1ExU2YkhjOVWqAm//bTYlaQc6vW13sc7r4txsrwnW3xhWRzw5MwaB+DSTZT9pXzitJYME2KGiLW3HMOr0ZvBuWWA+ZkFnCTtTbYyiDb+CywoXVubndOldS0zf3m9b9K0gv0OGElzfAlPWwmkOZ5lxJIKw/LqfKX0snFZh8Xq93Rpo2KZhOwYTwb7DU/navTgDMi5gcL4UWtw3Dxo+zAK5h4CFid/82YBrtjRyv5x3s5tzcbnDZ5QaS59iFFeIfbf7lBmyVWI30d3SnAybheTQU7IsI32fYE27l/K9izY23KStK+UNWDYLKtAvArVOSwOpmVAcYuDbe2f5Wt08RblBfc62yMYALksQyktWLnvhpCen1AdICprocpQfg4ZvSwYFTU159VyMHghNbj8EM1BRIqCONIQQNli6BHc7NOraMJLI/utHDDeDKNIIls/FP74ov/+UyjBn/CjC1dRcpIeLJWCy/+SEZ0+Bi42l3Cr37Bht8oQtezTQ61iC1EiNbtkINxApYweuEdWY8WOlbPCUDuJJJF0/v4vlBv1kEIpYn8079p0HM5o8PVLRekvLpuyY5IGmtE9AgzwJ/Bhl4wsj7lAmv+mnGsda3zHhJ0WUCV+ayCR4RkmVO6gWvr8rSxlUaI4uRx7Z02ngiwvEQwdNCZ9yUKfrT0fa1u3F1+wkqvQMT76cZpBYmqrH44dXYssaCly9nY6lVl2iFl1QaJnChUiOpwPTV+Uez0+84v4sH1GegQ7xkmEjmO6MZO0VVlbsIPxuhzxFJFO8AV0brVVTOM+jKS3H2/CI/WZS0GjjvEjktJnDZmST8lF4EJgDYlV7BcuH3DQDD7hswLixvaZnhJ+PKIW18l/Ii8OLbgNIBRnrZVka0P8b/umCZ0d/rJ26VNzq7UWIqlglcPACFmJuKkL6aUZsOK/wu1jLvjxhaP4lWaZhmgfJ6KLqB64On33he4bmUZwqBCTO+oVF6FyrGtIoWy+N/W0mVP/hdMtSDa9XIElzWo0ZsBMSZlz4WguFwkD+iK3wqQ3rhkR2tMfU+uWb2KT7mX5JJV9TUD8Eu1kfBlxMMBEKPwNr419BNvtjW/HCrIczjB2tFPvfX7CzBlaTNPArwtWtEpljv/ilayO/BtbcwjNSxiHOSnIDjXR4PTKw/URfQu29r6gfGBfYEJPcYtDCd3gneMO3v+OD84/GDN6/oCSbk6hI5TbbgAvlzzUT7q9gjPxZvq27GMpiHsMHgHxkSjDP3BHSdvwrWzh5hpq2X+QBYAao9iVLxU6KDhtJRfmAvWaBWBV4hvq5+4L3V/IZ8ukROry24ekSx5xStb4jFJGURbDkPAGvpqSEeRkgAvzGapv2O6yEJn174j58SDWD9N77/PQnFMxqSYSzFmtj7FEl6hrx+P073LL7jUsvOcKqnxhZcPFIPSS+sIFu4RxE0fkrNPSDDoODjOQDCRuEA36dDE2dz5vcqh7VlJ8Ql8RkdsFAN3Q5nnLBGicWeJpEHMhtedySvbgqRWpyGrODqMenFKVu6YHs8Jj8FgP0UT5kAQxfJTlKJ9jAODrmekIas5eDJlYPj5gamib9D2U4DvRX46YEFb/JrItLf7h2ydRPCwJriO6dSi1OWs1J6THphiEhW3/dVXOYAS2x7ywBYQuM/FkNxHH20a2G/CTcdWHxWe5Rj+IZ+OB/sDo1RqAJkpFF5T+SB+Wj2KyKoC2PtHR/7rWfxHAuVWjwNY8vgPhYuOKVpCRpK2BhEI9GX6yYZ/Xx5ouTUmw+SAsr3AKc7MXLCB9f1jZYXgfF9kOsEov0ieuiXi8F8vuDPO1e3dnClqEkdHZhgf6yAA1IyKcJZq9Kmw8YJVP1P2LHGwECKo5/0ZUu8gHNV2X1cYiWA5eOKBz15Vh/s5OFuPu7qCFzcvgXpAYAZnRsRaXzT7RPU+9NnHCAT8TuQZ7dj9MK/j21MhB+2wbR1+LcEesnjsSFfflRICw9d984wGqAXCoSeDv0HSjUWQWssChPJDlCzKNSpLC7gaxQ0dNr0YdCtrsLE/RQUhHeDGXWBR4wKufKO06ef6jxky+ZCymNkVvYnO6nltr4zCmSfqbX04hwxf37WPpUCQybe0l9msUuQ6TTkPM7UynlPyTBMJ+RtDgBR0V6Krhz4T+hksDU6dPg4U5VCL8aUCj5iQE+EeWmYIR987wR5rwejNzCq3dfRqa5z9b2iidMPlTVpMqxWl2LCfjTAdYi5oSSqZQMonq9IwjNdyntGa3JYnjyiWUktt8Di2ToGl530QhLF6h6TbMKHBsSvxW/iiLjvIe/L8cM+gAy+J0H2BRjyNkKWAiBvKtLOv+fac1g969PqmPr1FZAY03H6zglE45jMSDvBNbAN6ADO3sChET/tZF+uIU0X4EwQG4ddOkEpNEyTxDPw0tmIdTJOpDkO9xYvgGqi/QW5/katkl8utrnBTmq56Q5ThdJZfVNe1tf4hkUb5RGTOVfDGTGGySMueIuHZ/j78/jxKpV9MfkT6fDY39AzbhcoPRJdVbVFZgOwUhPLdgjsYew4gQWHSUMmtKqbVmy1iEvI1CUhUab4lg79OfCKg0pUy2jdngAGFaTh6IKHBMXqVbEVD2/vDtPdhMbPQvcqXs4E4UfwvgwbUs4ADzH5nAnaRDvfASn2MIZZj6qHbnmdvPRre8Dq8vDq1g5YXGrFN7wacZtPztGiPsGk4cxqWogt8XneUU8G7hu0WEvj+jij92J+rQGFfxFVZT54DehDlQ1B13MRdLXzNEm1HVH2HzDwCKQxAxILu5FyACtFTeJzMtJkLa5dXnXDqoNT3vqrJovQ14QagBZSlhyd7AIzgYXjNSmf8iJzKoXY/4s3z28uln6lp9XOEu/EYKpPJ3WPLsWdQ2XNBWvCmW/Bbw78Ipn+vj7jiEgsFn9Crq17B5W3Djr3eZAKmNzWbWzlBHDln9JVcSpyPcbsGpigbn9/OJGkbzn/lk5XMrxro+x7qhh8Ez7/ykw8FottkiTxb5BwmUF4phjVsr9Bb30NI8bX9i5d8EabRaxieHXp1KasuNQyeTr0cCW5eJp2hlUwKczFqsN8PY2mNDe9G29eMBeF+RnoeASJr8YvY2pE+Izs2M9yD2L/LWsGUpF9AwB0TxcHlyAejYNNYCKxcOcP2oMtYBx0u9Oh+NAUYdiYwn6Lyvt5rGXAbRxY6fDi3iXrjYUzc+XAyldq8bRcg4u/lLRvWXWPdE5PASxBV8u8RUrLhJvwAbi78PwEwMIX0HFdaBuU81ayfo7lrhitKnAIBEvYWsHmKedw/LhIaGCWsXBkAEaVmwAkfvx5G1SttYj3ND6Acbcik5tjLfOxFsvFaNYyk/w97fQsnmIhwOLvu+4W+Uvc2XePHGBNEbs1Ycm3/fx/uaq2kD+rY65dJFVUTkSlnoNupxKfWEGXCM3LwuFb0CG0Mxz5aBls8UamV3aJJzINHz6ASYGxw3BcTkQlu5eQ5sd1kiwzveI8d1kA5ljlBp5NsvJ345c3uDh4gHroX+YViqgiTnDEDSGex4UlGwYpTkOEhGdVk92d0G+sncCETticcNoxQJIPvnKAMrqVbCIDOh8ttXO9uurJxJRkdzgjYgpw6ZG9yTlIzF6sFtn+5YBWuyj9ML3DTQX4MuPdrhV6niimL2DvurCj6ZRX7PIoNX97o3hhepa+nNZ6gj5Gjns78wQ4Hk4WIEcCJRC8p2n0NlXTluOb0A5tEDqioWphHLABS5F7aqCnI8bZrR2woDZAnZnZ4CyV3LEKBhfPAuJvrnVWPTeCtKbH3lei4g4o2bDmu2QJTt/V+IdBK4T19qmXTkhywGUeGXIK7esxP/pdctI6E65/2SmAXCdLFsj63VLx3bNg1AdMxXFETMPcpGNtAXYItlzQWKTtnpG+bpLwgk/2KgwvsfdzxJ6Aixe8NwCsY08/AIx9H6M6nBaT00yvQNNap4ry1e0PjsR+y9J22YHF9ay6iNcl4AYaz1yW+UfkQcN8bjKfOSrPCMyV0Lr5ceVbD38cUFr/DLvYyWjOQ/BKcvzI/2MYhceESR63v5Uk+fsdjSduzpVsT4d36b5Trego1FBqlWbKz7H8T73g5JqtlaCGiruKwgnBNnEq6tcNwdkMx+EchgOwrioE1X0XpnG+CqrSB9sWnmiey7RJpye97ZX3RFspyAKfq1y+gItnmh1gvGDe9/G5CrsvhScNpNzeaKe8e2dysOOrp92iPhPe/dks0UlFm1ry3WSK0jK7dlnel4DsYVak+9kV6vPzDVw8k9wAKwM9TM+tMrhP9hjkv+xITfYYM56wC/fS37duUU+kriXpvXX3NAJCfBmx6DLp1be5ukFe+GKrIkUBV6pWsymXycL7rwekaOlN11z6LR9E9UTjLSq4eIXmYkSx9IHeAC4n0ooDq0hbAE0sLTq4nACMx+kDmamuDB65Gmkp8LBHwMUL7qzV9YHMgCjHfOuZbjCT1h4DV4oQpy0Qi/l6cAFiitqeu5ZjY+xxcPHqcgIwHo93lfzq5bIQnl4pO6eg4roVKrOkRtwlAa5U5faBLMUJ52oDf6NU9dOSAleKtU5BVsqMTZXFzZVLKR4fs+O20zbG9EpPWunpK0lwcQLdAIzHL+cu03nXx0vKXWmDKkkjr5MSd25BxotTDkBzD6hEySKosJLSq7LBp+TBlSKeg4zfW+02SsWxvvJWrr3Fw3pyIJAGE6fEeqUCD7F25SGpMmkvG3ClCM8fZKkU0mBL+nhr4kjpTdgNFE5/K8ctmPS0lo+kSlGdupYduFKE82s+Xab+ffN9ehd5StqZ4yR90sBJxcgXQKn3U9cU+L0FfSr1Yl7LGlwpRiWlBZcU5g26qTilfy3Pri8bX3sFuPQFTHebwpnudRt9Sn7fJ6UkKqBsFHS3HOl14MpkQOmArfeDKZP3vR5cmQVOdaHcP603eaUv8VRTIOIjVCHCffzYtsXTLXW3z4ErW4WkR3o8lvn7gsZ3k8DR++2rINLzoO++jwN9HOjjQHlz4P8DiEIsbpxvwWgAAAAASUVORK5CYII=;strokeColor=#0F828F;aspect=fixed;" vertex="1" parent="7Cv30EDc3GMNcKOpRmR3-7">
          <mxGeometry x="33" width="56" height="56" as="geometry" />
        </mxCell>
        <mxCell id="7Cv30EDc3GMNcKOpRmR3-9" value="" style="shape=image;verticalLabelPosition=bottom;verticalAlign=top;imageAspect=0;aspect=fixed;image=data:image/svg+xml,PHN2ZyB4bWxucz0iaHR0cDovL3d3dy53My5vcmcvMjAwMC9zdmciIGlkPSJkZXN0aW5hdGlvbiIgdmlld0JveD0iMCAwIDU2IDU2Ij48ZGVmcz48c3R5bGU+LmNscy0xe2ZpbGw6IzA3NGQ5Mjt9LmNscy0ye2ZpbGw6IzA1M2I3MDt9LmNscy0ze2ZpbGw6IzBhNmVkMTt9PC9zdHlsZT48L2RlZnM+PHRpdGxlPmRlc3RpbmF0aW9uX2NpcmNsZTwvdGl0bGU+PHBhdGggY2xhc3M9ImNscy0xIiBkPSJNMjgsNkEyMiwyMiwwLDEsMSw2LDI4LDIyLjAyNSwyMi4wMjUsMCwwLDEsMjgsNm0wLTJBMjQsMjQsMCwxLDAsNTIsMjgsMjQsMjQsMCwwLDAsMjgsNFoiLz48cGF0aCBjbGFzcz0iY2xzLTIiIGQ9Ik0yMy41LDQwSDE5LjA0N2ExLjU0LDEuNTQsMCwwLDEtMS4xLS40MjJBMS40MTksMS40MTksMCwwLDEsMTcuNSwzOC41VjIybDYtNkgzNGExLjQyMywxLjQyMywwLDAsMSwxLjA3OC40NDVBMS40ODYsMS40ODYsMCwwLDEsMzUuNSwxNy41VjE5SDM0VjE3LjVIMjVWMjJhMS40MjEsMS40MjEsMCwwLDEtLjQ0NSwxLjA3OEExLjQ4NiwxLjQ4NiwwLDAsMSwyMy41LDIzLjVIMTl2MTVoNC41WiIvPjxwYXRoIGNsYXNzPSJjbHMtMyIgZD0iTTI3Ljk2OSwzNC45MzIsMjYuMzU4LDM0LjFsLTEuMDEyLjkyOUwyNC4wNTgsMzMuNzZsLjg4MS0uODgyLS42ODMtMS43NjNMMjMsMzEuMVYyOS4zMTJoMS4yMzlsLjczNi0xLjc3NS0uOTE3LS45MjMsMS4yNjUtMS4yODcuOTU1Ljk1NiwxLjY5MS0uNy0uMDA3LTEuMzc3LDEuODgyLjAwOXYxLjM2OGwxLjY5LjcsMS4wMDgtLjg4MiwxLjIxMywxLjMzOS0uODgyLjg4Mi43LDEuNjksMS4zMzMuMDk0di44NDRoMS41di0uODQ0YTEuNTYzLDEuNTYzLDAsMCwwLTEuNTkzLTEuNTk0SDM0LjhsLjA0MS0uMDM5YTEuNjM0LDEuNjM0LDAsMCwwLC40MjktMS4xMDksMS41MzYsMS41MzYsMCwwLDAtLjQ1Ny0xLjExTDMzLjYsMjQuMzQxYTEuNjMyLDEuNjMyLDAsMCwwLTIuMjQ4LDBsLS4wMTEuMDEydi0uMDA5QTEuNTYxLDEuNTYxLDAsMCwwLDI5Ljc1LDIyLjc1SDI4LjA2M2ExLjU2MSwxLjU2MSwwLDAsMC0xLjU5NCwxLjU5NHYuMDA5bC0uMDEyLS4wMTJhMS42MywxLjYzLDAsMCwwLTIuMjQ3LDBMMjMsMjUuNTU0YTEuNTM2LDEuNTM2LDAsMCwwLS40NTcsMS4xMUExLjY1NiwxLjY1NiwwLDAsMCwyMywyNy44bC4wMTIuMDExSDIzYTEuNTYzLDEuNTYzLDAsMCwwLTEuNTk0LDEuNTk0djEuNjg4YTEuNTksMS41OSwwLDAsMCwuNDQzLDEuMTA5QTEuNTQxLDEuNTQxLDAsMCwwLDIzLDMyLjY4OGguMDA5TDIzLDMyLjdhMS42MSwxLjYxLDAsMCwwLDAsMi4yNDdsMS4yMTMsMS4yMTNhMS42MjIsMS42MjIsMCwwLDAsMi4yNTktLjAxMnYuMDA5YTEuNTksMS41OSwwLDAsMCwuNDQyLDEuMTA5LDEuNTQ0LDEuNTQ0LDAsMCwwLDEuMTUyLjQ4NWguODQzdi0xLjVsLS45MzctLjA5NFoiLz48cGF0aCBjbGFzcz0iY2xzLTMiIGQ9Ik0yOC45MDYsMjguNzVhMS40OCwxLjQ4LDAsMCwxLDEuMjcuNzVIMzEuOGEyLjk5NCwyLjk5NCwwLDEsMC0zLjY0NCwzLjY0M1YzMS41MmExLjQ4MSwxLjQ4MSwwLDAsMS0uNzUtMS4yN0ExLjUsMS41LDAsMCwxLDI4LjkwNiwyOC43NVoiLz48cGF0aCBjbGFzcz0iY2xzLTMiIGQ9Ik0zNS45MzQsMzYuNjM5bC4xMzItLjEzMmEyLjI1NiwyLjI1NiwwLDAsMCwwLTMuMTgzTDM0LjM5LDMxLjY0OGEyLjI1NSwyLjI1NSwwLDAsMC0zLjE4MiwwbC0uMTMzLjEzMkwyOS40OTIsMzAuMmwtLjguOCwxLjU4MywxLjU4My0uMTMyLjEzMmEyLjI1NiwyLjI1NiwwLDAsMCwwLDMuMTgzbDEuNjc2LDEuNjc2YTIuMjU2LDIuMjU2LDAsMCwwLDMuMTgzLDBsLjEzMi0uMTMyTDM3LjcsNDBsLjgtLjhaTTMxLjMyMSwzNS42bC0uMzQ5LS4zNDlhMS4yLDEuMiwwLDAsMSwwLTEuNjlsMS4wODgtMS4wODhhMS4yLDEuMiwwLDAsMSwxLjY5LDBsLjM0OS4zNDlabTMuOTIxLjA1NS0xLjA4OCwxLjA4OGExLjIsMS4yLDAsMCwxLTEuNjksMGwtLjM0OC0uMzQ3TDM0LjksMzMuNjE2bC4zNDcuMzQ4QTEuMiwxLjIsMCwwLDEsMzUuMjQyLDM1LjY1NFoiLz48L3N2Zz4=;fontSize=15;fontColor=#053B70;fontStyle=1;spacingTop=0;" vertex="1" parent="7Cv30EDc3GMNcKOpRmR3-3">
          <mxGeometry x="308.5" y="62" width="56" height="56" as="geometry" />
        </mxCell>
        <mxCell id="7Cv30EDc3GMNcKOpRmR3-10" style="rounded=0;orthogonalLoop=1;jettySize=auto;html=1;fontSize=12;fontColor=#808080;startArrow=none;startFill=0;endArrow=block;endFill=1;strokeWidth=2;strokeColor=#595959;exitX=1;exitY=0.5;exitDx=0;exitDy=0;entryX=0;entryY=0.5;entryDx=0;entryDy=0;endSize=6;jumpSize=6;jumpStyle=gap;" edge="1" parent="7Cv30EDc3GMNcKOpRmR3-3" source="7Cv30EDc3GMNcKOpRmR3-5" target="7Cv30EDc3GMNcKOpRmR3-8">
          <mxGeometry relative="1" as="geometry">
            <mxPoint x="163" y="80" as="targetPoint" />
            <mxPoint x="-70" y="380" as="sourcePoint" />
          </mxGeometry>
        </mxCell>
        <mxCell id="7Cv30EDc3GMNcKOpRmR3-11" style="rounded=0;orthogonalLoop=1;jettySize=auto;html=1;fontSize=12;fontColor=#808080;startArrow=none;startFill=0;endArrow=block;endFill=1;strokeWidth=2;strokeColor=#595959;exitX=1;exitY=0.5;exitDx=0;exitDy=0;entryX=0;entryY=0.5;entryDx=0;entryDy=0;" edge="1" parent="7Cv30EDc3GMNcKOpRmR3-3" source="7Cv30EDc3GMNcKOpRmR3-8" target="7Cv30EDc3GMNcKOpRmR3-9">
          <mxGeometry relative="1" as="geometry">
            <mxPoint x="307" y="124.03999999999996" as="targetPoint" />
            <mxPoint x="230" y="82" as="sourcePoint" />
          </mxGeometry>
        </mxCell>
        <mxCell id="7Cv30EDc3GMNcKOpRmR3-12" value="&lt;span style=&quot;color: rgba(0, 0, 0, 0); font-family: monospace; font-size: 0px; text-align: start;&quot;&gt;%3CmxGraphModel%3E%3Croot%3E%3CmxCell%20id%3D%220%22%2F%3E%3CmxCell%20id%3D%221%22%20parent%3D%220%22%2F%3E%3CmxCell%20id%3D%222%22%20value%3D%22%26lt%3Bb%26gt%3B%26amp%3Bnbsp%3B%26lt%3B%2Fb%26gt%3B%26lt%3Bspan%20style%3D%26quot%3Bfont-weight%3A%20bold%26quot%3B%26gt%3BSubaccount%26lt%3B%2Fspan%26gt%3B%26lt%3Bb%26gt%3B%26lt%3Bbr%26gt%3B%26lt%3B%2Fb%26gt%3B%22%20style%3D%22rounded%3D0%3BwhiteSpace%3Dwrap%3Bhtml%3D1%3BstrokeColor%3D%23074D92%3BstrokeWidth%3D2%3BfillColor%3Dnone%3Balign%3Dleft%3BverticalAlign%3Dtop%3BfontSize%3D11%3BfontFamily%3DArial%3Bcontainer%3D0%3BrecursiveResize%3D0%3Bcollapsible%3D0%3BfontColor%3D%23595959%3B%22%20vertex%3D%221%22%20parent%3D%221%22%3E%3CmxGeometry%20x%3D%22170%22%20y%3D%22186%22%20width%3D%22910%22%20height%3D%22520%22%20as%3D%22geometry%22%2F%3E%3C%2FmxCell%3E%3CmxCell%20id%3D%223%22%20value%3D%22%22%20style%3D%22shape%3Dimage%3BverticalLabelPosition%3Dbottom%3BlabelBackgroundColor%3D%23ffffff%3BverticalAlign%3Dtop%3Baspect%3Dfixed%3BimageAspect%3D0%3Bimage%3Ddata%3Aimage%2Fpng%2CiVBORw0KGgoAAAANSUhEUgAAANYAAAAeCAYAAABQWOD3AAAQuUlEQVR4Ae1cC7RVxXk%2B%2BKiRtDaJbZJiTEmkQC964dx99p7%2FMftw5D4Ag7Y20nfTpImmqzElUZtlUmzq0lRqFKJBDC5RqaJI1NgFwZVYpVpDtEHlYZSHKK%2BgEsFC8BFBd9d33HPdZ9%2B9zzn3wpV11zpnrVmzZ%2Baff2b%2BPd88%2Fv%2Ffp1Bo%2FVoSaEngvZGAMeYjzHw2M88QkQuCIPgLZh6V17ox5oRSqXRGXnl%2F8plZmPl8Zr5CRL5ljDnP9%2F0JzfAQkQkdHR3tzdCWSqUKM5%2BUpg2CgJl5SjKUSqWpvu%2BXPc%2F7eJq%2BUXrUqFHH%2Bb4vfhM%2FVS1NnTr1uEY8gyCYLCI3MPMeEYmY%2BTUiuiMIgumFQuHoRvWJqAPdMcZ49WjPO%2B%2B8Y123S6XSmCxazBXf9yeqqs0qd3mq%2BnFjzOmg9X3%2Fky7fxZ7nDY%2FLy5B1Ikxk5kBEft%2FRNoqNMW14vwkevfyYeSLGr6q%2FlcenWCz%2BLhFV66NPY8aMyaUFjyAISq4tEZnUh2%2BxWGwTkYfCMIzCMFzLzEtF5D%2BttT8VkbdFZIPv%2B53pihj4xIkTo3R%2Bf9LxRN6uqq%2BJyMNEdCczf99a%2B6i1NlLVHR0dHZPr8TTGLFfV2%2BrRuDIi2m2M%2BTuXdrG19nFVfdVai77sSITdkIuI7PZ9f0ahUBjm6tSLsSB1dnZCnk2FIAhG5%2FHzPM8y8y8gDwAqHeL8V0ul0qfzeCBfVd8CrbX24PTp03OB2N7e%2FjHXb1V9NIsnEX2hXC5Xx0ZE87JokOf7%2FqWYI%2BDHzN9N06nquEqlUldGzPwqEV3d3t7%2B4XT9ZFpElro%2Buf4nY5TFsvpxEASfSNbFs%2Bd5x4rILtSJaX%2BSpnFpLBKON2iZ%2BVJXVo2NMX%2BOAiK6vq2t7TdqCuMEEV2gqm8GQXB1shwrbblcPpDM68fzMCL6V2vt28aYy%2FLqEdFlGAB2sTwaZr5bVW%2FOK0%2FmG2O2BUHwmWQenjGBVLVWODER5GKM%2BQeATkRexGqdrp9Oi8gpmDBpEGSlwzB8HfRpHkjjRJAEFDNjsfklMz%2Bnqi8w81uOJ%2BiI6NosPshT1V%2FFtHvrAatYLI5wPFV1RRY%2FIvqsqvaOz%2Ff9M3Po%2Fhn9Ai0zz07TENEfxu%2B3l5drOyN%2BEztSmodLqyrmQS8fPCdDkh%2Fa9DzvNFc3joeJiB9vJlUQ5o1LRHY6fkT00xo%2B2O4AqmKx2FVTkJHwPO%2F3mLlm5zgUYBlj%2FqZcLr%2BB7TmjuZosHKkgIGPM52oK4sThAhYzX5nFP5lHRP%2BDIxgzH5%2FMTz8ngcXMe3FkI6IlOeGOLLDiqJEElarez8w1kwHHVOzyInIALxpyIqKZ6f4gPZjAwm6YtQsQUdPAIqJdxpg5RHSNMQZhgYjg1ISFpwoYtDN%2B%2FPhxOeOrAgsywJwQkcuxILtARDdhYUzw2o0je5oXEc0Cj5hub5rGGHNlgsdBHCFreIjIviAIvlGT2Y%2FEQIEVBMGJqvrrIAjOb7Y5HD3CMNyLe126znsJLLSNnYuIbkn3I5lOAktVNyTLmnlub29%2FPzO%2FEL%2FAt4Mg%2BOI79aJhPHv78Wffs%2BPEM%2BfvHF4oRNWjKe6DzPxr0OMU4Hne2HQ7gwmsuJ%2Bvp%2B8l%2FQEWMz%2BR7jPS48ePPwnXETeZReSpLDq3Y2GzCMPwnCyaQqFwFDO%2FAl6gK5VKQRadMeZ50MQgvd3RYAF0ixgWvSAIprmyamyM%2BbS19pWazH4mBgos3HGstS%2F2pzmsGtZaHH363I%2Fea2AFQTAekxcLRN4YksCy1gJYTd3NHD%2Ff9%2F%2FarZqqegXyOxfuOPGMe3Z854y7tr1%2B1tJd0bQfbD9w5r0v3TxtyfaqMgaLj5t8RHR%2Fus1BBBbux26FfzJ5zOwPsEQkE1gYO3YFZn4D7eCOCCWDk5WLmwRWgZmxw7vd%2Fc9c%2FWTs%2B%2F44VYV%2BAXRvqSqUOMNw102M9fvJOtVnZl5ERIv6FPQjY6DAUlUciW7qR1NVUiK6jplXpuu918DCqofd0%2FO809N9cekMYLmihjEmJjOvcC%2FV87zfNtduOuFTd%2B%2FcOWXxlmjK4ueiqXc%2B%2F05YsiU6a%2BmufVMXbzoFd0ER2Yp6AP6ECRM%2BkGxssIDFzN9R1d1uwuEY59o9XMACPyL6pltsmHm%2Ba8PFzQKLiJbHMsJi8EeufjoWkZluTBifMeZCl2bm%2FW1tbb%2BZroPz9v5Yy9WnrNmMgQALL99a%2BxQR%2FWOz7Tg6qJWxa7m0i48AsLDqbe6jCXIdKhQKSWCp6laouKFFTQciMqBNVIV2arg71jHzRpR13%2FrsnVNufy7quXVT1HPbs9UwedHmaPLtm6Mq2JZsrWqwoITC5MPlHKtuku9gAYuIZp966qknq%2BpBN%2FF83%2F9TtH2YgVXB8Q1tMPN%2FJ8eG5ySwiOhP0uVI447KzNU7G7SVaRml6mCB2%2BTG5GLI1xiTbd7B%2BTBPGZBinpscCLBGjhz5PlV9HseWXMY5BaVSqTsMw13p4iMBLCJahR003ReXTgIrfiHQ3vUJ8QpcYyqArSXOxySqAqZn4XMbu2%2FZGHXfsqEaehZujHr%2B490w7d4XX5i6PDqOmb%2BEurHSw3f9QTyYwAJ%2FTGY3%2BUTkIDMXjTFfR1%2FQpya0grlHQfCHXdMBK8sM4IAVyw5mIyh7%2FisO9%2BOdufsR%2BsnMjyaPrUlZuWfY4ZKa17jev7nyPrGqvnQoigswHAiwYlvBz7CS9elUgwyoeJl5e5rsSABLRH7BzBen%2B%2BLSaWDhZWcFTDpm7r0coz6OGFCrx5N0NfJ6btq4suvG9VHXjU9H3QueeSfctD7qRrh5QzRl0dbNoCOiy9FOvGPVGNgdsFR1X70JBaOsA4iqPujGlIyT6nbsWK5MROYl6u4KguDfDxewYCB3qnmAxbXpYgcs135eDPkw89N9tHmOUSr2fT95BHwZczhF8m7SGPM9Irrv3Zz%2BPw0EWGhFROaLyLL%2BtigidxHRPel6xpi7mrVjEREWlEw7VjPqdrRdqVSOKZfLrxljKN0Xl04CC%2FYmKGyI6Nx0YOYvBkFQY7WP70rr44nxGl7kxOvWnNm9YP2Bzu%2Bti7puQPh5b5i8cHPUteCZc9G2iDyJepiA0Ka5%2FiBm5pfdZMPJIVmWfIaXhKNT1cx7eB6wYq0bdga3MFQ1lfFk7gWgay9lx6q7Y6nqXPAFLxiMHQ8Xp4D1srV2GwIz9x5RjTE7jTHn1Bu%2F4%2BdiY8wfoE20HSuFXFHf2Pf9LhDjJfYtbS5noMCCt0UYhm%2FUcy9J94CZP2St3W%2BM6UmXwXCNCYWXmi5LpuP73etEpMl8PONo0SywiOhvcZ%2Bo1%2F8ksKy169PtNUoz87%2B4SQQNLugnzX3qC53z1h7ovG5N1DlvbdQ5b03UdcPTUdf8p6u7f6lUKjrjJnb29K7EzKvwzgE6Y0zupd0Yc68DBgzjWX2tA6zCqFGjTlDVXnuRG8ehHAWhFk9o6Q5k3Y0csHBchJ20Uql8AAoc3%2Fc%2F54ChqrCdZhqzs8aJPGgEXf2snbJPPVyMYVzsU9BkxiEA63gReYaZFzbZFI4416rqpkKh0Gcbhp8ghOn7%2Fsn1%2BDHzWGvtW7ARpemaBVZbW9tHwzDcn2eEdXxTwBqIuv3kxH3gV84uNemaJ2d3zV0bdV77RNR9%2Fbro9Lmrq%2Fcz2FeYudf2knV5N8Zc4iaIqm72ff%2Bjrr8u9jyvQ0TeBBgg046Ojkxf0XrAAi8oa1S1arRuFlhZdiwsqABJcrfNm9xJYKXtWLjrubFbawGuPourk0E67jewoNmIBw93oVzfMTQEjRzUnclGBwqsmB9j12Lmf0ryzHqGmhM7RD1hiMj%2Fwlcs7%2FwLw6WIbMRxMquNZoAFAEPDx8xQKNSV16ECC300xlzkJgOMotAW9nx7zfu7vrvm5UlzVkVdc1cfKF%2F2WNXnjYh%2B7GhV9ZH0bgV%2B2LFVdZub6CICQ%2Fc3YeTEDkZEV0FbjHIEXP6zZIW8RsCKac5N9An86h4FiWhfSuGwEvJ2%2FYl57UwfcV0f6wELNMxcPUrG49%2BXtes5Xsm438BC5fg8Dd%2Bzx4IgOBsuMjjixF7HWAXhwQxXkT1BEHw%2B2SBcbsrl8kG4O8GdJS%2Fk7SRBEPyxqv4f7luxBgleFZiwR1lrPwhXJhG5FzSxB3ey%2BZrn0aNHn4SXoKoPwFM9HsOx4APXLVVdJyLrRowYMbymYpyIgXU9xu%2FGAUdL3AFE5FNEdDMchYno7qwdL83zcACrUCgcE7db1fIRUdWY2XnVqmVds1dF3desrvqoxbuD07yt9zzvd9L9cWl4rcOtJznh8exCPOkArA3jxo37kKuXjpsBFurAG9%2B11QhYDkDp2PUNc9Tt3On%2BIN0IWLGB9weOP3wui8ViQ%2B%2F5AQELHcKRwFp7NazK8QrxDBH93Fq7GauaiCzI8r6Gnx%2F8%2FVR1i7V2a17AbpIlCOThswRr7SLYp%2BD6Y4x5nJkfF5FnMQGstXfUE2aSL7yfVXUheInIeiJaLSKbYt5z0u42ybrQfllrf5kaAzzdYWnfAYDjbpisU%2B%2BZiEbGstljrf1ZPdoGZUfBe1xVYXupWvo7Z%2F3k6p7ZT0STZq2sKhaYuXrMwcQaO3ZsrjeIayfW%2Bt2mqrsSQAKY3oaixVp7HYzSjj4rJqK%2FgueOqr4C37osGuThBKGqD4vIXmbuo6bG%2By%2BXy%2BCzJyPswtxi5h8x82cqlUquwgVticitWITDMIQnSOYdEh48ULO7tph5TZabXHI8UF7EY91DREuTZU09YyXGNy34xsRaW4HrzmmnnfbBvMr4hggrOoRTL2R9h5PmiZUDOwtWZQRjjMVOmKZrJq2qI7ATM%2FM0fHIRhmGtk2QGE9grssYAgOAynlGlUdYx%2BHQEu1%2Fejt2IQbIcx24i%2BjJW3cqlD83qunJVNOnyR6oe%2FdZafDdX4yCdrJv3jCMVXIOgJTXGwIUqzLp3ZdWHSSAe2ydxD8qicXlY0DzPOyWLDsDD7u5OCS7GnDHGfKwRwF0biHHPRD3IHSeuZFnyGX0HHdoCaBoBFn109M3KJ9le63mISMDOXDFr0hWPRZVLH6rrCDxEhtPqZksCR1YCOMZMLxSOtjNXXHX6ZSsjO%2FOB6lEw%2FVnDke1lq%2FWWBIaABHDcxlElVlCsM177ReElj8wJZz4UlS95eIkUx5xjrV0NnQTuCrFipa49bwgMu9XFlgQGTwJBEPx9GIZQ6uA%2FLuBneFf7KR%2F5sF78wK168YNR%2BPUHfzSiUBiuqrDxwXSxP3Zb6vUuH7zetTi3JDA0JYC%2FLlgMrZ0xBuaG0YXC9KN1xn2fl68u36IX3hfJhfe9JBf88ILKZ1e8Dyp2Zl4LeiLaBkXM0Bx2q9ctCQySBIjoG0mXIGPMVWiqPGPpNZWL7o%2FCGcsi%2B5V3wsSvPRjpV5cvQTk%2B1Yi92qE6fxPGYPg1DlI3W2xbEhhSEhgGUwMz35gwrO4vFosljEK%2B9MNyZcayWeUvL10cfmX5nPD8ZZO9%2BdGx8Y61xRk%2F4TEPA34j%2F8khJZlWZ1sSOFQJwCUJrlMOKLHfID63ubxEpbMC1RCfURDR1%2BKvjV91tPE%2FX2V%2FiHeoHWvVb0lgKEsg9mqp%2BuzheAePdLeDpWMACuUugJ6I1rR2q6E8A1p9HzQJxN4js%2FGJD9Tp8EjBp%2BIOWAAUQIQ7GHwtJ0yYMBK%2BgMz8l42chAet0y3GLQkMVQmICHwg3Q6W%2B0emQ3V8rX63JNCSQEsCNRL4f826WDz1IoxRAAAAAElFTkSuQmCC%3B%22%20vertex%3D%221%22%20parent%3D%221%22%3E%3CmxGeometry%20x%3D%22175.5%22%20y%3D%22211%22%20width%3D%22120%22%20height%3D%2216.82%22%20as%3D%22geometry%22%2F%3E%3C%2FmxCell%3E%3C%2Froot%3E%3C%2FmxGraphModel%3E&lt;/span&gt;" style="edgeLabel;html=1;align=center;verticalAlign=middle;resizable=0;points=[];fontSize=12.5;fontColor=#808080;labelBackgroundColor=none;" vertex="1" connectable="0" parent="7Cv30EDc3GMNcKOpRmR3-3">
          <mxGeometry x="46.000000000000114" y="1" as="geometry">
            <mxPoint x="6" y="6" as="offset" />
          </mxGeometry>
        </mxCell>
        <mxCell id="7Cv30EDc3GMNcKOpRmR3-13" value="" style="shape=image;verticalLabelPosition=bottom;labelBackgroundColor=#ffffff;verticalAlign=top;aspect=fixed;imageAspect=0;image=data:image/png,iVBORw0KGgoAAAANSUhEUgAAANYAAAAeCAYAAABQWOD3AAAQuUlEQVR4Ae1cC7RVxXk++KiRtDaJbZJiTEmkQC964dx99p7/Mftw5D4Ag7Y20nfTpImmqzElUZtlUmzq0lRqFKJBDC5RqaJI1NgFwZVYpVpDtEHlYZSHKK+gEsFC8BFBd9d33HPdZ9+9zzn3wpV11zpnrVmzZ+aff2b+Pd88/v/fp1Bo/VoSaEngvZGAMeYjzHw2M88QkQuCIPgLZh6V17ox5oRSqXRGXnl/8plZmPl8Zr5CRL5ljDnP9/0JzfAQkQkdHR3tzdCWSqUKM5+Upg2CgJl5SjKUSqWpvu+XPc/7eJq+UXrUqFHH+b4vfhM/VS1NnTr1uEY8gyCYLCI3MPMeEYmY+TUiuiMIgumFQuHoRvWJqAPdMcZ49WjPO++8Y123S6XSmCxazBXf9yeqqs0qd3mq+nFjzOmg9X3/ky7fxZ7nDY/Ly5B1Ikxk5kBEft/RNoqNMW14vwkevfyYeSLGr6q/lcenWCz+LhFV66NPY8aMyaUFjyAISq4tEZnUh2+xWGwTkYfCMIzCMFzLzEtF5D+ttT8VkbdFZIPv+53pihj4xIkTo3R+f9LxRN6uqq+JyMNEdCczf99a+6i1NlLVHR0dHZPr8TTGLFfV2+rRuDIi2m2M+TuXdrG19nFVfdVai77sSITdkIuI7PZ9f0ahUBjm6tSLsSB1dnZCnk2FIAhG5/HzPM8y8y8gDwAqHeL8V0ul0qfzeCBfVd8CrbX24PTp03OB2N7e/jHXb1V9NIsnEX2hXC5Xx0ZE87JokOf7/qWYI+DHzN9N06nquEqlUldGzPwqEV3d3t7+4XT9ZFpElro+uf4nY5TFsvpxEASfSNbFs+d5x4rILtSJaX+SpnFpLBKON2iZ+VJXVo2NMX+OAiK6vq2t7TdqCuMEEV2gqm8GQXB1shwrbblcPpDM68fzMCL6V2vt28aYy/LqEdFlGAB2sTwaZr5bVW/OK0/mG2O2BUHwmWQenjGBVLVWODER5GKM+QeATkRexGqdrp9Oi8gpmDBpEGSlwzB8HfRpHkjjRJAEFDNjsfklMz+nqi8w81uOJ+iI6NosPshT1V/FtHvrAatYLI5wPFV1RRY/IvqsqvaOz/f9M3Po/hn9Ai0zz07TENEfxu+3l5drOyN+EztSmodLqyrmQS8fPCdDkh/a9DzvNFc3joeJiB9vJlUQ5o1LRHY6fkT00xo+2O4AqmKx2FVTkJHwPO/3mLlm5zgUYBlj/qZcLr+B7TmjuZosHKkgIGPM52oK4sThAhYzX5nFP5lHRP+DIxgzH5/MTz8ngcXMe3FkI6IlOeGOLLDiqJEElarez8w1kwHHVOzyInIALxpyIqKZ6f4gPZjAwm6YtQsQUdPAIqJdxpg5RHSNMQZhgYjg1ISFpwoYtDN+/PhxOeOrAgsywJwQkcuxILtARDdhYUzw2o0je5oXEc0Cj5hub5rGGHNlgsdBHCFreIjIviAIvlGT2Y/EQIEVBMGJqvrrIAjOb7Y5HD3CMNyLe126znsJLLSNnYuIbkn3I5lOAktVNyTLmnlub29/PzO/EL/At4Mg+OI79aJhPHv78Wffs+PEM+fvHF4oRNWjKe6DzPxr0OMU4Hne2HQ7gwmsuJ+vp+8l/QEWMz+R7jPS48ePPwnXETeZReSpLDq3Y2GzCMPwnCyaQqFwFDO/Al6gK5VKQRadMeZ50MQgvd3RYAF0ixgWvSAIprmyamyM+bS19pWazH4mBgos3HGstS/2pzmsGtZaHH363I/ea2AFQTAekxcLRN4YksCy1gJYTd3NHD/f9//arZqqegXyOxfuOPGMe3Z854y7tr1+1tJd0bQfbD9w5r0v3TxtyfaqMgaLj5t8RHR/us1BBBbux26FfzJ5zOwPsEQkE1gYO3YFZn4D7eCOCCWDk5WLmwRWgZmxw7vd/c9c/WTs+/44VYV+AXRvqSqUOMNw102M9fvJOtVnZl5ERIv6FPQjY6DAUlUciW7qR1NVUiK6jplXpuu918DCqofd0/O809N9cekMYLmihjEmJjOvcC/V87zfNtduOuFTd+/cOWXxlmjK4ueiqXc+/05YsiU6a+mufVMXbzoFd0ER2Yp6AP6ECRM+kGxssIDFzN9R1d1uwuEY59o9XMACPyL6pltsmHm+a8PFzQKLiJbHMsJi8EeufjoWkZluTBifMeZCl2bm/W1tbb+ZroPz9v5Yy9WnrNmMgQALL99a+xQR/WOz7Tg6qJWxa7m0i48AsLDqbe6jCXIdKhQKSWCp6laouKFFTQciMqBNVIV2arg71jHzRpR13/rsnVNufy7quXVT1HPbs9UwedHmaPLtm6Mq2JZsrWqwoITC5MPlHKtuku9gAYuIZp966qknq+pBN/F83/9TtH2YgVXB8Q1tMPN/J8eG5ySwiOhP0uVI447KzNU7G7SVaRml6mCB2+TG5GLI1xiTbd7B+TBPGZBinpscCLBGjhz5PlV9HseWXMY5BaVSqTsMw13p4iMBLCJahR003ReXTgIrfiHQ3vUJ8QpcYyqArSXOxySqAqZn4XMbu2/ZGHXfsqEaehZujHr+490w7d4XX5i6PDqOmb+EurHSw3f9QTyYwAJ/TGY3+UTkIDMXjTFfR1/Qpya0grlHQfCHXdMBK8sM4IAVyw5mIyh7/isO9+OdufsR+snMjyaPrUlZuWfY4ZKa17jev7nyPrGqvnQoigswHAiwYlvBz7CS9elUgwyoeJl5e5rsSABLRH7BzBen++LSaWDhZWcFTDpm7r0coz6OGFCrx5N0NfJ6btq4suvG9VHXjU9H3QueeSfctD7qRrh5QzRl0dbNoCOiy9FOvGPVGNgdsFR1X70JBaOsA4iqPujGlIyT6nbsWK5MROYl6u4KguDfDxewYCB3qnmAxbXpYgcs135eDPkw89N9tHmOUSr2fT95BHwZczhF8m7SGPM9Irrv3Zz+Pw0EWGhFROaLyLL+tigidxHRPel6xpi7mrVjEREWlEw7VjPqdrRdqVSOKZfLrxljKN0Xl04CC/YmKGyI6Nx0YOYvBkFQY7WP70rr44nxGl7kxOvWnNm9YP2Bzu+ti7puQPh5b5i8cHPUteCZc9G2iDyJepiA0Ka5/iBm5pfdZMPJIVmWfIaXhKNT1cx7eB6wYq0bdga3MFQ1lfFk7gWgay9lx6q7Y6nqXPAFLxiMHQ8Xp4D1srV2GwIz9x5RjTE7jTHn1Bu/4+diY8wfoE20HSuFXFHf2Pf9LhDjJfYtbS5noMCCt0UYhm/Ucy9J94CZP2St3W+M6UmXwXCNCYWXmi5LpuP73etEpMl8PONo0SywiOhvcZ+o1/8ksKy169PtNUoz87+4SQQNLugnzX3qC53z1h7ovG5N1DlvbdQ5b03UdcPTUdf8p6u7f6lUKjrjJnb29K7EzKvwzgE6Y0zupd0Yc68DBgzjWX2tA6zCqFGjTlDVXnuRG8ehHAWhFk9o6Q5k3Y0csHBchJ20Uql8AAoc3/c/54ChqrCdZhqzs8aJPGgEXf2snbJPPVyMYVzsU9BkxiEA63gReYaZFzbZFI4416rqpkKh0Gcbhp8ghOn7/sn1+DHzWGvtW7ARpemaBVZbW9tHwzDcn2eEdXxTwBqIuv3kxH3gV84uNemaJ2d3zV0bdV77RNR9/bro9Lmrq/cz2FeYudf2knV5N8Zc4iaIqm72ff+jrr8u9jyvQ0TeBBgg046Ojkxf0XrAAi8oa1S1arRuFlhZdiwsqABJcrfNm9xJYKXtWLjrubFbawGuPourk0E67jewoNmIBw93oVzfMTQEjRzUnclGBwqsmB9j12Lmf0ryzHqGmhM7RD1hiMj/wlcs7/wLw6WIbMRxMquNZoAFAEPDx8xQKNSV16ECC300xlzkJgOMotAW9nx7zfu7vrvm5UlzVkVdc1cfKF/2WNXnjYh+7GhV9ZH0bgV+2LFVdZub6CICQ/c3YeTEDkZEV0FbjHIEXP6zZIW8RsCKac5N9An86h4FiWhfSuGwEvJ2/Yl57UwfcV0f6wELNMxcPUrG49+Xtes5Xsm438BC5fg8Dd+zx4IgOBsuMjjixF7HWAXhwQxXkT1BEHw+2SBcbsrl8kG4O8GdJS/k7SRBEPyxqv4f7luxBgleFZiwR1lrPwhXJhG5FzSxB3ey+Zrn0aNHn4SXoKoPwFM9HsOx4APXLVVdJyLrRowYMbymYpyIgXU9xu/GAUdL3AFE5FNEdDMchYno7qwdL83zcACrUCgcE7db1fIRUdWY2XnVqmVds1dF3desrvqoxbuD07yt9zzvd9L9cWl4rcOtJznh8exCPOkArA3jxo37kKuXjpsBFurAG9+11QhYDkDp2PUNc9Tt3On+IN0IWLGB9weOP3wui8ViQ+/5AQELHcKRwFp7NazK8QrxDBH93Fq7GauaiCzI8r6Gnx/8/VR1i7V2a17AbpIlCOThswRr7SLYp+D6Y4x5nJkfF5FnMQGstXfUE2aSL7yfVXUheInIeiJaLSKbYt5z0u42ybrQfllrf5kaAzzdYWnfAYDjbpisU++ZiEbGstljrf1ZPdoGZUfBe1xVYXupWvo7Z/3k6p7ZT0STZq2sKhaYuXrMwcQaO3ZsrjeIayfW+t2mqrsSQAKY3oaixVp7HYzSjj4rJqK/gueOqr4C37osGuThBKGqD4vIXmbuo6bG+y+Xy+CzJyPswtxi5h8x82cqlUquwgVticitWITDMIQnSOYdEh48ULO7tph5TZabXHI8UF7EY91DREuTZU09YyXGNy34xsRaW4HrzmmnnfbBvMr4hggrOoRTL2R9h5PmiZUDOwtWZQRjjMVOmKZrJq2qI7ATM/M0fHIRhmGtk2QGE9grssYAgOAynlGlUdYx+HQEu1/ejt2IQbIcx24i+jJW3cqlD83qunJVNOnyR6oe/dZafDdX4yCdrJv3jCMVXIOgJTXGwIUqzLp3ZdWHSSAe2ydxD8qicXlY0DzPOyWLDsDD7u5OCS7GnDHGfKwRwF0biHHPRD3IHSeuZFnyGX0HHdoCaBoBFn109M3KJ9le63mISMDOXDFr0hWPRZVLH6rrCDxEhtPqZksCR1YCOMZMLxSOtjNXXHX6ZSsjO/OB6lEw/VnDke1lq/WWBIaABHDcxlElVlCsM177ReElj8wJZz4UlS95eIkUx5xjrV0NnQTuCrFipa49bwgMu9XFlgQGTwJBEPx9GIZQ6uA/LuBneFf7KR/5sF78wK168YNR+PUHfzSiUBiuqrDxwXSxP3Zb6vUuH7zetTi3JDA0JYC/LlgMrZ0xBuaG0YXC9KN1xn2fl68u36IX3hfJhfe9JBf88ILKZ1e8Dyp2Zl4LeiLaBkXM0Bx2q9ctCQySBIjoG0mXIGPMVWiqPGPpNZWL7o/CGcsi+5V3wsSvPRjpV5cvQTk+1Yi92qE6fxPGYPg1DlI3W2xbEhhSEhgGUwMz35gwrO4vFosljEK+9MNyZcayWeUvL10cfmX5nPD8ZZO9+dGx8Y61xRk/4TEPA34j/8khJZlWZ1sSOFQJwCUJrlMOKLHfID63ubxEpbMC1RCfURDR1+KvjV91tPE/X2V/iHeoHWvVb0lgKEsg9mqp+uzheAePdLeDpWMACuUugJ6I1rR2q6E8A1p9HzQJxN4js/GJD9Tp8EjBp+IOWAAUQIQ7GHwtJ0yYMBK+gMz8l42chAet0y3GLQkMVQmICHwg3Q6W+0emQ3V8rX63JNCSQEsCNRL4f826WDz1IoxRAAAAAElFTkSuQmCC;" vertex="1" parent="7Cv30EDc3GMNcKOpRmR3-3">
          <mxGeometry x="13" y="30" width="120" height="16.82" as="geometry" />
        </mxCell>
        <mxCell id="7Cv30EDc3GMNcKOpRmR3-14" value="" style="shape=image;verticalLabelPosition=bottom;labelBackgroundColor=none;verticalAlign=top;aspect=fixed;imageAspect=0;image=data:image/svg+xml,PHN2ZyB4bWxucz0iaHR0cDovL3d3dy53My5vcmcvMjAwMC9zdmciIGlkPSJzYXAtaGFuYS1jbG91ZC1jb25uZWN0b3IiIHZpZXdCb3g9IjAgMCA1NiA1NiI+PGRlZnM+PHN0eWxlPi5jbHMtMXtmaWxsOiMwYTZlZDE7fS5jbHMtMntmaWxsOiMwNTNiNzA7fS5jbHMtM3tmaWxsOiMwNzRkOTI7fTwvc3R5bGU+PC9kZWZzPjx0aXRsZT5zYXAtaGFuYS1jbG91ZC1jb25uZWN0b3JfY2lyY2xlPC90aXRsZT48cGF0aCBjbGFzcz0iY2xzLTEiIGQ9Ik0zNC4zMTIsMzkuMzc1SDI5LjQzOGEuODEzLjgxMywwLDEsMCwwLDEuNjI1aDQuODc0YS44MTMuODEzLDAsMSwwLDAtMS42MjVaIi8+PHBhdGggY2xhc3M9ImNscy0xIiBkPSJNMzguMzcsMjYuMzc1SDI1LjM4YTEuNjMsMS42MywwLDAsMC0xLjYzLDEuNjNWMzYuMTJhMS42MywxLjYzLDAsMCwwLDEuNjMsMS42M0gzOC4zN0ExLjYzLDEuNjMsMCwwLDAsNDAsMzYuMTJWMjguMDA1QTEuNjMsMS42MywwLDAsMCwzOC4zNywyNi4zNzVabTAsOS43NUwyNS4zNzUsMzYuMTJsMC04LjEySDM4LjM3bC4wMDUsMFoiLz48cGF0aCBjbGFzcz0iY2xzLTIiIGQ9Ik0yMi4xODQsMTYuNjI2YTMuNSwzLjUsMCwwLDEsMy4xNzcsMi4xODVsLjcwNywxLjc4MUwyNy43MSwxOS42YTIuMTE0LDIuMTE0LDAsMCwxLDEuMTA2LS4zMiwyLjE1OSwyLjE1OSwwLDAsMSwyLjEyLDEuNzU5bC4xNTYuODI5Ljc2Ny4zNDlhMi45LDIuOSwwLDAsMSwxLjYyNSwyLjUzaDEuNjQxYTQuNTI2LDQuNTI2LDAsMCwwLTIuNTkyLTQuMDA4LDMuNzYsMy43NiwwLDAsMC01LjY2Mi0yLjUzMUE1LjExNyw1LjExNywwLDAsMCwyMi4xNTUsMTVjLTUuNjIzLDAtNS4wMTQsNS43NTMtNS4wMTQsNS43NTNhNC41NDMsNC41NDMsMCwwLDAsMS40MTUsOC44NjRoMy41NjlWMjcuOTkySDE4LjU1NmEyLjkxOCwyLjkxOCwwLDAsMS0uOTA4LTUuNjk1bDEuMjUtLjQxMS0uMTQyLTEuMzA4YTQuMzkyLDQuMzkyLDAsMCwxLC44MTEtMi44NjJBMy41MjIsMy41MjIsMCwwLDEsMjIuMTg0LDE2LjYyNloiLz48cGF0aCBjbGFzcz0iY2xzLTMiIGQ9Ik0yOCw2QTIyLDIyLDAsMSwxLDYsMjgsMjIuMDI1LDIyLjAyNSwwLDAsMSwyOCw2bTAtMkEyNCwyNCwwLDEsMCw1MiwyOCwyNCwyNCwwLDAsMCwyOCw0WiIvPjwvc3ZnPg==;fontFamily=Arial;fontSize=15;fontStyle=1;fontColor=#074D92;" vertex="1" parent="7Cv30EDc3GMNcKOpRmR3-3">
          <mxGeometry x="418.5" y="60" width="56" height="56" as="geometry" />
        </mxCell>
        <mxCell id="7Cv30EDc3GMNcKOpRmR3-15" style="rounded=0;orthogonalLoop=1;jettySize=auto;html=1;fontSize=12;fontColor=#808080;startArrow=none;startFill=0;endArrow=block;endFill=1;strokeWidth=2;strokeColor=#595959;exitX=1;exitY=0.5;exitDx=0;exitDy=0;entryX=0;entryY=0.5;entryDx=0;entryDy=0;" edge="1" parent="7Cv30EDc3GMNcKOpRmR3-3" target="7Cv30EDc3GMNcKOpRmR3-14">
          <mxGeometry relative="1" as="geometry">
            <mxPoint x="408.5" y="90" as="targetPoint" />
            <mxPoint x="364.5" y="87.5" as="sourcePoint" />
          </mxGeometry>
        </mxCell>
        <mxCell id="7Cv30EDc3GMNcKOpRmR3-16" value="&lt;span style=&quot;color: rgb(5, 59, 112); font-family: Helvetica; font-size: 15px; font-style: normal; font-variant-ligatures: normal; font-variant-caps: normal; font-weight: 700; letter-spacing: normal; orphans: 2; text-indent: 0px; text-transform: none; widows: 2; word-spacing: 0px; -webkit-text-stroke-width: 0px; background-color: rgb(248, 249, 250); text-decoration-thickness: initial; text-decoration-style: initial; text-decoration-color: initial; float: none; display: inline !important;&quot;&gt;Launchpad&lt;br&gt;&amp;nbsp;Service&lt;/span&gt;" style="text;whiteSpace=wrap;html=1;align=center;" vertex="1" parent="7Cv30EDc3GMNcKOpRmR3-3">
          <mxGeometry x="-7" y="116" width="140" height="40" as="geometry" />
        </mxCell>
        <mxCell id="7Cv30EDc3GMNcKOpRmR3-17" value="&lt;span style=&quot;color: rgb(5, 59, 112); font-family: Helvetica; font-size: 15px; font-style: normal; font-variant-ligatures: normal; font-variant-caps: normal; font-weight: 700; letter-spacing: normal; orphans: 2; text-indent: 0px; text-transform: none; widows: 2; word-spacing: 0px; -webkit-text-stroke-width: 0px; background-color: rgb(248, 249, 250); text-decoration-thickness: initial; text-decoration-style: initial; text-decoration-color: initial; float: none; display: inline !important;&quot;&gt;SAP Task Center&lt;/span&gt;" style="text;whiteSpace=wrap;html=1;align=center;" vertex="1" parent="7Cv30EDc3GMNcKOpRmR3-3">
          <mxGeometry x="141.5" y="116" width="128.5" height="40" as="geometry" />
        </mxCell>
        <mxCell id="7Cv30EDc3GMNcKOpRmR3-18" value="&lt;span style=&quot;color: rgb(5, 59, 112); font-family: Helvetica; font-size: 15px; font-style: normal; font-variant-ligatures: normal; font-variant-caps: normal; font-weight: 700; letter-spacing: normal; orphans: 2; text-indent: 0px; text-transform: none; widows: 2; word-spacing: 0px; -webkit-text-stroke-width: 0px; background-color: rgb(248, 249, 250); text-decoration-thickness: initial; text-decoration-style: initial; text-decoration-color: initial; float: none; display: inline !important;&quot;&gt;Destination&lt;/span&gt;" style="text;whiteSpace=wrap;html=1;align=center;" vertex="1" parent="7Cv30EDc3GMNcKOpRmR3-3">
          <mxGeometry x="272.25" y="118" width="128.5" height="40" as="geometry" />
        </mxCell>
        <mxCell id="7Cv30EDc3GMNcKOpRmR3-19" value="&lt;span style=&quot;color: rgb(5, 59, 112); font-family: Helvetica; font-size: 15px; font-style: normal; font-variant-ligatures: normal; font-variant-caps: normal; font-weight: 700; letter-spacing: normal; orphans: 2; text-indent: 0px; text-transform: none; widows: 2; word-spacing: 0px; -webkit-text-stroke-width: 0px; background-color: rgb(248, 249, 250); text-decoration-thickness: initial; text-decoration-style: initial; text-decoration-color: initial; float: none; display: inline !important;&quot;&gt;Connectivity&lt;br&gt;&amp;nbsp;Service&lt;/span&gt;" style="text;whiteSpace=wrap;html=1;align=center;" vertex="1" parent="7Cv30EDc3GMNcKOpRmR3-3">
          <mxGeometry x="382.25" y="118" width="128.5" height="40" as="geometry" />
        </mxCell>
        <mxCell id="7Cv30EDc3GMNcKOpRmR3-20" value="SAP Cloud Identity Services" style="shape=image;verticalLabelPosition=bottom;verticalAlign=top;imageAspect=0;aspect=fixed;image=data:image/svg+xml,PHN2ZyB4bWxucz0iaHR0cDovL3d3dy53My5vcmcvMjAwMC9zdmciIGlkPSJzYXAtY2xvdWQtaWRlbnRpdHktc2VydmljZSIgdmlld0JveD0iMCAwIDU2IDU2Ij48ZGVmcz48c3R5bGU+LmNscy0xe2ZpbGw6IzBhNmVkMTt9LmNscy0ye2ZpbGw6IzA1M2I3MDt9LmNscy0ze2ZpbGw6IzA3NGQ5Mjt9PC9zdHlsZT48L2RlZnM+PHRpdGxlPnNhcC1jbG91ZC1pZGVudGl0eS1zZXJ2aWNlX2NpcmNsZTwvdGl0bGU+PHBhdGggY2xhc3M9ImNscy0xIiBkPSJNMjYuOTIyLDI5LjQwOWEyLjIwOSwyLjIwOSwwLDAsMC0uNy0uNDcsMi4xNTcsMi4xNTcsMCwwLDAtLjg0Ni0uMTcxSDIzLjE4OGEyLjEzNywyLjEzNywwLDAsMC0uODU1LjE3MSwyLjIyNiwyLjIyNiwwLDAsMC0uNjkyLjQ3LDIuMTkzLDIuMTkzLDAsMCwwLS40Ny43LDIuMTM5LDIuMTM5LDAsMCwwLS4xNzEuODQ2djIuMTg3aDYuNTYyVjMwLjk1NmEyLjE1NiwyLjE1NiwwLDAsMC0uMTctLjg0NkEyLjIwOSwyLjIwOSwwLDAsMCwyNi45MjIsMjkuNDA5WiIvPjxwYXRoIGNsYXNzPSJjbHMtMSIgZD0iTTI1LjgyOCwyOC4xMjhhMi4yMzEsMi4yMzEsMCwwLDAsLjQ3LS42OTMsMi4xMTUsMi4xMTUsMCwwLDAsLjE3MS0uODU0LDIuMTM5LDIuMTM5LDAsMCwwLS4xNzEtLjg0NiwyLjE4LDIuMTgsMCwwLDAtMS4xNzEtMS4xNzEsMi4xNTcsMi4xNTcsMCwwLDAtLjg0Ni0uMTcxLDIuMTM1LDIuMTM1LDAsMCwwLS44NTQuMTcxLDIuMjI2LDIuMjI2LDAsMCwwLS42OTIuNDcsMi4xNzYsMi4xNzYsMCwwLDAtLjQ3LjcsMi4xMzksMi4xMzksMCwwLDAtLjE3MS44NDYsMi4xMTUsMi4xMTUsMCwwLDAsLjE3MS44NTQsMi4yLDIuMiwwLDAsMCwuNDcuNjkzLDIuMjI2LDIuMjI2LDAsMCwwLC42OTIuNDcsMi4yMSwyLjIxLDAsMCwwLDEuNywwQTIuMjA5LDIuMjA5LDAsMCwwLDI1LjgyOCwyOC4xMjhaIi8+PHBhdGggY2xhc3M9ImNscy0xIiBkPSJNMzQuODI5LDMwLjExYTIuMTgsMi4xOCwwLDAsMC0xLjE3MS0xLjE3MSwyLjE1LDIuMTUsMCwwLDAtLjg0Ni0uMTcxSDMwLjYyNWEyLjEzMiwyLjEzMiwwLDAsMC0uODU0LjE3MSwyLjIsMi4yLDAsMCwwLTEuMTYzLDEuMTcxLDIuMTM4LDIuMTM4LDAsMCwwLS4xNy44NDZ2Mi4xODdIMzVWMzAuOTU2QTIuMTM5LDIuMTM5LDAsMCwwLDM0LjgyOSwzMC4xMVoiLz48cGF0aCBjbGFzcz0iY2xzLTEiIGQ9Ik0zMy4yNjUsMjguMTI4YTIuMjE0LDIuMjE0LDAsMCwwLC40Ny0uNjkzLDIuMTE1LDIuMTE1LDAsMCwwLC4xNzEtLjg1NCwyLjEzOSwyLjEzOSwwLDAsMC0uMTcxLS44NDYsMi4xODMsMi4xODMsMCwwLDAtMS4xNy0xLjE3MSwyLjIsMi4yLDAsMCwwLTEuNywwQTIuMiwyLjIsMCwwLDAsMjkuNywyNS43MzVhMi4xMzksMi4xMzksMCwwLDAtLjE3MS44NDYsMi4xMTUsMi4xMTUsMCwwLDAsLjE3MS44NTRBMi4yMjYsMi4yMjYsMCwwLDAsMzAuODY0LDI4LjZhMi4yMTIsMi4yMTIsMCwwLDAsMS43LDBBMi4yLDIuMiwwLDAsMCwzMy4yNjUsMjguMTI4WiIvPjxwYXRoIGNsYXNzPSJjbHMtMiIgZD0iTTM4LjQwNywyNC45NTVhNC45NTEsNC45NTEsMCwwLDAtNy40NTctMy4zMzMsNi43NDMsNi43NDMsMCwwLDAtNi4yMTEtNC4yMjljLTYuODY0LDAtNi42LDcuNTc3LTYuNiw3LjU3N0E1Ljk4Myw1Ljk4MywwLDAsMCwyMCwzNi42NDNIMzUuODc1YTYuMTE2LDYuMTE2LDAsMCwwLDIuNTMyLTExLjY4OFptLTIuNTMyLDkuOTM4SDIwYTQuMjMzLDQuMjMzLDAsMCwxLTEuMzE3LTguMjYxbDEuMzMtLjQ0OC0uMTM1LTEuMzk0YTYuMTI2LDYuMTI2LDAsMCwxLDEuMTcyLTQuMDksNS4xLDUuMSwwLDAsMSwzLjcyMi0xLjU1Niw1LjM3Miw1LjM3MiwwLDAsMSw0LjY2MywzLjExNWwuNjg3LDEuNjc1LDEuNDEzLS43NjlhNC40MzIsNC40MzIsMCwwLDEsMS45NzgtLjUyMiwzLjIzNSwzLjIzNSwwLDAsMSwzLjE3NSwyLjYzNmwuMTY4Ljg5MS44MjUuMzc3YTQuMzY2LDQuMzY2LDAsMCwxLTEuOCw4LjM0NloiLz48cGF0aCBjbGFzcz0iY2xzLTMiIGQ9Ik0yOCw2LjAxOGEyMiwyMiwwLDEsMS0yMiwyMiwyMi4wMjUsMjIuMDI1LDAsMCwxLDIyLTIybTAtMmEyNCwyNCwwLDEsMCwyNCwyNCwyNCwyNCwwLDAsMC0yNC0yNFoiLz48L3N2Zz4=;fontSize=15;fontStyle=1;fontColor=#053B70;spacingTop=-10;" vertex="1" parent="7Cv30EDc3GMNcKOpRmR3-2">
          <mxGeometry x="206.51" y="340" width="56" height="56" as="geometry" />
        </mxCell>
        <mxCell id="7Cv30EDc3GMNcKOpRmR3-21" style="rounded=0;orthogonalLoop=1;jettySize=auto;html=1;fontColor=#FFFFFF;endArrow=block;endFill=1;strokeWidth=2;labelBackgroundColor=#ffffff;endSize=6;startSize=6;jumpSize=3;strokeColor=#C0399F;startArrow=block;startFill=1;entryX=0.5;entryY=0;entryDx=0;entryDy=0;" edge="1" parent="7Cv30EDc3GMNcKOpRmR3-2" target="7Cv30EDc3GMNcKOpRmR3-20">
          <mxGeometry relative="1" as="geometry">
            <mxPoint x="226.51" y="299" as="targetPoint" />
            <mxPoint x="234.51" y="260" as="sourcePoint" />
          </mxGeometry>
        </mxCell>
        <mxCell id="7Cv30EDc3GMNcKOpRmR3-22" value="&lt;font style=&quot;font-size: 11px;&quot;&gt;&lt;font style=&quot;font-size: 11px;&quot;&gt;trust&lt;/font&gt;&lt;br style=&quot;font-size: 11px;&quot;&gt;&lt;/font&gt;" style="rounded=1;whiteSpace=wrap;html=1;arcSize=50;fontColor=#FFFFFF;fontFamily=Helvetica;fontSize=11;strokeWidth=2;autosize=1;absoluteArcSize=1;labelBackgroundColor=none;fillColor=#C0399F;strokeColor=#C0399F;" vertex="1" parent="7Cv30EDc3GMNcKOpRmR3-2">
          <mxGeometry x="214.51" y="290" width="40" height="20" as="geometry" />
        </mxCell>
        <mxCell id="7Cv30EDc3GMNcKOpRmR3-23" value="SAP&lt;sup style=&quot;&quot;&gt;&lt;font style=&quot;font-size: 9px;&quot;&gt;®&lt;/font&gt;&lt;/sup&gt; Business Technology Platform" style="text;html=1;strokeColor=none;fillColor=none;align=left;verticalAlign=middle;whiteSpace=wrap;rounded=0;fontStyle=1;fontSize=15;" vertex="1" parent="7Cv30EDc3GMNcKOpRmR3-2">
          <mxGeometry x="58.00999999999999" y="10" width="268" height="30" as="geometry" />
        </mxCell>
        <mxCell id="7Cv30EDc3GMNcKOpRmR3-24" value="" style="shape=image;verticalLabelPosition=bottom;labelBackgroundColor=default;verticalAlign=top;aspect=fixed;imageAspect=0;image=data:image/png,iVBORw0KGgoAAAANSUhEUgAAAGwAAAA4CAYAAAAYeR0sAAAAAXNSR0IArs4c6QAAAIRlWElmTU0AKgAAAAgABQESAAMAAAABAAEAAAEaAAUAAAABAAAASgEbAAUAAAABAAAAUgEoAAMAAAABAAIAAIdpAAQAAAABAAAAWgAAAAAAAACQAAAAAQAAAJAAAAABAAOgAQADAAAAAQABAACgAgAEAAAAAQAAAGygAwAEAAAAAQAAADgAAAAAJnBSgAAAAAlwSFlzAAAWJQAAFiUBSVIk8AAAE+9JREFUeAHtXAl0VPW5/+6dyWRfJyGEJQmbAdkXUTjQFhF9Uutrj+DzVAWqtPhKa9tHe3yV8oCjdaH2vWfbg6ceQMQW3xNK0foIiMimrELYArIkZiMh62SdySz3/t/vu5MJk+HOnQlhJCrfOXfu9t+/7fd9/5sQ3aIv1QpItK1RfKlG/HUdrDmKyOPeapZU9eu6BF+eecsmIrdrq/h26vfMknJLwXo754Tq2SK+kzaHx3lLw3oztwSpJEl/V82ueThrmnVLw3otwyS3kKStisW8iB5It/uGCYbd8mG+xehFZxc06l2PU/4ZPZRi8x+XmdRbPsx/QW7+tdCYZfKov3I/nlkVOJ5bPixwRW7uvROa9Q9Jkn/d/mhmqd5QwLBuaBiKmmRGKhJJaI1rqvhlq3rLsOotbzeeCaExCxZvqXN+VnGwmoagg5kSbZIo1SJTnFkiM5hljTZRWoxMUbgW4FibR1B9u4qzSm5wzYkwoQUXrXjeHVmIQT+ZsTIEgXsNTnXtitZ20BIYU984mWJYssIkAaHjsWLI5MSPA3PgeXyBQtiOtdwmhLLc9UTOBaNh65pEXjJmUP94M41MjaK5g+NoXJoFC2qiWDzXoxa3oBosZlGzh/ZWtdP+K05qdCoaM20u46lzi2OsFvrvKWkQBP32fX0+V9BI+WUObXF9z/zPHqz8srEpNLlPtP9jw2tmjh2MasB4LzZ5qNDmokuYRxPG3YjD5lQJRSJF7URSvqq6lrsWDj0bqhNz4EhYi5hR3+ofQz8blUTDU5ASCYMSoyRKjDLTkEQz3Yu6LixceatC/1vUSu+WOKjGoVC1XdFtKcki0Yy+MTQeTAtFd6Zb6BAEotYRRAggqoMxhlEQtJ6Qb/z5ZXZ6r9ROnzW6qQGWpDtWw7B/r1yCWWKHLImVjoVDzxiW73gpxf252Cs7+GUrMsYaTUvGp9B3c+Pg/8JpInQZluAVRxvo1ZPN17aJfkekRdHmf+pLuVjoUFQLxi/YVUt7Kx2aDw0szxq2/TtZNKN/bOCr675n7Vt3roU2Xmihsw0uzfSHsNzh9AVm0U4iZYV90bDj4VTgMp0+jC3RyBQLvXBXGn2jX0y49cMqx36woBo+FYsZKAMsJP1hasNhFneWgbLZ8SZig8eCEEgSNCywj8Ay3b1n9/CT0Uk0JTOa/v1APR2tbiePvrEI3bR3cA4U3CVUes6+OHxmceMyIfnLk8yIlmnZHak3nFncye5yO+2rsINhMGMBRxoAzUNDErhY2DRzYCxlAaAQZhzYnmazMJ9I0ET4xRenWjWTK3MfAXMJec91FOHAGHerQv6tffGQo90dp8xSL6PjB2ACZ+fGd7d+yPKtQIy/3FuDPiD5OkcG/NeDg7vXLzN4UKJJv80IZ24mgWnzhydSnKw/H705as/ALGSVHGD0HlmlFxw/HnQo5OLpFNDisFgAhh8DWYUiNxb8SpuHqtsUcsEcsXZbYO6SoJ194syUBG0J9HtrTzXSJdh9zO8aioapGQn/lYL63SHuY1BSFB2VHWQHOvUnXhxd5+ZfCNd2hCENAC7clgX+IBlj4LmEQwtHJ9ObZxqpCECkG8rsELK0T0jipdafDPsknH70ymipqSFJFsoDbDciGyD7YTj6fwD1fQLz1gSoy/NjZg2B75sCJ5+XFk3p8DEjAFz4eXmzm1YfQyqsg7mB7VstJloUhqAE1uP7x0Yk0cdAcEWA4P6kMcz/gc41u75z9S5683QjfAJRcoyJbktF2AJ0PBioOAfCYDIIL+IRhH57UDy9VmDzAhCdPvwfYZkc6HK/UMTLrUuG7/N/191rs4AJmRoGyPi0ykH/9uEVKgUTvILolcaaVkEX65y07WILscYMSrbQ46OSaUyfGNpY2ER1bW7dNAivBwfK4zOvD81NzoIfizPR5w0BATqb3RBir+J9EbR+DRacx6EVxzkOMc2DwxLoF3dY6faMGO1dsAWdk5ek1WerE4LaUeITpJtWtS7J2x2ibMjXmob1TwgNpzkDYEdgacbsvDszXQeKPVFSUeZSfTst29NOGVjMVgSdahDtiof5vH9wgpZJCTnKIAWm9oul01cc1Ixx+UgKEp753vvOMuwmz6XTGGM6brdCm842UQy4+MzUDMpODh7LWaGVXr9s2CGgsXwAC7aqaUneLl/fPTkDdCAbGFpKaDQ05smxqTQ42awLHnzOlifBC9EAzXJzroolXudIhDY+OsrYb/Kw+AhGT01Io76czurSPvo0qNPZFsrw3LvWFWRCW/kXmulkNSPv4BQHs6iFEF367jJXlyTUQ0JRVjX98nbEWzeGNNBRb/eEbC0H0vbTyVYaBl+341ILncKEShtdSPzy6njNo38j3if6K8fZFPYZ/RODSzBrjQ1Bcip8YhLyl3pkhRaz3ylucGoJaK2MNh79fru0wUW47LVDJxcAiYcdnQFpAIXra/0FFJTIDWYexibxS42/Hrsj4G2Pbs2sEScuG0uTr4cUmIFHoBX3wJTtAvg4Vmmny/BpJ6rsVN3q0R27r67/maXzsTGphj6iEMHpruIWum9YEt3RP86/epfrObcnUyH6b0TaiIk1JiwNQyFNu3QYBjnQkGOXjgJuOGHs086ur4QC6Pkpnr3Y8OzY7V3f9fzOzHCbJ1zR5KIBAAzhUDog/L+MTqG5YF4ZtOxDaFwRpJz911EgyBYgSCNKgDm8Z0iiURFNazYWNJAVGjaxX1xQ5s4bl0av7q+hpo48ZdgMw7yDMWzqgHgaFiKv6YK/1mEYZyGOCSE9b1s2Jt9wgtf5UgMdbYDsa47U0YpZ/brVDCOsXJi2hUBVbBoLa6AVYN65GgftvNhMLZB6rEsXYnP4jdwEzdR1eeF30wawUgkBqm52UU2LGzGfSjFcUYdYQUZnxqC8k4AZ9E2UTj0NGrI2ahrmHaUFebK7cuLpX+9Mp9vSjdNzNggII+yrZoXbko8LSV4JZm3T6/JGPDOz4+Rxbz7VQDMGJ9I3Q0h+sE45bhnTN1Y7WFvH9o2jv59poFMIB7h9H1kQqf5gotV3q3s+X9tO+2AOueIlXH8O7R3RJzj8Xzwlgz5B+UYk+DSpx5yMiFmfDWsyBxaC85xJMWaKRvKAhWLm0CSaOCC4Cfa1e6is1YuAfX0JKlBldblt2fiIMYv77vymoxaS/PJHlWR3ZdL9I4zRm2/Qwc5sWhcDFg/PiKZ1R2rpg/PNmqaxMA/Eu5EhYq8ym5NOX0buEYtxFAtzHLnI4Rmx12RRfP1PHhiPfTqiJpYMbQFDMAzCNRLCtXRmlpbdSEHlGJhpCcKkKZyv4SBnDnE2nagnD8BJR4hzUjHJv7GtiCyzeDgAHV5/w3nUgvI2emlXJV0BkHhwdCpZ4at6QjMBGPogxnMB3u+5xFsrEn1/vJU4BgtGdpjDy/CLDqBEZlg9BKkKptEN1GbBogaj+/OS6S+f1hFvr4QiboXHEG8Jf5PTv82Pi5vh97G9g74kEiewMbX0i2AWjwHxY4dU4qzAJn+GgbwCpq36sJK2nGyAxhkDCP+J6F2Pzoqj38A3pgN6MQO+B0EwopKGdtpzsQnmhqUXC4KjpK6dKsE0I/rp9Ex8FgANQflrHKdRxW6+syEEWnuwhuzw+1i7AoxwWe3zkdcs3zC1OMx34z0Lqmtx0VuHa2gfFu5ISQvlwX/cCzPZDznD4DLetRX/u7H94+nhsVaED23U1yD24jpVTQgTYAa9zPKu/YEiBLLQoBzkKoP1PzAlWovJmpCcjhS1Qutf3V1FB+EvPR6lALKxvO7lye9Hqj+9djt9WOBLRn3FQHvFcPq8yAdgBvrB/4wAmJgOx5yFa0aJ4dKTU/rQWaSRjJKqvANQBcDS1BHI+4xbBXza5UYEx3hv9iYydbt9+ptZ9PPNxRHRsGJo+QYI8VtA00jRFWAjcWV1cVlEAYbeJDWUqPei8xnE6Aog83snnXB4Eg2AJH9w1qYx7G5I/dTBSRRr4JN87WRDO6wJwTMbXI4FYDjAwCMT0+k8mOuGWbQAuQ1FWmzCwISgoMPXx8MT0mnJpuKgWugr151zk8NDm4/X0X6EKfuKWqjN6TkhybSy2mbeRpsevprE7E6jPSgbVMP82/QpEmtdaZ0DPsVBUZD0I9C6e29PpbmT0inXahy3cHtGYIPfs0Cw+Vwys79Xo9Afa1RfbP+wOTbSTq7PnxtMAGIMx4eh6Y60Gte8SpzJb0SMdby0hQ593gIA5qLDOFe3eBhknESwtTKxvX579euzsQ3xxdM1Gubz2cwk3tzTI36sANqeLm+lywAJfbF/lDEhiuKD5Pz02gj2jAUhB/tpfFwPrXggm9oBt42IBe94aSut3V91zSQFFsABVFtW76QSZG7acS3JwGaqOIV01Mo4m3P7pfWznUbtR/JdFw1j8zN9WDINg5/aeKiabHY3zFTw2IQZVwfYzZl5XoTeQJNyE+lgUZPhUFgoKxCMb4GpM/LDXqFFYlFRTsskr4xOycov+a9B/LXTTaMuGpYAX/TUjH50GwLbOwcl0iGgs63Ha6mmIw7yZx6zh6VxbE4CjYN/ibsB2nWjViEPAhcOceIbyhOcJBM0y3MaIrvSJIv8khU3l1k8UGiYd7zsK1i77gCjoqFp945Ko/Fgxn2jUqFBHirCdkohYHl9qzceSgOAmJiLNA7KD8cCsf/pLZQWbwxuOsfJUhfMegJZIBg8A6l8TnLF5Fe8Pim8LY3OxiNzYdYCZ7TNTHpiel/tzF3x+mfC2fPBjrgFe1McNLJNZ+Ly6YD7Cdhy6T2s0oYW3g/bRT70SGOWegYzfZ5i7Nsq/zTdrlfsZjzTTCKnjGbkpdB4aIwesSlMRpqKj0gQC0ElYq0shAxGIUI7si6cwefwgAWlZ+TNolwjbF7NKkTk/iLFpLxf/cq0tp71c2NraxrG5mzRzAEaVL+xzYdujYX8Avbjfr7hvMaEJCRic/EBTEaiRYvBnGBmTbOTygESOKB2uBRaMWcITR2WEhTFhu61o0SghjEsVpSzYOVLHkl9r/aVsb2KWTxqMyd9p49I1nxR2BMNsyCDEtZeI7IBYb5z8AqdRYjAcRYfRwF+GLGyWWbwycljhtqMRNk8V4J5vqDaqG2jd5xl925gdoyPx6mKc7Dvq9ySsrV29YzWLvXnvmPJtqQNFSZxF5SwD6lSBdJnx0rfmnWuS7kI38j8yfFJ5AtX7yin2hAJ1nDHwoL7PweuUBWy7nxtRKw1O0/WERs4zh9y0rcN2QUb8pn1GA+f29rx+UFHMphB3ZbD1VSOGKnHxGPjAfJZVT/DWvzO6TRtCWRW9vwPZmbHp74HZr0Nvv4A5WcKWSzEsSlnwc49/RbsHt7jsYTZgJatb8CivPZBGT366ila+vZFKoS0synqLrEGsKYsXnOW8hEOsD8KoWDUCA2rQJ4O2xQdi2d8ZqYeOm+jGgjD9RKPSdMrH7OEch79v+JwmzfXrZuGndOrlDt/5y9Q+g8InO2wGE+rkngCH2YuQhD9Q0k2/QhNyPi4M3/gvJ3/fLVW5K4AOryNNyIAbmp1U1mtg/ZipzgVjn0CdqCnDU+l3D5x2n0Svq9gU+Uj/rKoGdpQi4Tt0UtNtONEHZWgPpush6Zk0mmkdxhNBiP+zvHdozXavpLM9i9McgJ8FCBdxNSNap2t857Zxao2aDQzTlxEK79v95jfCWRW9rwPH1CF+gR48jeTUP9PlaRvoWwqhwL4Fga/ysdmIT3mkcTvYPr/lLNwx6nSNfd93tlRBC6kAQs/6mBZ19YZGcbhc+sEbJ9b8JUTAxP2L/4LhHlrfoUZ14bFb4Z5Y9/ClIJYiOsHz5OwywDDUYfrdpesCCmio64vpOAvnhxguq3VXQRxWmVXLW8HMit3we4YQZ61GOJA/MHd00RRjYrwvI11OQ5ta8ZO4iC8myKE/BTGfgofeF7Akm0vXT/roe7OpTvlg+J0XsxWbNLxcT3Epq4xghiLd6Lxre71DE2rA+0qkSTl9w6LeWPd6mldAQZKqMI1EunkofjnJq9ZLcmFdY76ATCBUfClbyixUSUmj9siKRKYpD5S9uas/JwFO1aAeUtRlU2FrhJoHffwB8LTEY98vc4VsIerFDn1zUCA4VtPSZjuxLpb8WlU5bHXJ3VIBv7+RJYGm50iT/KIqShrBmcuch1FNe/FKSln3s5xfB8pQhwWqaZ7bbtXYNZelDzSG+XrJwWFmgAXadBCs2wSnVvYuI8TEv0W7MEnXBB1QX+LVtx/4JlaSDR6GGJJoh9uCyI1+87UVKQ66GXt1iPb+1xCc92awk0PG8NMSVSQkPDvGEydKRWYR5hOZRGejwBvXoBJ/o9Lf53dzHN0yiLNBOcIE1kUyTkHh3CR7PXmtN0E77K8vLnuzyGZhfEpsnIQ5RvwBxM5I+cWej+JZp0ymWyWZM8mXFZKwvyfvqkA/nwXxqqhZP19n/meReLcCesj0XivaVOSEENJz5a/cffqcMdUmX34YnbJtAqUf9YeW3UErqMFDDQJRZIu/XG2c8C8/B9JkvlIzoKPZie0uQ61SqZnsBWzLtz2r7ccNIyd2Ff4EAJhkvhV+frwmaUt5ooVqkeWl2FlGpFXfF5gK1wV0U8Je30lv6/YcP8p/CnRLFLdoiXOdEioSl35hllPanUj+MN/1/YV5hfnT9SnS9ffE7Zm+a915bq7z8NXPQMkMQ5/9gsT6bpLSbL24TI5j+8YBPM4Cd/Sb4PnSleFI6Lo0DcuKXv+TmbZV5GEZJJ+WLrunrU9nVz2999PJYvlGTBmkSRHdWwTAGEo7noS8h/LNsxc2dM+btX/iq7A/wPKki+RmWbtrgAAAABJRU5ErkJggg==;" vertex="1" parent="7Cv30EDc3GMNcKOpRmR3-2">
          <mxGeometry x="19.00999999999999" y="16.5" width="36.64" height="19" as="geometry" />
        </mxCell>
        <mxCell id="7Cv30EDc3GMNcKOpRmR3-25" style="edgeStyle=orthogonalEdgeStyle;rounded=0;orthogonalLoop=1;jettySize=auto;html=1;exitX=0.5;exitY=1;exitDx=0;exitDy=0;" edge="1" parent="1">
          <mxGeometry relative="1" as="geometry">
            <mxPoint x="334.9899999999998" y="549.1700000000001" as="sourcePoint" />
            <mxPoint x="334.9899999999998" y="549.1700000000001" as="targetPoint" />
          </mxGeometry>
        </mxCell>
        <mxCell id="7Cv30EDc3GMNcKOpRmR3-26" style="edgeStyle=orthogonalEdgeStyle;rounded=0;jumpSize=0;orthogonalLoop=1;jettySize=auto;html=1;exitX=0.5;exitY=1;exitDx=0;exitDy=0;startArrow=blockThin;startFill=1;endArrow=blockThin;endFill=1;strokeColor=#107E3E;strokeWidth=1;fontSize=16;" edge="1" parent="1" source="7Cv30EDc3GMNcKOpRmR3-2" target="7Cv30EDc3GMNcKOpRmR3-2">
          <mxGeometry relative="1" as="geometry" />
        </mxCell>
        <mxCell id="7Cv30EDc3GMNcKOpRmR3-27" value="&lt;p style=&quot;margin-top: 0pt ; margin-bottom: 0pt ; margin-left: 0in ; direction: ltr ; unicode-bidi: embed ; word-break: normal ; font-size: 11px&quot;&gt;&lt;br&gt;&lt;/p&gt;" style="rounded=0;whiteSpace=wrap;html=1;strokeWidth=1;fillColor=none;align=left;verticalAlign=top;fontSize=11;fontFamily=Arial;container=1;recursiveResize=0;collapsible=0;fontColor=#595959;dashed=1;strokeColor=#595959;spacingLeft=0;" vertex="1" parent="1">
          <mxGeometry x="50" y="290" width="122" height="300" as="geometry" />
        </mxCell>
        <mxCell id="7Cv30EDc3GMNcKOpRmR3-28" value="" style="shape=image;verticalLabelPosition=bottom;verticalAlign=top;imageAspect=0;aspect=fixed;image=data:image/svg+xml,PHN2ZyB4bWxucz0iaHR0cDovL3d3dy53My5vcmcvMjAwMC9zdmciIHZpZXdCb3g9IjAgMCA0OCA0MiI+PGRlZnM+PHN0eWxlPi5jbHMtMXtmaWxsOiM1OTU5NTk7fTwvc3R5bGU+PC9kZWZzPjx0aXRsZT5sYXB0b3A8L3RpdGxlPjxnIGlkPSJMYXllcl8yIiBkYXRhLW5hbWU9IkxheWVyIDIiPjxnIGlkPSJsYXB0b3AiPjxwYXRoIGNsYXNzPSJjbHMtMSIgZD0iTTQ4LDM4LjUzMUEzLjUyMSwzLjUyMSwwLDAsMSw0NC41MzIsNDJIMy40NjlhMy4zMzIsMy4zMzIsMCwwLDEtMi40MzgtMS4wMzFBMy4zMzIsMy4zMzIsMCwwLDEsMCwzOC41MzFMNi44NDQsMzBINDEuMTU3Wk05LDI3YTIuODMzLDIuODMzLDAsMCwxLTIuMTU2LS44OTFBMi45NjEsMi45NjEsMCwwLDEsNiwyNFYzQTIuODg5LDIuODg5LDAsMCwxLDksMEgzOWEyLjk2NiwyLjk2NiwwLDAsMSwyLjExLjg0NEEyLjgzNywyLjgzNywwLDAsMSw0MiwzVjI0YTMuMDQxLDMuMDQxLDAsMCwxLTMsM1ptMC0zSDM5VjNIOVpNMzAsMzlsLTMtM0gyMWwtMywzWiIvPjwvZz48L2c+PC9zdmc+;dashed=1;labelBackgroundColor=none;strokeColor=#0A6ED1;strokeWidth=1;fillColor=#107E3E;fontSize=16;" vertex="1" parent="7Cv30EDc3GMNcKOpRmR3-27">
          <mxGeometry x="37" y="100" width="48" height="42" as="geometry" />
        </mxCell>
        <mxCell id="7Cv30EDc3GMNcKOpRmR3-29" value="&lt;p style=&quot;margin-top: 0pt; margin-bottom: 0pt; margin-left: 0in; direction: ltr; unicode-bidi: embed; word-break: normal; font-size: 15px;&quot;&gt;&lt;b style=&quot;font-size: 15px;&quot;&gt;Web&amp;nbsp;&lt;/b&gt;&lt;/p&gt;&lt;p style=&quot;margin-top: 0pt; margin-bottom: 0pt; margin-left: 0in; direction: ltr; unicode-bidi: embed; word-break: normal; font-size: 15px;&quot;&gt;&lt;b style=&quot;font-size: 15px;&quot;&gt;Application&lt;/b&gt;&lt;/p&gt;" style="text;html=1;align=center;verticalAlign=middle;resizable=0;points=[];;autosize=1;fontSize=15;fontFamily=Arial;strokeColor=none;strokeWidth=2;fillColor=none;fontColor=#595959;" vertex="1" parent="7Cv30EDc3GMNcKOpRmR3-27">
          <mxGeometry x="6" y="146" width="110" height="50" as="geometry" />
        </mxCell>
        <mxCell id="7Cv30EDc3GMNcKOpRmR3-30" value="" style="endArrow=block;html=1;strokeWidth=2;fontSize=16;fontColor=#595959;strokeColor=#595959;endFill=1;" edge="1" parent="1">
          <mxGeometry width="50" height="50" relative="1" as="geometry">
            <mxPoint x="106" y="250" as="sourcePoint" />
            <mxPoint x="105.99000000000001" y="290" as="targetPoint" />
            <Array as="points">
              <mxPoint x="106" y="290" />
            </Array>
          </mxGeometry>
        </mxCell>
        <mxCell id="7Cv30EDc3GMNcKOpRmR3-31" style="rounded=0;orthogonalLoop=1;jettySize=auto;html=1;fontSize=12;fontColor=#808080;startArrow=block;startFill=1;endArrow=none;endFill=0;strokeWidth=2;strokeColor=#595959;exitX=0;exitY=0.5;exitDx=0;exitDy=0;entryX=1.037;entryY=0.135;entryDx=0;entryDy=0;entryPerimeter=0;" edge="1" parent="1" source="7Cv30EDc3GMNcKOpRmR3-5" target="7Cv30EDc3GMNcKOpRmR3-27">
          <mxGeometry relative="1" as="geometry">
            <mxPoint x="169.98999999999978" y="320" as="targetPoint" />
            <mxPoint x="341.49" y="564" as="sourcePoint" />
          </mxGeometry>
        </mxCell>
        <mxCell id="7Cv30EDc3GMNcKOpRmR3-32" value="" style="shape=image;verticalLabelPosition=bottom;labelBackgroundColor=none;verticalAlign=middle;aspect=fixed;imageAspect=0;image=data:image/svg+xml,PHN2ZyB4bWxucz0iaHR0cDovL3d3dy53My5vcmcvMjAwMC9zdmciIHZpZXdCb3g9IjAgMCAzNiA0OCI+PGRlZnM+PHN0eWxlPi5jbHMtMXtmaWxsOiM1OTU5NTk7fTwvc3R5bGU+PC9kZWZzPjx0aXRsZT5wZXJzb24tcGxhY2Vob2xkZXI8L3RpdGxlPjxnIGlkPSJMYXllcl8yIiBkYXRhLW5hbWU9IkxheWVyIDIiPjxnIGlkPSJwZXJzb24tcGxhY2Vob2xkZXIiPjxwYXRoIGNsYXNzPSJjbHMtMSIgZD0iTTI0LDI0YTExLjczMywxMS43MzMsMCwwLDEsNC42NDEuOTM4LDExLjk3LDExLjk3LDAsMCwxLDYuNDIxLDYuNDIxQTExLjczNywxMS43MzcsMCwwLDEsMzYsMzZWNDhIMFYzNmExMS43MTksMTEuNzE5LDAsMCwxLC45MzgtNC42NDEsMTIuMDQ2LDEyLjA0NiwwLDAsMSwyLjU3OC0zLjg0MywxMi4xNzgsMTIuMTc4LDAsMCwxLDMuOC0yLjU3OEExMS42MzEsMTEuNjMxLDAsMCwxLDEyLDI0SDI0Wm05LDEyYTguOTYzLDguOTYzLDAsMCwwLTktOUgxMmE4LjY4Miw4LjY4MiwwLDAsMC02LjM3NSwyLjYyNUE4LjY4MSw4LjY4MSwwLDAsMCwzLDM2djlIMzNaTTMwLDEyYTExLjYzMSwxMS42MzEsMCwwLDEtLjkzOCw0LjY4OCwxMi4xNzgsMTIuMTc4LDAsMCwxLTIuNTc4LDMuOCwxMi4wMTksMTIuMDE5LDAsMCwxLTMuODQzLDIuNTc4LDEyLjA2NywxMi4wNjcsMCwwLDEtOS4zMjksMCwxMi4yMjQsMTIuMjI0LDAsMCwxLTYuMzc0LTYuMzc0QTExLjYxNCwxMS42MTQsMCwwLDEsNiwxMmExMS43MTksMTEuNzE5LDAsMCwxLC45MzgtNC42NDFBMTIuMDQ2LDEyLjA0NiwwLDAsMSw5LjUxNiwzLjUxNmExMi4xNzgsMTIuMTc4LDAsMCwxLDMuOC0yLjU3OCwxMi4wNjcsMTIuMDY3LDAsMCwxLDkuMzI5LDAsMTEuOTcsMTEuOTcsMCwwLDEsNi40MjEsNi40MjFBMTEuNzM3LDExLjczNywwLDAsMSwzMCwxMlpNMTgsMjFhOC42ODEsOC42ODEsMCwwLDAsNi4zNzUtMi42MjVBOC42ODIsOC42ODIsMCwwLDAsMjcsMTJhOC42ODUsOC42ODUsMCwwLDAtMi42MjUtNi4zNzVBOC42ODUsOC42ODUsMCwwLDAsMTgsM2E4LjY4Miw4LjY4MiwwLDAsMC02LjM3NSwyLjYyNUE4LjY4MSw4LjY4MSwwLDAsMCw5LDEyYTguNjc4LDguNjc4LDAsMCwwLDIuNjI1LDYuMzc1QTguNjc4LDguNjc4LDAsMCwwLDE4LDIxWiIvPjwvZz48L2c+PC9zdmc+;strokeColor=#053B70;strokeWidth=4;fillColor=#FFFFFF;fontColor=#595959;align=center;fontFamily=Arial;fontSize=15;fontStyle=1;spacingTop=10;" vertex="1" parent="1">
          <mxGeometry x="95.91" y="215" width="21.88" height="30" as="geometry" />
        </mxCell>
        <mxCell id="7Cv30EDc3GMNcKOpRmR3-33" value="&lt;p style=&quot;margin-top: 0pt; margin-bottom: 0pt; margin-left: 0in; direction: ltr; unicode-bidi: embed; word-break: normal; font-size: 15px;&quot;&gt;&lt;span style=&quot;font-size: 15px;&quot;&gt;On Premise Solutions&lt;/span&gt;&lt;br style=&quot;font-size: 15px;&quot;&gt;&lt;/p&gt;" style="rounded=0;whiteSpace=wrap;html=1;strokeColor=#595959;strokeWidth=2;fillColor=none;align=left;verticalAlign=top;fontSize=15;fontFamily=Helvetica;container=1;recursiveResize=0;collapsible=0;fontColor=#053B70;spacingLeft=7;fontStyle=1" vertex="1" parent="1">
          <mxGeometry x="943.99" y="170" width="240" height="70" as="geometry" />
        </mxCell>
        <mxCell id="7Cv30EDc3GMNcKOpRmR3-34" value="" style="shape=image;verticalLabelPosition=bottom;verticalAlign=top;imageAspect=0;aspect=fixed;image=data:image/png,iVBORw0KGgoAAAANSUhEUgAAAPUAAAAbCAYAAACk/8mXAAAAAXNSR0IArs4c6QAAAHhlWElmTU0AKgAAAAgABAEaAAUAAAABAAAAPgEbAAUAAAABAAAARgEoAAMAAAABAAIAAIdpAAQAAAABAAAATgAAAAAAAACWAAAAAQAAAJYAAAABAAOgAQADAAAAAQABAACgAgAEAAAAAQAAAPWgAwAEAAAAAQAAABsAAAAAzKEfVwAAAAlwSFlzAAAXEgAAFxIBZ5/SUgAAEtxJREFUeAHtmQm8l1WZx3MDUdzAXcDL4oKooCIuiICCYmppE4hmWmbGZGWOLVPmpE2NOpq5fHRoUhPNkpxKTVxyyT01cxm3cGEzU0RZVNxl+n6v/3N5OLzv/77/e68GNr/P53vfc56zvO855znPOX9Y4SOtaxWqdIeusBK8BQtqvMvzH0WdGehG4HM+vAD/B+2Rfa0Dq0OaW/t+Bf6R5pbh/r86agZWaKWjPSkfCVvDhqAT6nDPwENwLfwZ3oa2aBCNBsMa4Abxe+z/dpgKVdSDSvbTqUJlA9JsmAYvVahvlRWhJ0yAXWEtsP2V8DNoy+ZznGNgOGwJG4DB81WYCffD1TAD2tI/zQrVhLU/dAmlzrvjcT1zrYahH2wGMYAtIv8c3AO5HIdtBoD1kl4nob+0JoPcCHCOknz3bTAX4nek8vy5CYa9wbWyvn35Lb+Cv0AV6VeuzZqhsn09BlV80zXdFvTtJAP2o6APtibn0XnfB6IPOI8/B/dJQzqU2jPAQbTGvdT5BHjaNKrTaeDH5e84HtuqFTs7iHpzCvrI+4z5d6j/FPwItocy6fyfBp3+q6CzrgcjYTLcB92gER1NZRc1fk9Z+hbq+a6qc0HVUnkT+B7k73oY28EFrdwIrquBJm/zBrbLoUhrYzwJ8jYziyoX2HbE5gaM7c0PhZWhik6h0jyIfZh2Dd3oVTSeSm7gvI+bsPktrWkvKuTtH8A2prWGtXKDwrmQv38BNn2yVJ5CuS7FcDFsmheU5F0EI+BE6A06QxVtTiVvAF0LKm+JrVeBvaNMOnhfcJFvhjMh3zhGyh3ga2DU97r9cXBCnfDPwC/B9tatouup5LvWr1KZOsPB/k+D9s6HwW8sRC0icwNcFo219M48j4XVC8oaNemYVVVUt8hW1p+3CzfO2gUV3KhNBfYyU9F7h1PZYOeNojXl7c3ntqI+3EPrwscKCvXTfB2XqJZv6lMpPQSqbszYmaf7heBGrdJ+D+p5vSiSkXC7ooL3wWbkPgomQdyc65H/Jrjx58PnYSfoCW7008EN+gYMg9b0ayqMhKqnTezvS2T+A8rmK9YtSuuAu8CWWeE15A3guaNtiG1/2A2WNw3ig+OVN37/NmS6R0Mb0h4I3mzGtaFt1SYGJv2/R0EDfXQIbFJQ1myKm7oJy3ElFV/G7injletReBuKNALj8dCnqDDYnJiBsFGwxWRvMvnvkVje0Wmv2buDgSmpE4kmuLdmeJ3nf8PXwTFa35PuP+GLUE/eSkZBDBqp/vMkfguXgXPr7/4ifQrjEbBxUWErtiMpz69sruk98GDW1qCzLxjQlkc51g1KPtzNMgKq3pRKumn2Wzf1+xX0DML7lLx8BewGrX8qKW/+R6BU5qK72XKdiMHTyZc4EE/iJvDkeAly9cfgKVfUV6prFNoKuiRDwdN++hbYq5j8R5wTwQ3Qq4Z9jYBT4AnI5UJ7IqaN5+S5wTyJldfQE+FKmASO/12YDm7aejqNwqKxTsDeD7xmGf2d295goHgRcg3B4Hc2ogFU9obhjSRqMpmJ0UDaMe8DBq0VYXmTm2FncK3K5NW5qaywAbtB3Y2Vz2sDXRRWdd497FyHMnWioNKm3qWgh3uw/RCM6vGK9lfyLvx+8Ajo3OoX8EmwXbKRXEojsLS2YYdSZ/BSLasZfLdXZjf3MzWm8bwVvgUurN8Y5WSuCU6ocrydwQlUbu6rYQHYjyerm8BNZt/1ZABbKatgX/8DCzO7c+speTA8Dmnezyb9GchPVkyl8vs84Q/IajxF/i7IA0d/bOOgNyyP0oe7tvLhm1PumrU3aK1MH86V89uR8hTeEQxQZfLdg8CxLKU4sKLJeIEWi5ZqtdhwN8kj4AH4ChwNT0JyRJJLaVUsXq2d2KTXSOjcMRBY7mboBh0tv/GUgk49pdN3vUN6NmxTq+e3/QmOA0+D7cHJPRbOh3pKp3+sM4uM7yjTjRQ4p87xePg2GKAakcFrH8gDym+w/SzryPXfDw4NdtfRIHN/sC3LyS/wcWn9/M4U3OM8uxbOSQ8rtFPeBMfCsHb2E5t3J7NvNJB2HC9mNg+cQzJbczZuak+iXKMxFJ0ysd4fyTioc2FeLChJ74p9S4iOfif568AgErU1mS2ioYPSb9GPzvpm1p/zsWbNNofnmXAOdIErYCa8BF+C3eBA6AM3Qj0VBcbP0WBDiGuQ92G/w+FyMOg1otWoPBIGZo1uIH8lvBPsnuhe574dbCanwqXgXC3rci77g86e9CyJiZAHwzHYeqZK7XwOpf04WKud/djcQ8LvGgFJbmjXIT+E3D/631KKDuXmzLUqht+Di70uxPpkW/QGqSLHbakQEruTbgp5k75bx51mJmhn0kNCvqOSOnEncGKiHMOrNYMb/lZwA1wP2v0+N4PfqxP9AEaB46+nxyi07yid7174d/B08ZuK9DbGvG1Rvdz2RQyeIrFfx3Qb3AlRI8h8HqJjOt7fgSd6ftJjarP8njLsNH5vIy8ZTeUUkFM7g+KvwEAc1YeMm2eVaKyQNrC+ltWzDzfXpzN7W7LO/y5gQE7yndeCa6EvJLkX+4H/XrKE4ia9gJIYvVPFriS+B8/BVeAG7wuNTghNmp3G0zdeqV8hPxWmwCNgZEpag4TRd6Nk6KDnevTzUYjjt2vHP8dETS/zPB2Ogr1B51gABrq3wN81s6A1fY0KLk4undD59CT0JnACNIERu63OTdPmPgbzNFhEXULmomggvTHsD544SV67r4PvQD5HqU4jT8fiGv4vPFwH1/8yaHTsfuOR0B2iJpPxp8MMeBOiPkamdzRUSPv9BorZWd1NyHvTGZbZG82uSwP9Mkp/88Bz/90eC0i7Bw/JbEtlv4XFU8FFrYcbT0c8BzxNPdGr6AAqOTGx76vJ71BrfCxP+43ld5EfXSsvehyE0Y0Y2zxD/piCyjqLE/cNeB1iG8f9MHSBMtm+rRvuDNp6osd3FqX9jr/AueC8dIZGdRoNdOLYv04xIetoJfLOucEs1v0D+ZGgDFzXQCx3HDpakdbGeBLE+u1N628GHee+SE0Yp0F8j/kBoMbC0xDL9bM9oEzjKXgUYps7yetvZ2d26xjk/wsM1GovyNsbYPa2sECdsO0L9pPeafpWcJ1WB3/2pTKf+sp0WCLwLpGh8GRw4V20erKdkdeXuOlug09AV6inXSnskVW4j/yMms30E7V0eujYO4EDqyondgycAN+FE+E0uAFmwamQB6K52C4BN3uZnMi0AcrqlNn/hYLj4ZWyCjW7gcPI7/XZ+bgZdJB6wYbiFjnu3UAnifopmUnRQHocfAXi3L5A3k38e1hedCAfGn86+N1TIF273RgvagzSf/tB1XlNTe3nYrg2GWpPT8394LOZvWp2HSoauOwn6VUSN4FBTb+8BdzoSfrKxjAqGeo9e1J4Jtip0UBnrsL51NsUiuTLdRY/MPWlA+lYfpzqDGfB25Dq+JwEZf0eRNmcrH5sWyXt+24Bo+H7LcdxBsyHRub2R9TPAyKmJaRD/Bjyfu/Bll/rtsU2GeL8uDYXQjwRl/WT2uB1P0S/cj0NbDFYXUrejRHH68Z0HopUdlKnDXQkjZ6F2J9pDzjfPRoaOan9jvwWOw3bQEjqRsI9FN/5DnkPoxat2JJaMvEM2a+C0c/Icx7MBZ2lnj5H4fGwaUElB9kX4judgMfBj1ReGZ+E2WaCtiO9fch3ZNJ33ghjYWFHdlzS10zsx8HacAQYxJ4HnbKeXA/rr1+n0gTKPKlTkLSq/f4GdOAkg5fjNaBGXU/mdNBROlpuNNf6zyVMxS7OTyPqR+XuEP3KzeCJGuf0MvKzIGoIGQ+btuhyGl0M+Z6wz8PA9a0qbwsDYJvQwBPZ+Xgo2F4n7VpGrUTGgL1qMsaJSLb4dFImwdHgxA2Gb8Aj4CIV6QiMQ2G1rLBoAu3HYNG1hs7mwj8FUQ54R/Ak7wgZRJw0J8yN4D8UzYEPSimIXcQL3awbwSD4MjwGZXN7EmW7QNG6bYB9GPSCqF+QuQLSO93wnwXfFTWDzDXg++0/YX3JlWypXtE3pTa++znYqg79KZNxkL6VZKsq2kC/pZXr66GUeJT0fIjy5HMjWadRLaCBgeLKrKE+OgYOhxhUsmpLZN1buy5hee9n2t3Y1oQ0hlVJ3w+5f1h+ALRbu9PDHfAmuAiRieQ3haQtSNwCsY7pRTUcfEJbXs/8L8F+ch2EwQ0Z2/iz4S7wO34C58HJ8G/wr3AYuJGWVRl5HwQXL47L9LGwNuTyhHXcsb4Bc0JW0aDg5o31TNvWG9qsjOfJe0LE+q6Rt5qZYP0ZcAUov+0kyOtbt4oGUyn3AX1jKKycdeAh8ATk9c1L8imfeZ30fXdSNgRyjcdgIEj1fFp3FCQZ2PS/JyHW813ui3ze3JB7Q5R97ARPQ+zDdD6GsnFYbwo0K58kjSNAh3cT2UmZbqPg42BnLoTXgKTNSKyRMjz3gqaQT0kHpNLzvVzx3x0w7wxTi4uXsM4jNxnOWsL6988czifMhpvBk6RMbjqjtE8dLs7PduSvhvmQ5EZ1DXTyKIOa8xC1PpkNo6GWtm3evqBas8nvWQ161SroJwaED1qe7H5znB+/IeXTU1uZtqWgaD7K6ke7G0//199PAH/fK9+b0s2GOn+8pXpb6FNQx36qjME6I8Cbx9wV+ZO0AYmfgw73UxgAsZzsUnoJy32wMCtxQKmtgcPfwzpTe9SHxvZT1fHa866ObusNw3k9H3SCJkjzQ7JQnrIvw6KsdE3yucMciW23rN5j5O8FA9yHVf/MwIpuLY2M103lYaH/t0Wv0uhy8BBsi9wXu7elYdamC/nx2txwvWAsfB+8s6vOcBXsC49D7liYWuSpvkpL7r2EzujVUQ0EI6ovTfKUegXKTisjoCe9Ex4jVV/ym8MDsLzoVD70GHBOk64nMQa8ttWbW+c1jp9s8//HOr9JR5EYDvGmZNmF4G/LD6vczHuCN4YkbwzPgb6nDxVpHYwGxjhfHyV/HcyGtsjb42Tw1JeqMrC7//SFqDfIPA9lvmE7f4fH27B+chic56a2oZ2kDU2yWZvy9y74DkwCN2GcKNvqrMMgbliyzb8H55lAo6Fnc2rxn0tI6uw6dZmOpuB4MGgkecUcCsvTpjZw5adyU20MXtkugAUQ59b5dH4GQd7Wm9FsUC7qXtDHTNCvSd8M7wZbSnqCnw1VTybnX6fztpH0DgmDvX6hH/jtf4UPUkN4mfMU9RCZT8L0aMzSB5I/GeJ4TDtON0ZcB7KV5XxfBD+A/LswFWotrANhvVD6GmmDcfOpG+wx2ZnM4fDjaCTtnPR2QZ6Fc8HTejhEGdF0gO/D7+AZcEGNkqOgF8SIR7b5yngHT6/mBoodYF2IepBMa07gxtUB46bWEY2ERtt5sDzIjbsPbAdxg7rwp4MOdgPMAjfhhrAnOMe5jN7ydq3AgGtdnTHpdRLXgXNcpCcxSlUNouLmEDeB3zkVfgh/DzmPXwY3RdRFZPS7erqTwtkQx6Of6vv3wAxoi9yMV4D9fqFiB671yKyufq0/1JPrfyO4F93DSfrBpzSkyLQ/aQfVH3K5uY2AVXQWle4HX7wb9INOkGSEd7MuTIaSp324sR103Aybkd8aboflRcP40IegL8Sx+P2rgNe/Kvo6lf4ArtlWsCPkm/8cbFdBWleSHzp5SBgkO4eReZN0M8SfJqG4JfkCqafBuevSYn3vkHJTzgi2RpPTaeDva7/NU7OeVqKwN8RN7ZrNhmuhnrxdW8/bwV5ZxUOjgzkpDvQaaItD2OYMmAi+UI2CHs2pxX9uIjltcbY09QYlT4EnU9T2ZHaPhuUg7ek5EDxBja6NypNxArhZ7Ut9EwyaUTPI3Atp/mPZhyntRuiSDcig6WlZRVOoNCur2Id8T4gnX1alUvYOal0A7qd66kahvrxGqLSQtONo7RZrE3/WTTaRaYu4qS2zU/9x7GB4HKpu7gepOxa+C+mDvBr50etAks7pR1d1Ovt9JDWuPb01bAkbZPZlPetmdG7HgbcQ56KKDLI7gY7ycq3BeJ47gqd81FlkpkRDB6VXaGc/jbQvqhttbrpjQP+K+gmZF6OhTtqNlx8Wnpx7QL/QLr5Xc54PVVuSb5JyDc5vsSxO2D710YP06MVFzSl/Ovgzt4o8HG6EpfwovaCsEzfPYNgc1gM3lJ0tBK8xT8EfwZPX63aU18IBYJskHdtNWnXydVrf3QuibP8ELAB/c3sV7QRJnvLTYUYyLINPTwaDnk7kddKIbfR1bg16ju9umAt5cO2PzTZRrovrMScaOyDdlT6aoBuk7/CpAz4Oudx0m0ATLIIknd1bRGtyHgYVVPIw8PSzf+ctrrff8yfQv6pIv9dnukMakzbn/mmYD/q7frc6WMdy/W0mWN6a7Nu1jd9p/9NhHqwD7i/Hk2S5c1p1HB7K20H6RpIfWeFv20vjbBgC+VsAAAAASUVORK5CYII=;strokeColor=#053B70;" vertex="1" parent="7Cv30EDc3GMNcKOpRmR3-33">
          <mxGeometry x="10" y="40" width="117.98" height="13" as="geometry" />
        </mxCell>
        <mxCell id="7Cv30EDc3GMNcKOpRmR3-35" style="rounded=0;orthogonalLoop=1;jettySize=auto;html=1;fontSize=12;fontColor=#808080;startArrow=none;startFill=0;endArrow=block;endFill=1;strokeWidth=2;strokeColor=#595959;edgeStyle=orthogonalEdgeStyle;" edge="1" parent="7Cv30EDc3GMNcKOpRmR3-33" source="7Cv30EDc3GMNcKOpRmR3-49">
          <mxGeometry relative="1" as="geometry">
            <mxPoint x="-9" y="28" as="targetPoint" />
            <mxPoint x="-109" y="90" as="sourcePoint" />
            <Array as="points">
              <mxPoint x="-102" y="28" />
            </Array>
          </mxGeometry>
        </mxCell>
        <mxCell id="7Cv30EDc3GMNcKOpRmR3-36" style="rounded=0;orthogonalLoop=1;jettySize=auto;html=1;fontSize=12;fontColor=#808080;startArrow=none;startFill=0;endArrow=block;endFill=1;strokeWidth=2;strokeColor=#595959;entryX=0;entryY=0.5;entryDx=0;entryDy=0;exitX=0.903;exitY=0.5;exitDx=0;exitDy=0;exitPerimeter=0;" edge="1" parent="1" source="7Cv30EDc3GMNcKOpRmR3-3" target="7Cv30EDc3GMNcKOpRmR3-49">
          <mxGeometry relative="1" as="geometry">
            <mxPoint x="944.99" y="505" as="targetPoint" />
            <mxPoint x="703.99" y="330" as="sourcePoint" />
          </mxGeometry>
        </mxCell>
        <mxCell id="7Cv30EDc3GMNcKOpRmR3-37" value="&lt;p style=&quot;margin-top: 0pt; margin-bottom: 0pt; margin-left: 0in; direction: ltr; unicode-bidi: embed; word-break: normal; font-size: 15px;&quot;&gt;&lt;span style=&quot;font-size: 15px;&quot;&gt;SAP Cloud Solutions&lt;/span&gt;&lt;br style=&quot;font-size: 15px;&quot;&gt;&lt;/p&gt;" style="rounded=0;whiteSpace=wrap;html=1;strokeColor=#595959;strokeWidth=2;fillColor=none;align=left;verticalAlign=top;fontSize=15;fontFamily=Helvetica;container=1;recursiveResize=0;collapsible=0;fontColor=#053B70;spacingLeft=7;fontStyle=1" vertex="1" parent="1">
          <mxGeometry x="943.99" y="255" width="252.23999999999998" height="205" as="geometry" />
        </mxCell>
        <mxCell id="7Cv30EDc3GMNcKOpRmR3-38" value="" style="group" vertex="1" connectable="0" parent="7Cv30EDc3GMNcKOpRmR3-37">
          <mxGeometry x="16.01" y="45" width="210.54" height="85" as="geometry" />
        </mxCell>
        <mxCell id="7Cv30EDc3GMNcKOpRmR3-39" value="" style="shape=image;verticalLabelPosition=bottom;verticalAlign=top;imageAspect=0;aspect=fixed;image=data:image/png,iVBORw0KGgoAAAANSUhEUgAAAVsAAAAbCAYAAADS4Cw1AAAAAXNSR0IArs4c6QAAAHhlWElmTU0AKgAAAAgABAEaAAUAAAABAAAAPgEbAAUAAAABAAAARgEoAAMAAAABAAIAAIdpAAQAAAABAAAATgAAAAAAAACWAAAAAQAAAJYAAAABAAOgAQADAAAAAQABAACgAgAEAAAAAQAAAVugAwAEAAAAAQAAABsAAAAA9vioMgAAAAlwSFlzAAAXEgAAFxIBZ5/SUgAAGfxJREFUeAHtmwm0VcWVhjUIqDiAggwig6Ao4IgjEhnVJDhHjWM0kpjYJt3tUpOo7RA1nZWYXul0YtIxmkaJxoF2HqLG4DzggOKsKA9RcEJxVkTt73t9CzfFufee+3gQJPnX+jhV++w6p07Vrl11n8sVV6ivtrisDatBG5gHb8Fc+Bj+XtSOD+0Kq8A78BJ8AoujlWi8FnQAn/8hvA1/b2PLJ/9Dy+gIuO47gXHvev8A5oCx+in8QyVHYMU6fqO4PxIGQ3doDyaDF+Bh+DM8Dh9BSzSQRtuAk5n0PoVJ8FQy1Ln24L79Wx3qTb4bxSvQVLlyqasv4OG3HwaOhRuP3++3j4d3oSXakUaOr303iZtwHdtZ4NjeCI+CfW4tOc6+bx1IY2UMNMET8B5EubluCM5T8k/3X6TwAMxPhsrVNuvCEIjx5QY1FdykaslFPQbc5JN890y4PxlKXMfhY0wkOY/3gH02UdST/dgaOgdHv8e5d6w8cNSS7R3rXpDGzmT1JJSNbcfRmOsCPsP3O0ePwF2wJGWc7wmuz/XBQ4Gx+AY8DXfD9WDMpu+juJDWozYIVg1W4+VecB1WaxfcP3dF58j1PAziYcz4K9RBWJtAZwekFgbvfrAaNKqf0sBTXP78k7DFhVLruXtx08nPn1GrbtDPgP8GB6WaVubGV+AhOBVMOgb+ULCtC2cTaET74OxiKzO2U/A7EMqOBa41dTR3Z0Mcm9epHwUGSa7hGG6H6J/KE7EX9csk8/WCNtOw7Qb11AMHF3R6j1fn6zwoq61wNBnGZ1j+K5jAyshEcQfkz3C8vgYrQS315OYfIbZ3Yz6+VqNwz03LdWVyjc9wo/hfMDaXhPryUOc2vrNa+U38fgwm5qL4OQB7E8T2fo9ryu9bHmVc+H3xm5vLRdn2fBwnQG8oGkDMC2lLahfDOeAOWKYNbisYzJvBmlYyeaLYILO1ZtXv7gXfhmvhXOgGUQ7a5nAi/AvcAg7iIdAPToCT4TLwxFhGv8bJsfK0WGacfP8F4JwMAPvdUg2h4a6Qf+dV2K4DAyLK+XfTrbYZ5f6xbdG9IltsE8tFvkW22CaW3aDaRUOl7Lc47/USZWpa9E7n2rjZIjktoWt3nrstuHlF+V2usyXx/sN57jT4KpTRGji5Dm4ADyJFCTQfQ+u5DdNypcLvyxfvT/hkk0mZRJCPjru9O/kmkD8397X+RehddAPbNmByWRoyYFycnlTdoZPWobA7XAKPgInWIOwJ+psEr4Sr4Riop+Nw8ARZZmzyZ+2J4X9g0xa2N7mYOLeDqKeomGynRyNlT03Op20+bzJ2nbeiZNsW+xgoOpFjLq2ReBoL+cZV+gElHPvgM6KKn4l45yr3Wmr+Vxp66GhJfA6hnfHZB1qSO2i2/CsOrInv2Cqf/DZ2d69LYSp8BEXaHuNpsH7RzWBzQnaA9YItFrtS8VS3djQuwbLJZSj8c3jHGpT9e5MJ1f5+ADfCMXAKbAifwkUwFmrJ07ttivQWxuvBE+9kmAdFcmxPh/5FN+vY7N9IWDX4fULZn6M3B1sq6j8Oon+6t6xfd6KDPaDaot+Dex1b4SO+yTNGgRtZa8uNwvhycy1SZ4zGqzG6uHKcRsAvajxoJvcmwf0wv4qfv0aPhKW1Zqt0Y9k1fyF07euUiwLHBe5p7suwH2wGveEMeB1yGSSeCtvkN0J9I8qDoUOw5UUnT7+WyH6dCeuCPxvFDcDT9MkwBXIZwGPAvivHYjV41Qoy8Xja8ySYftqbGOfAWlBLnhCLvvXn2O3bWNgftgVPLT+Al8BkHtWfiv2zb2Vl8PvsfOHeis0k/yZE+fP0UHAeP486mE57gq2mLbnht7Wr5lDS7rh+E4aU9G/EzUOIm2u1eXZtuSb1WVz5Z4pzqjzkXuzGg+vdjcU12RXOgw8hl+PRB2qt/bzN3009JtuiiXMnM2l5+ooLfzb1k2AXmAofg5oI/uS9G5KN4iIajsUkU0suioG1HGrc+4R7JpFZMLPCdK53wOlg8rsMotzhTbgGl7L/70M6BRlcD8LD4PefBo6fP0nnQi1tV3DzSWz2xX7GsXWj+BmMhrvgI1COracybfOhrPzWHSDO9TvUPdU6T1FrUdHf5P95lInDmGxTo/POsweHNWv4lL01EsevQveyDUr69cHvi3V8u3HfU/ziyHHyANWv4CHGxjB4CPL4PAyb6ydPuI7pV6A1xpbHLF+KO+dqBZ/2KjYTVzWZjA+F38OfYDyYLGrJU4c/gfypl/QBBZNbe0h9csI2B/1Mmq2paTzsAjCp+M6klSmsW6m8zfVpcGFeDvbPdr+BHWEcnA+7w01QSybkXCboWmP7OPcPh/FgovVab2xxWUiDqdm/9RayrrDCFdTts9+UZBLaHw6BmJhnUH8XWrrx0XSpaTfe1BH8liTHTFv8JhOC82h8L66co0fBeIrj2dLnrkrDQTAgPGAeZdeIazR9RyfK28A68Aq0RCZbT6NFOghjrU39BO67DlyfcbxHUZ8AjcYqTRZoE0om+m1hU/BbfZ4HnSlwMzwBcROg2qwO/Gs7f3Gk9WX/muCvkPerJ7ZdwBhJMt59jyf7XM6PfdsD/H7f9xxMgsvAnFFXN+Jh5yOe7Oy4k1JLJqkUBLX8vOdPkbshvuce6hfCs5ndjx0DtbQXN/3A+DwX0Ym1GnHPgTKJx3YvUj8aVDsYDfZ1K/gSmHjdDAzyE+CL8Ax4yqili7kZ32PZQB4JaXOhWKj2WMuObXyAAXYmzIX4bgPD01iunTDk8/Iatp/DzyA+w/KlULSJrIL9kAJ/x8lkWE89cHBBxPd9TH081NM1OOgb246jPhs+yez7ULev1bQeN26H+Kxq5Un4Dc0e5CL+Y9beRXx85pdXB2K4COK7nqT+W5iW2R3T/aAlMj7sYz4uvndiyQf6fe+BJ9wr4PvQF1K+OIDydIjf4hi4jpIPxQUyybppvQmxTV72GRNgU8jVFcMvIW9zA7aNc2fq5oF8XI0X13eU49UbLoaiMfN9HtBOA9dS/v5P4yK+D4dcJtGbwcTVGaI/1QVy17UDZTQKp16Z413UDbCmzO5gDoJq783cS1cdOJNpvthcqO9UnjKP62Q4G84DA3MSOIjTwWD5AxwOL0Et3Vlw0/bXg4msDxQFH+bmQC47tvonGdCjYc1kqFwNllsz2/rUD4Xtgt13Xgnjg601io59NZxn77VEa9NoOMRYcdFcDbeBCSFqLBX/bNKI5uPsgjI2okZQ2RvqbbqxTbWyc7FDdnMm9UvAdRJlYnFht0SO0xZQNN5upGX0K5wcxy6wFxjLrg3XUaPanQYT4EBYo07jVbl/MJwPe9bxba3b5iyTuJtb0Zj5Hn95HA9nWMnlgCedS+GjVAnXDpR/BLPAk4OJtz+0hUblIG0LBkmSidoj+43gDmNAJ5ns/dutAdia6sTDNoeO2UPtiws0yYXl7u3Emoia4A24B9rDCLgd6smgSEk8+vqMo8HvvgNOhS1A++LIE6dBOzh7iEn/Ongt2B1jE+1ewWbR7xoPs6FacHGrtAzWX8MjNZjKPTf3eosNl0W0L5Z887wWmyevy8HTUNQuVDpDI9/mBnQOPAi5HEM3uDb5jQbqxuOm0DO0mUv5YbgXnL8oF/dm0DcaS5Zd+72r+N5fxZ6b7dMkeAs+zW82UHdzOQH8llw+13Ever7+x8BIWJJyXlwfe5R4yUr4bFPk54AnPUfhJCj6KH1MrgbTGfAUzAR3tmGwCpSRCcvAiAF5H/VnwET3APjcqCFUBkXDYpRdWJ3AhXlc9hy/28B2wUe5AU2Bb0EPWAs2gH+DF6GMfO53oNrYOh6OzSlgoLuxnQ3+7DZxNqqDaDAUnLMkx/cimJwMlatjob8bYZJzcCHcDjFG0v2WXNvRyITrXNZiAPcdj0b1dRrkfb0Um9/9F3gT4vh3p741mLDKyuffCReDYxRl4rYPzmNLtT4Nd8gaG2NuxG4aj8GzkGQ8e3AZnQwNXG3bu8DfMXKDXVpysz8SNi944U3Y9ofBsB/cAvMhyvyzDzj+S0rGymFVHv4u9ivhd/BCFZ9mcx6cP8X6bTBAa8l2TvJ34Ta4CxyUeolhBD7rQpRtmyqGe7hOq5TTZSMKDraLtaxMHKPgZDCBnQpnwp9hOvwW1oEoE6IL6floDGWD8BNwsr02qgto8FXIF33+HMfWhP4tcBJN9N+BTlBG/XHyPW5qUT5rEnwYjNtSPgT6BZv3L4E/BduyXuxNB7cCE0iS8+wJ1Pl6DYytPK7HYlsbGpHzcw7cCHEsfcYIcOG7NoyXRuU8bBca+Qzj0WSrZsFtzaXP/ulCcSewX43IsSpar45X/l2NPLdRX/vuab591nAC9e+BsfgETIRxcAXkGoZBloTs14ZgDopynO4D7XuCG8YGcCC4xhdR0QT9Hi8b/SeYtesFjZO2Obg4z4LeUCR3nq0hBredegBeAfUYPAnzrFTUhuuWMCAZSlxTsv0RvqfCKXAs7AxrQlyUVJsXpCfaX1pZgrqcZ/eBn8BcqJe07acL0M3hXDCR5n3HtJC+RW3IQpb/P6kYrI5vkvNwOIxOhsr1Bq7nw9uZfVmuumGslHXQ730/2Bz7/JtGYOsGResAc1W9wx1j/e4CD/uyG+T9KXBdyGSCNs7daJNep+CG8VrF8BLXWyGuyVWobwwD4fOo7el0j6zjfu9V8FRmf4769TA9s5uvBmW21qquxoMGg3koag6V06GpYnRO3MwnwhEV20KXakH2Al5Hg4npMDCwnPh6ycFAswN9INeOGHpDfOdk6g5geu7HlKfA8xC1BZUlNZgmdgP4u9AES1om2ROhE+wB/w4zwJ2ylvbipkm6Xw2nkdwbAz47agKVO4JhRcrjYG+I82Ey1ncqtLY+4oEvggtI3FSLmIbdOGhEB+HsN0VdSeXDYLiJsgskxZq3OsJQMM4bke8yTh0r+xvlJnYg+Nz4ruhTVO6PcVh2w3VwW7D5pwTH7ulgs9gFvpTZ6lVNDm8WOK2ErX2BfUmYjL11wYQW9QiVmdEQysbos6Fu0Q3H56xhpZXVgec5N1HOq7F0azRWyo5rvqk334oLraBdc9Cfzw0TkSfTLeH74GKcB0Uy0HYEOxk1gkqPaKB8P9hpB3t1sI2DOR2i+lLZDPJJiT6NlB0Q++93fA/2hEdhaesaXngi+H294ShwccUTGdUF2ofSaCgKKk/zh0N+wnkA23XgqShpVwpfA+c06V0KF8O1YFxETC65tOkTr7lPrM+gciR4ChP7mTMI20h4C8pqCxw3ypxN4i5W48WEKi4Qx8LTR9RYKnEc4r165Qtx8KRlEozyG/aGrtFYo+wYejrzW5KM0dngt7gZJJynuyFqLSqjoF001in7/KKEZl9MXGWlf0u1Cg3dnPJ+uynPrfLQl7HPKbhn7hC/qzXVhoetnj3Qw8Ar0EicNvRTx494uMKZXIeCp7LtIO6Edm5n8CT1HKjeYLLMk8QPsUk+QEUTuDl+Ls7JUE8f4ODu+CDYH0+N7jbvwEdgENs/d8j83ZiWuuzDLPhNBRfdKbATrApRju1fIZ9ok+f2sDIk+a3nw/3JwLUb7A9bBpvFtvBd+CbE8Teh5sGGqfn/FHqUq33X37E+HtKcUyxUrfH2nkmxEX2jwHkAtukFdvsZv00X47gX6G+cNCLj7CxYH0zaUbtRyd8V78dyTypbgckiybZfhqZkCNf8ue241xeGwN3Br1bRcZ5RxWFb7M9UuRfNJuVTwMR4G9wDb0CZXybOtbFl3OXf4zqNv0qoLpAxXTRP7bEb+25GranUx/hMx84+NqSVCryHY3PyL4Jag3YX9/cGT0IGSnyWwRcDZyR1JyYf1FRPV1yqygS0KZRJtg7ElfBjWJbk2LrpmFSLAib1dQqFA+EKsI2LKakPhTwBO1/694Woq6lMghiAnvbi3CR/37FOqpS4eirxvUmeklw4S1v7FrzQeCoTUzZ1gTrGbs6vQKPyZ/0EcOwHhsYu/rIagOMOBc5lv8GmneEr0EiyfciGBXIz/mOBPTd9CYPj3xGOrdz0AHMAGMO15LeZX+bBpxC/1Rh1XopknBbFmRufLAnZvygTsH1sSDZKcqFdAC7Oc2ETiPepLqLXsdwJJrcoByS19bojdIsOLSj7k2xzWLsFbf/WTRxbNy/H9pcwEjxx19J73PS0GBOl/ia5vO0R2EziacwpNv/U8p2PWVlO5Tgublw5NJ4gu1hooSbSzo0x/7VR5nEmjo1gUBnnGj6duDccijbSomYmkJdhcsHNsdj6FdijyVg7DFLSMVmmhOk41DqocbtZ7/PvHMhPsT2wrdHsseg/rqW1FjU356C3sac+FLi0yORmYJ6Lcv3Zj2p9jL4Lyg6YP6GOgSbwdGRn3ZWvAnfquICpLiJPNybXKD86ndxSIMUg8KfAazC7CrOw+wyP61EmlE2j4XNQNhE+D/7MT4FwCWVPMnnSxLSQ/DWQj63jZgAkDaXg4siTxQRsnnLyMcS03Mg/eeQygUyH56rwIvYUmxSb5Sa+ARj3LZGJ5XdwQwsa96HN1mDSTXJ9vArxG/ymyEvUTZhJxpLxMiwZSlzt9x+q+F2APf5azd2OxOBazH2uwTY3d65St/9NkG9Sg7GZV4o0CGO/7IaHvZmQH/qim+OT91WbfyKTavK07PqNMieuDSOiMZTzNdt8y5e7GH3gKs2Wz/5Zj+JdcDI4ISa/OLm2/ScYBatC1MNU3qwYRnPtHm9SvhJOgccze6weRuVE6B+Mnrad4EnBtqwX3VDyRdwR283wH/ALeAXi2DpZR8Eu0AGiHqTyRsWg3xHghhbladYxfiEaK+U5XM+HeyC+s3J7kYvvHw47ZnceoT4R0qlkFmW/dWnJ+Nu94GX2cxp8UnBPk4vE+HFBp83PZ42E+8Bk3BI9TyPHdX0Y0sADBuC7XeZvP46FuzN7rG5DZQJsGIx+265QNumbbC+Ef4M8ufl3W2P0GzAdUqw4ZuPgx7AGRHlSNSZej8Y65Tu4vwd4UkyyrO1ReDoZufaGMdA32Cw+CVMrNvuZ+loxNV968e9WYNyqznAwHAfx3VQX0jvUXE+5PF3b9k5wTam2YL4720oug8zgOgv2heEQtToVk8Fp4AS+APNhTRgFfrzPiLJzN4EJpD0Y/PnH2EGfVUsG3FPQPzj5Xk8hBka99qHZ37R4NW8fD4dBlOP2A3DCboVp4ImmE4yArvAFiHqbyp/BsVX7gCfbuNmZZM4Bk3KR3sB4WdGNKrYu2N2Incco58bYsE9R+aYd77VmeU8etlr2QONqBjgG1eTCuBdcsLH9ztTPA9dDS3UtDQdDH1gb6smxGgQxYbq+jIUHoJZe5uYtENua/HYA350SAMWacr1+B64p8HLOnwWTvknPmB0B3SGPTUzNSca48BvK6hYcXet+R4zjQ6h3ht/B4+CB4igYBVFuGLfA7RWjCd9vyrUBhp+Cee5D2BJ6QT35vCcqbByc21LeHpynq8Bvdu53grpaHY9HIe0MLb2eyTO6V962Ldcp2TObqJv968mJ/TnMg9gXP25XSNqLgoEQfV6l7ql4WZGB6Skh9rHRsgnkDOgKyiR4AzjJ8Vku+M2gteR7nNP4DsuXgjGTywTiQsn9n8G2W+5cUO+BzZNRbO+CGg9RJofoY/lIMG7qyZiZCbG977DfacGvR9kFHH3cDF2sK0I1dePGeHC+YlvL78LxkLQJhYkQ/ZqoHwX1ZD8PBvsd2/td+0GjOokG8TmNlv2l1A/i2BxAfXr2XMfgy9AGkkxSk6BozOr14zrabZUexNX3Gwe+p15b3/chmFCj72zqJ0CSB6DjIPrUKn9Q5Bt3J08oJsdrK45cGpIvPws87dhZNQa6N5c+++dWis9/Vq1aMok8BNMzj4HUTSZxUjOXZa7qpO4MZ4PlRuWCMuH9Gl6uND6C66YQg/Yt6uPBk8DyrDX5uLHZBxp/V4NjVU934JASevJ1LRivaTNL9kavL9FgPNxZouHG+Ljmoox3+1dP7+HwBHjQiDIxxMNIvFerfDo3TfKOY6OyvyZ++96S9h7y3IRuh0bWxyT8fwL3Q5Lv90Dms+pJP9vPrOP4Bvcvgcvr+Nl3c5vJfhHFZOtNdwMnan9wwZYduEfwPRB+CLNArQ7DoLOVinyeE5N8kr3a1cF4Mru5MnWT7QaZfVmvmgS+DTvCX6BMUsCtedHuwfVH4EJW/illb+hmJegCypPBE9iSVq3Nruheka1aH4t8o23fgoY3YnN8ysTsq/jdB8Z71Cgqjml6V7omn7ye7Pn1FgwuzrQx5vetrwnGcU8rFc3j+hSYfMroFZwmZY4dqG8FvTJ7mepvcBoA/iwuozk4uebHwjQoSpT5mFnPbZia/xvC/lxNfvXyw2x83BwOhaKk6tz+F3hYK5Lz7vx8A26GNhBV1McZOBwFv4Ki9TUfuzE4DAo32qKPxneBNqLkxJnY1gH/JmSSsLNOtAPsruI174C+m4DXJI/sD4OTVEYOgn3IA2cuNt/5KngSMUA6QJJB6+Dos6zKfm8Djq0L3P6bKN4Hx/ZZuA8MvDwxOx49oC0k2fZJcGwtt5Z8R09YL3ugY/805H1zA3eDdU6iPqDiN3mirKV23DTmVgpOfo9jYiJSA6ELpO80jqfDzGCjWFOOn+MYx9AGaQy1G3sxfn2f91+DeloVhz7gWCQ5Vp587Ocq0BtcV0nG7QsVkq3W1TGyfb/MyXVm7Ncb66zZQlVPyEPBMegOq4H9ewfs/1Rw7fuuanKO+kL74GBCfhxcw2n+wu3m4ur86xx78neeHCvjxyT7GHiifwvqaS0choB5qCP4jOcg5SyKzZvehlxXtlKRucx151zlSvHt2nVdWHfNOR72S7UB7y8UW/8HbNVYrLpfTkQAAAAASUVORK5CYII=;strokeColor=#053B70;" vertex="1" parent="7Cv30EDc3GMNcKOpRmR3-38">
          <mxGeometry x="3.335740683532864e-14" width="165.96625867173407" height="12.910182062011701" as="geometry" />
        </mxCell>
        <mxCell id="7Cv30EDc3GMNcKOpRmR3-40" value="" style="shape=image;verticalLabelPosition=bottom;verticalAlign=top;imageAspect=0;aspect=fixed;image=data:image/png,iVBORw0KGgoAAAANSUhEUgAAAYkAAAAvCAYAAAAW7zb6AAAAAXNSR0IArs4c6QAAAHhlWElmTU0AKgAAAAgABAEaAAUAAAABAAAAPgEbAAUAAAABAAAARgEoAAMAAAABAAIAAIdpAAQAAAABAAAATgAAAAAAAACWAAAAAQAAAJYAAAABAAOgAQADAAAAAQABAACgAgAEAAAAAQAAAYmgAwAEAAAAAQAAAC8AAAAAhv4R0gAAAAlwSFlzAAAXEgAAFxIBZ5/SUgAAIXlJREFUeAHtmwnYXsPZxwkiJJYQguwREUtoaglSTWJXVWttkVpq6WLpglpqKVW1VD+Uiy6WFrXEVlWtPbHF0hQJsSayiC0VsRN83+8X7+S6jfM87/M8ebN8cv7X9XNm5szMmbnnnnvOed5YaKFSpQVKC5QWKC1QWqCCBRauUF4WlxYoLVBaoLTA3LfAojxyNVgXekFHaAP/C+/AZBgD/4HXoUhLU/gV6AvdYBkw1s+AqTAORsMT8DGUKi1QWqC0QGmB+dwCKzG+I+BJ+Ag8FCrxKfemwbXwdWjVhIfCheDhYZ1K7S33cJgEp0InKFVaoLRAaYHSAvOhBRZhTHvD42DgrhbYi+75ZXAZnAkvNdD+E9r4dXIYlL8sYYRSpQVKC5QWmF8s4M9ABvdXoegAqLXMrwaDfa31i+q9R/srYSkoVVqgtEBpgdIC89gCBuPfwRtQFLTnRZk/c90CS8AslZ8Xs0xRJkoLlBYoLTBXLOBPTCfAweAfpnO9TcEouAv847J/Y7BNTxgAmzWluRTKA8avk7thBDwNH8JysBYMgo1hWcjlQeHPVwflN8p8aYHSAqUFSgvMHQtsy2P8A3X+x2X/9dHfwPv+FNUKci1GQR/4NbwM+ReHXyYXg/+6aXHI5YdBW+gPfwYPj7wPf3raFUqVFigtUFqgtMBctoAB+kZ4H2JwNjAb+LtBLb/wLEk9/+DtP4dN/bxI+kio5e8KPsMvix/Bu5D68Orh9QwUHTIUlyotUFqgtEBpgTllgV3o+AWIQdk/Op8NXaEetabynuDPSRPhJ+D/U1GP/GI5CuJ4TDumfaBmeWqtCf6O5W9iXv1tqx3UcupRbYGVi9YD/LzTdpuAn4IrQqnSAqUFFhwLGCsvA//mEIPyveQ3gEZiqfHFn6f2B79S6pXP9P/RuBXimEw/AFUH5R9KNoIh8FXwlEuHgh34ieK/y30MbgIn+ibUqzVo4GdTP/AzR3l1gL+FD6GanOTK4Ens+GqRv/35290jMBb8N8rTwXm1hPzdcHXYEbaAbtAetKnPcE6vwpPwL7gdJkGpL68F9In14UTw38M3In39OrgBpjXSQdlmnlrAOHUL+JKYDgRj3aFwObwFjSj11Wj88otkc/hH9nD9tENWNiu7PKnfg0HfSfjwavh7mg8wIC4B9WgolT1s8v7vp8zTtTlpoF5g0M/7qCX/Ae0ehR+ABkkGJ9mQVqDVkeAnZS2288Dw+QdCLb8lUq3U/0ML+PvuTlCLT1arcwZ9+OY3P8q9Y+y4Fm4MGBv85WFB15YYwLgQ1/dZ8v7CMK/VkQH4whzHZtoPhS/I36juAU+RvEFz+Zdp80PwDyK1yLfr06Go38mU/7SGTmb3kEjP9je4q2BVKPpXBTUMZeZPSGdR0TeC1G+tVw+5C2F+DQAMrdRsWGBBOSQ6YSNffHK/HzgbtvuyNPVFdEpmGw/UPvPBBJdmDH/KxuYa7lkUDM/kxqbgTyP1ygB3Kvjz0bI1NPanpvUq1PNk2xDaVrjf0sXaYnc4HHx2I9qLRs69kS8CD8wh4CHj21ip0gKlBb5cFjCu+NNO1EQy78SCeZT2o+CpgmevtGhW6Fv0UMgPj/cpewz+Dq9BZ/A3rL5gQIz1/RI5Cl6Cm8CHV9Ja3PhKhZuOrSd4iIyoUKeW4uupNAYcoz//eJCtC12a0nHsFC20HzjuqTADapVzGQz5AfMBZc/BneAi+JXlH689AK3rl1BSOxLbwM/gaHC8pRYMC/hyoK80p/uoMD8ElebGWd7/ogWMlfnLt786fPTFqnO9xFjjrxm5lskPiR2o4WdxlJ8cBqyLITrnyeS/1nTPT8klQVl/ErwNMQCS/ZwMkOtAtbdmA/kgGAGNyLEMg78WNO5B2dmwLcQ5G6gN4k/A61Cr+lFx9ayyi38lnATaJMmDyU/M78E+sDQoF2o6WNc65SGBERYQ/Yp5TltA5rqgTtN4lMt9Xi1O5vXnZL5oHDPyQ8Kgncu332sgHhDWMYAZvEeDDr4HeFAYFP07w9NQTWtz08BaTR24uT74dWLwbERFE7ef8XAwPAjdwcVK8qvAw6KeQ8JDLz/wnqfMf70UDwiyM22nXY+DUaD9nOvDcDzcDfNKbXmwbzz6xifgYf8uFDk4xVXVmrv2twjY13vg79WNyC+w9CJiP29CvYdoG9p4IC8G+oVjcX61vMFTbZa0jTZK4/Fr2TG5RxqxE80+53/m65VzckzOUV9Oa+e46rUTTWa+OGkr19D274NvvY30RbOGpN84hiXAOblejqFRH6Lp52S/naEL2Of9kEs/MRY4DtOur/vBeFTvWjt2fSVKv44vqfHe3Exr61UKHjg9PyQ0RC4bxwCa3/ft5xjQgB4YV8NUaE4eEn1DJQ2uY6s0Lp/dDTaGf0JL6zU6fAo6QVwog72brh7pcG7QKO3mHCrJAHUD6DiD4RcwEaIMRH7ZtA+F2moMFB3EK1H+NXA9kvzZ7E7weUVyEwyALWAjWB0sM8CMhUfgJhgJzW1QbbAufAtc497gHOxrHIwC5+z4/dKqJv+u9Q3YEvqDvuC8JsCj8De4AzwwtEmRXIMesCsMBH3Ojal8CXB+z8BtYJBwIxf15XP1i81gZ7CfrmD/Bo3nQV9K89O3kj+TnCPyUOgH2mfNJtzoBnbHpH9op+vhIWhu7Wy3FmwH+sE60AFcp0lgH/eAdtdOyvkvB5uDdtNPLcul7VcMhdYZDc+C/p9kufW+DRuC8zOIux+nwhPgnP4Otq80p87cWxu0UZJjdr2nwPpwNOhfjvs6cP2Va70kWGcoaIc+YFxyL70Ij4P+/Ed4GWpZ68nU05ZRvcksEwvmUVr7rlfwbG31Of2BnG8KGi1yCPmWnIgL+KfsGTrAneBCxWdb/muoJBe0F7wBsZ1p57IXVNMwbr4Pse3d5HWKenQ4lV+B2I8O5Tw7QaMyED0Keb/HVuhwG8p9bqxvEDXwa6soN+SmcCvkNojtTb8N50BPKJJ9uaGvBDdC3j7mp3HfvjwEiqTD7gjPQWxXlB5JHYOJbXJZ9n0YD0Vt8zLtvAe0hSjtpp3ugLxNUV4/OAUMsEmLk9gJiupbtnyqWMO1DXX2hAfAIFmpz1Tu+p8MHaFIaQ+dzU3rpnZFV593D/QHpY21TVHd5spOoF0M4r5o/Rgm1tCf/ng+9IHcrylaaBfwkIxjML8fbA/Ph3vvkL4YlH31gEshtq2Wvoy6K0Nz+hoVcp9+lbItwf0zr+ScjTO+NOXz9ID8nPYl9ynkFc170g6ApWF2J+Tp/QjE55g/GHTUWP4J+dtgBSiSE2z0kLCtb0d5UL2RslWhHu1M5cchjt30x/AguKmXBd9G6pGL9zDEft2ox1ToZGvKvR/rv0G+NzjfJNMGxNxpY7s8rW/8AbpBlH1tC/+BvE2l/HvU1ad8Y4syUBwHldoVlU+h/iZgwEpyTIeCb8BFbSqV+QZugF8KkgyCI6BSm6JyD8rh4FuxaqlDoht9/RUMkkXPrVRmIDwSHEeuDSi4BSq1zcvdk0/CeqA/G/zyOrXkj6ddO1AezH8Bx1lL21TnLur7/Fzux6cg1fPqmM+He7NyvzAuBNUDtG9sV0v6v7TpCfpdJfmi7UuN9ot96u8rwLySe24oxDGZdo+2hs/JDfsqVDoobGhQuQi2BzfAIlCPPGAMcO9CHJQLszLsXXBvLGUuepFclEYPiT1pW/Tm9BvKHUs9WonKl0KcU542mF0F34XO8IUFoCzXnDok3FijIR+jeQOcXxYzCu7rODp1HPtA8pWC6Mfc+xC85s+aSpl9JfmGfADk9WrJ30O77pDkhn0Qcl92LJPhRfDwNB/rPEN+d0hansSvIB+D87H9C/AKaK+4+f1a8oUnaXES1b4kunDfQFmEgTjpDBIGpHw85n2+axfHEevdwb0BELUamUsh1ktp5+i8tFEqS1fL7gQD38bwARjg832d6tuP9xPW/xmkQ+K3pIv2omtj3dy+qV+v18DaEFV0SLxOhechtjXtIXERGP/2AOcd6zgGD+XnQN9xjrmN/0lZtQOC2zP1O/6bz3MUZRt9dnue/Hclnupeyed8c6XR7MKND7IGsXFM65A3wf6wMtRiJDfvFRD7cfF0GKUT3wfxvkY9F4rU3CGxD408yNykYnAbDOeBjhefY1qH2AN0mHq1BQ3ysef9p7ybTOf4KfSGVlCkrhQ+DKmdV9seA0XamkLvx/oGM5+R1sdgfD0UzV/H2ApWgV1hJGiT2N9w8oNA+aJwJsT7pvWhEbA79IUD4QGI9ez3aegCjs0x5hvI+m5In3E06CcXQNHYv0N5Cjqmx0F8ngHiGxBfbDYgb39ufg/A48E3q6QNSdwKsR8Pt9NgMUjSXo7vKXDud0F7SNL3qh0Ssf88/T3apnktT/o2SGtsQHsMfLEZCpvDELgdcht5mO0PSdrhUDBwx2d+Sv5JOAA6w8bwF3AdYj372w+SXMNOkMYW6w5MlZqu1k2y/4kQ65v2oD0L1oIuoB3GQl7P5x0BrSGp6JCI7ZyLwd7n3gnuQ59xPsR62vBv0AaSXPd94H6wrodMR6hFW1LpWYjPMH0cdIC5LePc3pCPR/tsV20w23LzJbBi3rhS/mXq/gJ0qmrahZujIfajsTdrarQy19Oz+zrtCHARc+lsvcBAGPtMadvmpHtF13uob3+NSof/JxT1XanMzfBnWAdydaWgpQ8JA8nTkI/nCsr6QNSmZLR9qqstX4DvgNoGRkG671W/+Qd0hyTXyYAc196+9DMPo7ZwMsR+Utrx5voRBXlw8+DTXuoY0CdTH16vgjWgSOtT+G3I135LynL7P0HZjlCkFSncE/SDqNk5JA6mo3RI2Kd9a8d/g2NeCnI5n7shzv9D8j8D10IZfK+GWMe0/W4NUd3IXASprmun354LSfZb6yGR2nj9PbwNqW+vjvW7kM/NcTm+WNe0L6v9IGlnEh7YeT3z4+AnsCxE+ZJiP7HNf8kfHitl6X3I75CVVcvqBzeAh098zgTy7qVWMLfkejnn5yGOxbUdA81Kp/R0ewVsFDuplr6XugMgOSLJWdIABgIdIPZxCfn2oKyzJ+RO40SGQi6fU+2QiM9pLj2Jvr4Oi+UPqTOv8w2BkVCP7Qy++0BUVzJ5kNJ+x8RKIe0myu3rAaozpDVxDV6DaA/tvRMsAlG2ORW0/5XwDXDjWi6HQJHDF22s5ajr5pwG9uV6umnsx+D6BMQxmb4LiuShMgGifSeT79tU+UiuHkCxv7fInwndoVYNpuIDEPvxS+FfsAnUKuepfWM/taYPpl08JHymh4D2zKUtXcOvwh2QP8O1bAPKg24sxDrvkb8Qcj8wvzlo49vhe+Ce9XlJpjtB7n/2PzBVyq6OxXX3xSKO41byRQe68eE8eCer797ZDZJ2JlF0SLiWm6ZK2XU18gbwOI6PyWujSi8F3KpbO9Ci6GviGsrXrLu3xhu451zrOF/TH8EeULMWpeb24Nv9BMgXM3+A+XthY8jVh4LrILaZQj4PKP0puzur9xb5P0J0SrIz8y1xSNxHXxvCYnbaAnKcbqz14CTQJjpcnHtRehx19oakOXFI+Pb4HsTnjyTvm36RWlNokHODRi1D5jSI/Zh+EHxRyKVN7GsJiH2ZXh3yMdnXj6GSRnBDh07P174GMtdwO3ga0r109VCZAS/CJXAsDAYPnSKtTaH2Su3T1X583lQwoP0chkAHKNLiFDZ6SBiQ80MiPcPn6S9ngF90HvYGae3iGNN40zUeEgdz332V7nkdDz+EIrlOBnX9ukiub72HhEFxMsQxmD4BDGJFOohCD4XYxkMjjrvokHieOgdCJa3EjV9C7DelXet34WE4EfTLlaER6Z+XgGuV+vfqeh0PlXyIWy0m/WlfyOO58xwODUkH0EF6whFgUC3a1GnSOmNHiBpK5llIdbzeCRtB1ApkToFYz/RD0AuiHJdlvi3n9avlXZAX4ULYCjSafc0J2a+O0RUMJMPgTSgan4ukbZPtbKNjxroGgWOgSFtT6P1YP35JOI7bwCAS63h4u2HrUWcqXwCxH9O3w6pQqxaloj6Q92P+AzAAFKGt8ja7UeYhtBTcBLbP6+R5bTEZzoE+EKW9DD4GiLxdnnfDaetbYAuIau6Q6EJlD6oitE+ujSm4El4Dn5uPpVLefZkC/ZGkZ2RtHye/EzQi/bzeQ2IwbV6GfLz7U+YaFumbFHogxjba4DhwvVTRITGW8iEz7xb/RzsPAm0a+y5KGz/ehzGgz9WrvjQwntlP7N+4sB+4RnNKvqhtBq9DfLZp/XcdmKVWs1LNJ+zADTcOzoLNwQV2I7qBcg2koFcodGDrQs9QZnJTMGhNCzxH+qeQy8Dp5OrR0VReG3x2P1gB2sNyYPkPwOcbhJzjnJD9zoCJcAXsAf3hTJgOUYuQMfhq2zkhN5EBK197DxY3Wj1yTYuc2X4MvLXKsSxdobJjLQqclmmrXPbjZvctzbW/G5xbNWmTTnAouD47QJLrdi24VkV+nup5dR761rZwORwPtcoXLvsvwsMwybkdB45JP9Kf87WkaKY/V1sDbadt7S/KNs3NM9af3bRjX7igE79wtH2RPqAw2sQ69qM/FvmE92uRfT4KP4KpzTRwzPr+WnA1uN71PNvD5WKYCFHLkNFvtoGidY11G0k7Rg+oc6FD1oGH3tnwRCyvNIjeVNoZNHolufE8CfeDW8GFi+pKxg2TpDF9U80N6Qb1jWHZgIZaAnK5IQZB3kdeL+UNzpPgSXDij4GL72ktHgye5C2p7nQ2CLxWks74DJwKP4d8M7SlTFvNCfksA0E+b9ehkj9UGofzyMduXTdQPX05FteiJeRzfb4aC7uDwf9+cBNUk+2+CvtDv1DRN8vTYDu4CmoJIB2pdwBsDy0pX54OgU6Q5mn/E+EycIydYSO4AyopHeSuYZSHRrV9H+u2RNo9KrnaUZAfYKmOvprHAPtwLrlfpza1XvXDa+Dr4FfyS1CLhlDpIMjHVamt43W9boH8RbEHZcfCYGhJLUxnxvYzwHgcZUy4G/TzzylfBN8sjoLDYUnYCkZC7kgUzdI0Um7A/tBlVulnb3/R2dbn3prhfiNJx7RGE2Ma6WAOttGpdwU3cHf4LZwF1d5idY7/wDhYHZJ0NOc6J2RQ97muqZstaUUSlZ7pgZ2CSqrv1bf13MEtt58OMMFMJoO4z412ccPYl8/IN9mZlPkyYrvm5CZ4FHwrT3qLxB/gr+BXxiagL64K+mxnsF3UemTEtUlyvMPhQWgPvWAwrAZrw7qQj315ynaBm6El5Jj3Bg+gKA+uM2A0xL3qWleStn4bfLlrFyqZzvtPt40XxoiW/NJ4jf4cSy79sQ28k98gvxL4Yhn1PplpYLCbXWnDsXAYnACOxcPXAOsaDIIif/wu5X+EovlQ/AVp+1OhM2wDMV5uQP5o0NbG4JaQYz8J9Nsox/ssHAxfGHs6JJbnpm9Q50AfSJvmYtJ7wuMQnY/s5+TmixP0pptTI6i20A+6mJlNuWBbwZjZ7Kclmxt4joStIX0BHUD6DfgTVHJc7exGiJuU7My38+kmKsh2ub1TVW3dnDyU3FRprNbvDfqBfRu0o/YjMxS0+TB4GNyQrvHLYDCKB04H8vrRvyHK52mjU+AeuBmGgwF4KrwEXSHKQHZdLGgwbbARxy/6/nJwELg53KhJ7Uk4hyK5lq82cT9Xg4X+/zX4BbiPkrRJp5Rpgeum9OHYXKOkiSQuBL+S47rFdKqbX1+n4BXoFW6sQFpfyOUz14FzwDW5HO6BKTA7Gk9jfWlliIHXIHkD6Be59C3jQJRr4nxaUp/Q2X+b8NBQvgDpoxfAYIjqScY1r3Y4x/qmtZ9+oy8aR6INtiDvPvV+vpcoqks9qH0s7AoLh5b6yWQ4sOkabn2WTANy8+oYa0DsYDXyN8F+sBQUaQCF3wSdK+oFMmmBdS4XNj3PejqGm9XT0sEX4UJMgCgD2UBoHQvncbobz9d+2jGpO4kT4JfQA4rUi8K9IQ8k71I2uqhBU5l2HFRw33U4G3TUanqAm9o/aiUyg8Br1JpktoWN4AC4Hu6EvcBN5CaXKO2xGUR7eN/NZR9rww/hRrgPdoT3YDjk0j4L54Uhr+0uhU0g9wmf9QPI7UvRzJee17heDg9bEPS/pCXJvvVPbZDrUwr86fJ+sK9c3m8pdaGjxbPOXAOJ47XOduB+rqYXuPlkVmEZ8utD3tb9vQNoC/3hMhgBZ0Et0ieKpK8/AgbDqC3I6Cf5fPtR1h8cZ5TzeD4WNJjWR0+Ab1Vor58+CycX3Het4zoUVCksGkXpafBEwV3X8Rj4SsG9Wou0/REwFFpljXxJOApGZuVfyNrQjXgfOMmcjygbA6fCvrAH7Ad/hsnwMeRtTqKsA6jDYQrEOreT1+GqyQU7F2I70zrEBqAcdy94A/J6LtpeMKfVjgecCe9APgZtNw4uhgPAL7N94XTw7SS33QzKhoOHoeoCBqC8X+sNg+/AIeAiu9Hyeua1jYeYtlLLwr/AscX61jsBusESsD5cC26MWM9DZitQPeGPEO+bdr1/BZ2hLdjXZeC4U91PST8PfWEx2BLSvXi9gnL7SXIe3eEweAYMkndBD/Ce2hAehQ9B23hYdIV8k2xD2UMQnzee/L6gusH58DGMg9+AXwuON2pVMpdC7Oct8heBMtjtBPF+TKf1tm4l/Zwbr0Ns59xvhANhV9AXbgWfHeul9KmUtwHlGh8NuR/ox667gck62vVEeBNSP149ZH1ekrZfBT6AWM+06+z4BsKW0AcWAWXZRMjb+KL0HVgRloRN4B+Q9+8aHwOONWlnEk9B7NP9NiRVKLi2p0yfsr+pYHwbDLFfsjPX/mSusW/T9zbd41K3tN1e4Bjzfl3jYeABWa+60eBccE55v/n61dS3Aek5+LSgw/wB1fL3034AKAPSJRD7NO1mq/R1wq2ZcmNpuNwpXqXs+Jk15o9DwqG4kS6Fj6CabZq7N572boykjiT+As21S/djEE5l+SFh37vAswX96kwvwhgwIOmgqR+v0+FYiBvH4Pc0xHqmXbcJ4Gb10MjvOy43W5Jvh5dDXs+8/fwbHoVRYFCJY9OnHNdy4Ga/Dt6D1Jd2sY/hcAEYLK0zCTwAUj2vBt11QP87DKZBuu8zDSAPw1/Bfn4P2ivfiI5xW1D2pZ1SP/m1lkPCNXMOedt68mfSvh0krUfiZsj70Cauvy9kL0LuV+9TdgssDVHu91cg78+8a/QuaEPXysCvWsE5MB3ydh5YHjCO4w2Ia57qXk/5VyCq3kOiNY23Av0h9et4ff7jcBO41tpvJORrbZvvwiLQqLTDgfAcpDGkq/O+EtaGWtWdih4QH0HqJ11d2+NgUahbq9PiIShajPSAatfRtN0ONLraDO6H2GYc+aFQizagkosS2zvp26ENLAzz+kuCIczUavz3IngL4nhrTU+m3c8g2Y7kzI20B1cdtrl+DGY6cb6h3Vy9QVslLUbiSPCZzfWb7hsYfgddIaotmYNgCqS6zV3fpu4lEF8UHF9nuBeaa5/f1z721wkcn4E+HhJ5/Ur5Z2m3NzgWA95R8F+oVL9S+Zu0MfClTdgSh4QH4N1QtOnjOAxg/4SxEMtN/w84ryQDkwfZI5DXrZT3+Q9AX8jly8NVUKltKj+WOumQsA/ndjnoF6lOLVd9xRgTfZts3f+fhGPZCSZCLc/N69xGO+c+u9JfDoPxkD/DfX0FrAnNqTsVPCCKDrPXKT8F9MmG1YGWp8EkqPWwmE7dq2FjaA1JOsNrECfsyV/kYKlNvK5CxrHE9qZ9u/g6qF5gIMzrGDj2grmp9jzMgDkKPoJ8TEV5g+8I2A2KFm5Fyv8ERW1TmQFhIGwDuWNom96QbySf5WH9MORtUr/pOoU6J4NBvEgeFLvCQ/AxpHb51TWxL9c0BiuyM+UYV4Y/gG+defs8b39+xfwYtFOao+kj4DHwiyZvl+fdgA+Cc/DlI8m37h3gVqjl8He/TIATIR6A2toglD835ZfnXi0aRCVtXMm3XuHeL6AfXAOp/3S9jLIeEGVgGgDD4B1IdYuu2sB6lfZvK+75tjsOitqnsmO5vyRE6Q/HwQtQzYfs4024BJynz8y1MwVPQXqeV/fIEKgk16g//AWmQmxbKf0+9S6BWtePqs2qNTUOg/GQP9d1vxacdyW5vpUOCOd1Brhfa9LCzdTqw/3tYRCsCh1AQyoXcTq8BAaZW0Dn9U0gaQkSh8OWqYCrk74KXAgDU3PyjXcT0Kl05iSffR14snaCC6Ad5PoVBXfmhXM4r10d01ZNrMHVoOXCeM9A4mZ0Q4+Gf8C9TXkuX5Bt2sPesBt0Bu2i/SbB3+ByeBX88volRFv5rENgMmj/XF0p2A5cp9VgGVgE3AD2eR/cAI+DZZXkZl0FtoVvwKrguB2/Y/VweASuhn+DPlRJPn9D2Au+Ch4cS4F9vQevwwRwXMPhJdCuubpQoP84N/15BTA4OdYZ4AH6Avjm/S+wnyIbGcDWg81gI+gIS4Pj9KDS7yfCQ6BfjgHLkxYj0R9OhXzertU3Ie4dshXVmzv7wKawIvgcN7+H3E2QDsZDSbsOyRecs3v1UhgLuVyrgfAtWAfc747b8dq/cxoG2vstqCTXqAcMBW1vv61BfdTEeVxvBP0iyrZrwI4wALqDdnbs+t6r4ByMN14rjUPb7A/dIK2n63MF3AHV1IabfWEwDAJ9zzloC/tyHC/DaLgcRkJ6BskWkXHW9TN+ds56/IT8zXAKjMruafefwEGQbJ6quIaXwMlgTKhJLkit0lCiAZUbzIdOgXyhKSrVZAFtbIDx0NDZzbvp3gRtV2tgoOpM6ahdQCfSWXX8GIzINizHtjw4Xp+jIxmMfROvV61o4HwNyqYN7K9BI75i+67gRjVtYHgJ7LMeOScD31JgcHcs+rBrUM8mt60H6XJgAHbTTgf7aqm1oKtmpQ84Dp+vTdyTLSH9oC14ABloDOzOzWc0IvtwrParL9lfLbK+66U/avPkj434EM0bUrJFR1o7D/3Ecbh35/RaL8EzPCgOA+NHlDHEg/JkSAdFT9I/goPBsUa5fnUfELGDMl1aoLRAaYHSAvOfBZZkSEfAJPCAivhScCP0gx5wHniAxjqmfTk7HXw5KlVaoLRAaYHSAl8yC6QvivHMKz8A/CobAcPAr7T8vgfEGVAeEBihVGmB0gKlBb6sFvBn/h9C0UGRHwwpXx4QX1ZvKOdVWqC0QGmBAgt4UPwAXoR0EFS6ekD4E1M7KFVaoLRAaYHSAguIBfwHAN+HCVDpgPAfm5QHBEYoVVqgtEBpgQXRAh4U/gumiZAfFB4Qvwb/dVqp0gKlBUoLlBZYQC3gQXEgTIZ0UPjPXP2CWBJKlRYoLVBaoLTAAm4BD4oDwP9n4w3wC6I8IDBCqdICpQVKC5QW+MwCHhS7gP8T3Rw5IP4PbXoRdyk6vjIAAAAASUVORK5CYII=;fontSize=16;" vertex="1" parent="7Cv30EDc3GMNcKOpRmR3-37">
          <mxGeometry x="16.01" y="106.27" width="181.72" height="21.73" as="geometry" />
        </mxCell>
        <mxCell id="7Cv30EDc3GMNcKOpRmR3-41" value="" style="shape=image;verticalLabelPosition=bottom;verticalAlign=top;imageAspect=0;aspect=fixed;image=data:image/png,iVBORw0KGgoAAAANSUhEUgAAAT4AAAA8CAYAAAD/h9aPAAAAAXNSR0IArs4c6QAAAHhlWElmTU0AKgAAAAgABAEaAAUAAAABAAAAPgEbAAUAAAABAAAARgEoAAMAAAABAAIAAIdpAAQAAAABAAAATgAAAAAAAACWAAAAAQAAAJYAAAABAAOgAQADAAAAAQABAACgAgAEAAAAAQAAAT6gAwAEAAAAAQAAADwAAAAAAlLgpAAAAAlwSFlzAAAXEgAAFxIBZ5/SUgAAH9pJREFUeAHtnQm8nsO9x2+EhEgqQhJC4iSIxlYhV2yRxL4W1xJaW1BKe4vSWiu0WlTRoqm2uETVbYh9X0KIfReEECcSCQ1B7LH1fr/pO7mT8bznXc5JBPP7fL59ZuaZ9T8z/2ee5z3R1v+RlS2QLZAt8OVYoBXN9oGDoR+8DjPhX5CVLZAtkC3wtbTAYoxqBHwG78D50BMWgqxsgWyBbIGvnQUWYURDwdNdzBvE94dvQVa2QLZAtsDXygKLM5o7IXZ6ITyL9F9CF8jKFsgWyBb42ligEyPxm15wdulV53c6LAdZ2QLZAtkCX3kL+A2vO/htL3V4cfxD7p8Ey0BWtkC2QLbAV9oCOj5/xIidXLnwe+Q7DJaCrGyBbIFsga+sBVrR827g62w5hxenTyffntAOsrIFsgWyBb6yFvAb3wyIHVxT4WfIuyW0yJ+6tKairGyBbIFsgfltgYVpcC9o6hX2Oe6PgBdhVfCU+Dy8ClnZAtkC2QJfOQv42notlDvl+Rq8C/hHzp7yBsANcCLoAJulFjk2NqsHuXC2QLbAN9EC/qL7WBMDn8y9CeAvu5/DPfBT8BV5MLSBupUdX92mywWzBbIFmmEBHd/jTZR/k3ufJPd9zf0T+K86/jO5V1PU9+ysbIFsgWyB+W0BT3HPNtFouUPZeMr4muzJb1mo63tfucqpLytbIFsgW2CeWUDHNxVeK9NCR9LLHcwe5d5boOOr6wfa7PiwXFa2QLbAl2KBj2n1rjIt+2uv/563nI96mnu+Dtf173nLVUp9WdkC2QLZAlVbwJOXv8DW8qODp75byrSwBOn+eluuvo+4Nxn+CTUrO76aTZYLZAtkCyQWWJT49+Fy8MeHraAtVJJ/yuKvtUXSN/WBDkU3S2k6TsnKFsgWyBaY7xbYlBbvhvA3ef439c6Eal9D/VcZOrBQPlxHkrYSZGULZAtkCyxwFjicHk2H4LC8+vd3f4dq/tj4GPL55y1xecP+6tsXWly1vur6X031g6NH26xsgWyBbAEt4Pc4/UIsfcT28CtoH98oCPsvOIrUi0T/e3z6nRZVuZ+LQyPLE9gRtoG1wb+d8b+sIO+D/4ZuLFwD94Nevh75X17YAuLvAv7icy48Aj4NKqknGfYC++zToin5YdT/UxP/Bsi/C/Ln8XehOfJXqKGwcplK0j5pw1TabxRo09VhQ/Bn/SDt8AJcHRLmwdX2NgPnIzyB7eskOAXqlR++94c1ShVYt/WOBhd+vWuHolVpELl2gPgE8gnxu+B8yKrfAs5j0XrW4Wlz99qRUO57nK+6+pKVID6M6Q/cA4/BNJjnskGPny/DpxA2QNHVwbho7wKd5MJQq+6lgI4urf9o0pausrL+5HuqoI60zjiuI5kFHtMvgfXBsdejBgqNgbj+WsMukAPBRbQPNEJch331u8e8lI7hDIjbNfwgFC1ukquSp4LrIa33bNK8N681lAbGQ9y+63b4vG74G1D/sYzRtRvbNg5P5t6hFewwjPseSOJyhu+HvhBrGSKbwKpxYi3h2LuGcm58n4AOpge0hqbkZvBYOxDOg9+AJ8Nq1ZuM/npTdJzV23evtqI68jn+NtAZ9gQ35k+gKywIcuKzsgUWdAu8QQffKuik3+hOBB/W28GmUE7m8fCTak0Slof4QNWB+EHwC9B31Kwix6fD2wE8ptYqHYYnllqc397kb1emoY1I99UxHnSZrC2SrMMeBnvAki1SY64kW+Drb4FXGOJryTD9dHQHnAwnwGmwE3jIKJKn8UfAzw+x9A0bg6e8oH8S0NF+F/Qf34KalDq+ZSl9AKROz5PHi+C3pb/ApfAovAOpliDBAf4Mik5xaf7tm8jn96bVodrX3bRu477OOgn2NfBBKb3oROVHWr9F+drbnFc7is/R54TsR4xpMaEv4fop99+HtO++nmVlCyxIFphMZ6YlHXKPzQDXvOGxcCEMgXIawQ3zptqChB5Rovv4eXAv6Py2hZq0cJLbCjzpxBvejaizGw7PgcdRy+ll1wNPeHZsMQjSoer0JPXgIY/XNWEVSB2w94J83b0J0idKuN/UVecxHnTEsRyfhvSbpKc7f5iIx7wa8TXAySpy7iRXLe3XDz6C4NSKCntPRzi9lO9arravDeNyOsOsbIEFyQLuzdeTDrmn489krv9nQUeo33gAUl1Hwi+gA8Q+wf3oAehJCOv/CcJPw0DYBu6BV6Aq6cBiuUHjznqvEUbAOAgbUIfyJtwIj8Mh8GPwhPYc/B4ugSLvTfIc7U+o0qlwXfJ8Gx6Bppwot78g+zsLJn7hzr9PsKNJ98lxHCwb5QmO0ZNmcx2f1dpGJVuYL5YnPWmuHIs29oE1v7QoDbnQ55X8Du28fllqqfbda27wWtd1Om73sfPsvgx7NM0zL+P6Ak98zom2UV51YLFcExNAJ1ZkQ0+IPvD3Aw9WQdppK7gf9ENKv6PzGwgbwHZwHlSl1PGlpz0rccO6acoZ9FXunVPKo5M6A+4GTy+VtAMZ4pOWhnHyPD06WNUe9PhdoWqPTt5q9Scy7gqdIbaHjlB7fFnqQ8MDwH4F2/u0dOFcBU3JhbU5eFruDm1AJ/oc3A53whsQ6iXYbLn4dgMfni54142n7WvAB0w9cm04BwNhE9AmncC18SFoi3vA8TSC9lGOfzNYB5zf+6Ae2X43sJ6NwPZdF9pTZ6UN3YA3w0PgmMvJuizrWAaDD3Pt9C94D+y/dd1buroPyskHmXttS7BvXcC1q+N5DZ6BB+ER0CHNa7nXnQvH4LhUO7BfXmO7uMcdp/Yo0t9J3AVix2c+bfa/8Cw4z2+DjlAb2OYAGAXpyZOkyjqfLBrPyQjY0R+Bp7mm5CR6QqpGDtpNGdoIVxfxSLDzIc2rC9eBN6X+3HwK4nIfE3+4qUKle1dzdXLisrcQt4/VqoGMYyCuw7CLwsmvVUMo4CTH9Tmey8tU5MmhJ/wVglOLy4awG/Yh2AnaQyo3+hkQ8oerG8l5S7UoCWdCar9QLvR5ffLcACE9XM8mbQlI5cLXBuPAhR7yF119IB4Pa8GfYSpYRufhONVQGA9x+Q+JD4dUOpHeoB1egrhMUfhd8thuLyiS8+9Y3KizoKgO01wrbmgdqY6+SCuSeAm8CeXqMd2x6WCOhu4wr6Xtr4S4T3cSX6PGhluT/3ooWk/6p5Wj+noQ1u62+RjsCHXpx5QqatCN9HtYFxaD5spNegHERjJ8FOwAPrHiezpf+9YWyqk/N+p1fBraNuI2ryXueKtVAxlb0vHtRn2pHdw0PhhSuVE3gOcgHkNT4enk3Q8Wh1i1OD6d3rnQVDvh3mjyTS7IW+T4OpHvv0GnGcpXc3VMOvaQ13Ctjk8nvBe8HNUT6qt0HU6ZBojlRj4QJkGl8vF9HdfJ4F4JWpbAPVCLXVzXrm/XR62y7SPAU9gQ8GFUTh25kT4wx5O2d7kCTaS79ovsP4X0MJ+h+PcITISZ8NuQWOkaG9W8V8Pb4ATEWorIoaAz8MRhWEdjuhNbq3Se2yaFbNOT3e0wCZzcIB3eqtAtJLTg1afG8uDrQyw3kcZc0OUcrgi+BqxS0NnPSAunjPh2ZyLHwJaQroM4X7mwzrYvHFIuQ5I+mHj3JK0o6npyk7qJ4jlxfegMHoe7YRKk69Qx2a96FcZ0ERW4LmrVUAqsDq2igmsRdq2vEKUZ1CFNAzf46/A5xGpDxJNkkHX+HNaE1C4eTKxnKmijWI7Jut+JE6sM62g9cOwBF8FRUG4P6jcmgGMJcj60R626jQLaxhN7LPfpIIjnZgzx60Cn3AfMU1HpInmFEmfBcbBEQemupDmJ4qS8AGPhFngEnIB0AkmaS7Y5EKwr1gNEJsH74OLuB10gaD0CDqwxJFR5TTdHKOZmdxLdYCtBuvknk+Z4misXrE4pnUTr9d5r8Ed4GurR0hQ6E4qcyijSbfstWAN+CDpJ50A5bu36ALjQalF7MnvCcQypdLba7z0wn3ZuC9XIPu0C6eb2QbQP3A7Wb52nw64Q5yU6+0+v3ISvwEsmVCnrdX1dAZ46lOtHpzEe7gPrtL2tYX2Ix7Uo8bXhIbC/alPYaHbo///nRYIXwJXwMSwJOsghYN52cC+cBkHux+2hQ0goXS/kejFob9vvBfZtG2gA+z0S6llfnSjng0hZt453ITgXpkKqp0h4BGxf2efe0BF0jMryjkGbltubrlfnYAXQ+cbSBnfD5FKi/bgJtNsy0Aeco5q1MCWOByt0Idi5SnxInofgMFgOmtJi3LwM0joPJ02vrQbBkxDn+YT4UeAEFKk/iRo+LvMp8SlguZhhxC+BRrDeuIxhDTcEwqQTrKgGcoyBtK5K8YmUGQyp3HjPQFx+FnEXcZD96wdFYziPdG0dy8UxDnw4hXpfIGxbrUDpUM6AcD9cHyQt5CE4+8EV7qVX14H1uMi7wn7gfBb182zS3SBBPlRnQlyn8V+HDNHVtfAmxHkNbxDlCcGhBMZDnPdD4sNDhtLVPq8Gk8GHsGu1P6RqR4Lzk+6Rm0hbu5TZ+UltaX7r9IGQyvnaDkbDCsnNBuJTIO6/zmMQpHIMq8Nv4GfQBupRsEPcpjb7CSxZUGEn0k6BOL/z7piCuhA4C7YOCWWuPUh/AFL7Wvc50B2CFidwCNwPznPdcoEPhMvhVdCBxIMpF/6IfLfD5qDxU1lvV3gD4jrciG5gna5yAVwNbvQ430XEV4EiuTifgjh/CFt/SriXXt2cbrLloBY1kHkMpPVVik+kzGBIVY3jW5pCZ0NRGy4w7Z3qChJcvKGMdjkSgu2rcXyLkH+TqI5Ql9c/QniAEZyjjQn5cIzzGrb/sePbpSCPG74BUjm+JyBdnwNIS8c+lLTxELevHVLHR9LsU1xfrvsYSaQzaw9u8pvBNR/X+Thx21dFjs+8OswDQecR7E5wtux3kaNqID11fM7d6aCD8iGQjtn2pV4tT8GXIYzPh8z/gGtoK3AdpPo+CZMhlJlBWEcXpN1OgwnQMSSWuR5Luv4n1BWuL5I2JCnjeh8M6yTphdHU6CGTDYyBsbAWOEjpDXbWAadGJmn2gnFDOKHHgQsjVlsi3l8qTiR8D0wCF7ByQfqk6A/LQJDxNeH5kFDltaivRUV1tH+DS2FaUYZ5kKat61UHCm5ZUFj7+PDQicXSvm6ed8GNorSNYTdbsD/BJmX+wWVyuKitP5XzOT1NLIi7mZur5tjUtl0HOjCdqmu9M+hcfDh/GzxtmNYLUie1OGnBIXxG2I3/DsQPg1WJnwkHwqPwdAnnbSa8D6msw4dyLOfuCNgZ7O+4Es9xnQrvQbVzStYv6C1S7ItzshA8CGF+BxFeGZ6FWPZjDOxZStRf9AVt5tqzvjvhSDgRDoNyuowb24JOzfaDViSwKdifSaBcW9Wsr9mZyzm+2Tf5HyfOiZFTYSXYADaD9WB5SCfeyfgO/BRc7K9C0GIEdg+R6HpVKeyiUS7c+2F7iB1fb+I6vhvgA2gpfUxFL8N5oLHjPhNttl6khnRDayflYqh3LM5fZytJ5MJwExQ5AOcrnTMXpxuz2n5Y3sVcJOsoarcob1Ha2yROBMcQZN/2hRMhlg64B7SOEwk7n83pg3Nj3evCD8D13hXq0V0UGgBbJYVd6+uU8Jbrw7HfB5eX8AAQpBO6CfaCDiGRq33tWeK/SunOwXNwPbi3dKz1OECdlHNh/drjM1A61TvBtbc0+AYX9BKBh2FXaAs6LMvbtz+Ac6NfeBb2hpPAsRWpkcQbwPLLJhn0DU+Ae1bbVVIrMjRnTcypvwshOz4GfBJZaYyb3UkK0gC9wMmN8xl2Yh4AnV1AZ1uU10WxBqTyNPgUpHU74e/COyVmcvXJ4NP1djgLdoJOoHHqVQMFtUXavpOiw69Vu1HgGYjr8yQyMqqoN2HHFuepJ/wn6uhZqrcb1zMK6vTpGuzjYr+rII9ta8ciLUHi9ZD272zSvBdk3T+DNN/rpA2ERUr4unkJBCcX8o8lTbukGkrCeAj5vH4IwyGW67QBLoU4bxx2Tp0LHUGcbngCbAJBOmXbfgHSvOXi1u/67w6xOhMZDbZdrmya/hJ5DwUdVz06kkLuF+vVYfWFIH2AD6VUG5BwG4S+fET4OtARKvfDAeD9o6EpNXDzbtAmob5wvZm09aGS2pBhpUqZvL8w9ITQUdPKyck5F9JFMIO0M6NCLtSDIHS63qsTuS+kKnJ8boqH0ozzKN5AvWMgHZcT1g5qVbWOT4eetmnc+WgK+xW4gPAqoLrBl+n47IOL+XlIx+V4HoNb4a2C+47HsukJkKSq/oC5Ffn6gE4+bdu4DuAiOBgGgA9ON3WcdwLx2PERnX3q2YCr38behzh/U2Hr0tHH6kBkGEwBH+pNlQ/3Gsmn86tH7ivLW5cPH8dRSR3JoEML7XudCK5ppZ114o5hHFTSMWSYCnF9hrX9KVDJqS9Ons3AdmdLB5dqLRJ0WD1hF3gCXHDlZOdvgY1hjSiTnXFwQU6Y9TVX9sunjovovSoqmzPYKvJ+1bI4+el3H9N82nqS0RFUkvmdQxdWtbLemWUye2Jqrjz97w4XQHzCsO44TnSOtMMQqLRe5xQoCLhe3ZzrJvdmEddx/DlJ1wbV2Ng895XozlXHqAPpBz5w3JhFWpnEzeFW0MkpT/gnwamwIQwC63HfdoUi+9vmenAhWL4WPUtmHzI9YGlYAXz46HTK6W1uPAxPwndKmbpx3RtGgmvOPIfD5bAUzIByGsGNwWAdsdoS2QGehkvjG0lY//UerA6zHW1wfIuQoKPSe+4HHkXVyXAYTAA7W05WnG5AJ+qDUoHWXLvA+qV4cy8rUoEL5tHmVvQVL6/NdVrx66WOvhfcCOmckNQi+phatP13C2rrSNqb4GavV641ncp46FuhEk+8bp5fwitQb7vabSU4EmI5VutOnV6cp5aw83VxCdvU6fWDA+D7kGprEkZDcHzhvs7YdLEecd59YOwNOs0g959O0fs6o1qko7SNBlgSBoEPpkZoSjqjayA4Pv3LmrAzjALXpvd/C76KNqWp3PwH9ATnKFYfInuADu2p+EYUti3XxnYwl+NbgYQfwsGwEARtReA8OB4egqKN5MStBXYglh72pVKCm2ELMG8sN88f4PM4MQq7AXaEzcE6gvoS0Il+0x3fTGxwLYTFRXC2XBw+5V2c2rBIm5Dog+kZcHHXIp/2t8FJBYWGk+bm0/nFcv4b4oQmwmtw7zTYupRnMlfL+8DzAeo6egN8ID8P9qfcGuJWVXLdty8RF/ChfnucUAoHZ7Jwwb04qRWR/mD998U3CDs37pO7YCIsB4MgVrso0oHwpnAnOPdB1iMvwm/Atn4O8X7zcLMY1KMrKeTJakkYDBdDIzg/0+BJSDWdhPvBcTlvyrn7AYwygvQnx4B9r6QryODYGyC1uX2y3qPhfUjlHJruA2YueWRcGvSKLqBgyHB1EH8FndDK4AB6wrYwAlzkIW+4Pk6azkn1grsh3AvXfUlzkpqSbTwMoUy42p8looIuLj1+uO/Vp7Vl54caaGQMxO0b1p7x4iValXYjl04prm8W8ZFRaW2nkzA9zmf4WegDbtBYLsJfQSO8DEMgnoNuxM+AtL4HSWsFQZ0JFK0Vy50Dtu268mR+KkyBovxnkx7Po7baB+L2XyXu2nPhWp991EnVoqFkHg9xvR8SH16qxM3kgz6+b9iT1q3QFbTl8rAr6MSK7D6B9E0gaG0CV4Hj/x3Y/yL1IHEspO0fQVobcI5OgRlwI2wBRevKfMPAjR7q0u7XQ3eoR7ZzB3wM1nUAtAVtegK4BovkPJ0MoR9e/wmWq0fbUKjIF1jvJDgU4jVKdI46EXIeZq8bJ1s5gXIQjAA9e1yBi3x/2BNcLC4GDaxBNIDhWD6N7odHwDaWhXUglga8Gex0U7KeF6AvuPCCehFYHe4NCd/AqzZ8FUaCcxNLx+PmHA0+dZ2nVWE18CG3CKjtQSc5zkgNcr24mSyf6sckfA88iS0GHSCsNYJzybUTz6uOZdBcOf7tdP5BWjjZ+QQPvEX4FdCpud7uhNfA+7VIW7qxU9m3zeAZ8L52bA/aL94jRL8g31L2he3A8bsxh8BDMAZeAsekg9gGNoRYnxC5HLxuAvuAG3hr2Bg8aTm/9m0GaOsBsBO0g6APCEyCqSGhxqvl/w4rQ3ewfsdwF/wC1oei9eM8OM49wP2q7P9P4Ap4F1Jpb/3FdEjn4zbSBoL9WAJirUBkX3AtjIJU/yJBv7UuaLMvyA2kgVw4Zq4VHaNH456gusBJENfzOfFboFqdQEYNEddh/Jiogv6En0ryaLiv84nP4beCHpCOPbaV9pY4LYRnkn4wuOCUm/AMCPfD9UHSbCtIh+UcxyeLkLfo6kbRSaf3zidtOQhagcDvIc1XTXwW5Vy7J4KbJ9ZQIjrHuB7X6vAoU2/CNyZ54vxx+B3yTQHXWJz+MvEtQOnwHoD4fgi7CT8AN7/OL6SHq/N1IWhnnaYPmXL5TLce67PeUIdX67kHNoPmyHXhGrBO29oV7NuxcDIEx0ZwLi1D7ASI+/Qe8dPmyjV3ZCBRH5ZFWoNEbRHXF8L6rLFg+VRLkqCzPdUbdjzVpSTsBRpLg9aiGWS+GH4OjaWCS3HdshQOFztqvmr1GBknJZk7E9cISyfp37SotnSz7wI+EV3oqVqRIKkmkHAcjAIXTS2yHTf+PuCGa0pPcPNw0Amkch7dHEGO5Wbw80mtakMBN+gwOAp6QC1qJPNvwXXclHTg+8F1kI79W6S1BXUHWN9oSPdSa9IWg/YQ8hOcrY/538vgENDOOrOD4QLQLs55kPNqeeuxPusNck594JwFd4bEOq/TKOdh5XWwLT89+KCwnz5Qyu3D6dy7HcZBUDsC+8J/hoTkqg0XhSL/ZD3XwERIZf514URYH2J5zwfsgDixKOyRdF+4Aey8E6DBU5ykRtCRbQOLQ9AiBAbBFHijhIYzrkOsVhr1PLBswPrs20ag1oG7wUUb2nqNsEafH+pOI9dBaDtc7a8TXatcWPeC9YQx6xQugCK5ATrC/jAGPMmlc2XcV0Md0NHQB5yjWMsQ+SW4wUK7Xm+FIrmg+sPN8DbEbTrP54LtKPse6gz2eZS0fbxZks7qFHgfQl3l1l64X3R1XYaTF8HZJ5TRXCdHvED41xDLDeeact3o1OK6XyLuOnQ8jns7eBrCHHl9Fb4LQc5LF9gdRkIjfAJxvYY/A/fZjTAEdOKpnCvX+e/gYXgX0nqMm65dh8G3wb62hFaiEteObbg+HFNr0PGm64ikOXJdHgJxXz8l7hi0d6oBJAwEHWCR9AfDociOtmG6498Z7Jd97AvOp+tvISelkhYnQzdYGXrBUrAwWMlr0AguCCftI4ilwS2/TJxI2Em2TC3qQmbf6+M+u7h1dE60BuwKYcFoAOXrjxtwXksD236YyNBPry/C51CLOpDZh4+LKsgxvQdurqbUnpvLg/Nln5wH258Gr5TQZkV9cm6XLMFljpzbyXNiXwzYzwawXRe668G2poLzpHz9tG8qzI9XnbEbaS04HlywQbb5Q/C+G0Hsn/W4Fh3j6rAq2PdYOpCrwI1gfsvGeWxbB2vdsZwzT0+u+eXANeU4tLvX0HfH7N6wzjDfBGfvC1+FU7k23LSW6Q7aSdk/654EzpF9qiTrcW61t9dFwH45Fm3mmjfsXmtJOT86MedyFPwKnoSghUqBeG1pm1XgLNiqdN+LeUbAUCORehPeES6DcntX5zgMNoUiaQvX1X3wLGwC/eBTaICsbIEFwgJt6YUOzgUb8KF1G1SSjnAMmD+U9bonWG9Wy1lAh30HaF8PP4dBOwjyYaRjT+WDZDvwARrPkY7ZOnSOQT0JXArhTSGkx1cd7P7QCHF9lcI6vgHBOxPOyhb4Ui3g6dZNFas1EU9qleST3ROmmyjW20TCaTNOz+H6LeAJ7Bp4GXRm+8FmEOScdQTnM9aHRB6Bv8aJhPVBp8FB4IlYWX7l0rWcj/K0eCWMAB1wtdLB9rSTWdkCC4IFXPR9YXDUGRf9EuCT/w3wdc58nuLcHL7u+Vp0OPha62eVIF9xRsKrISFfW8wCk6ipP2h7X7N1gC+CttaneGLzVXgSxNL5TYYtIHaMltkSfPD5sNobBsCDYL1+CiiSp0fb9MT/HdCpVaOHq8mU82QLzA8L6OR2B789Fr2u+ISfBs/D4/AcTAHT0/zjSNsQ4u95RLNa0AJ7UNczoO11TH+D1cGHz27wIyiSTnIn8HSezpvxeD5PIa4DrSSd5O1QVF+aZv3n5BNfJZPm+/PLAi7QqTARfM35FsSOy6e5P/j4DWkZ8LRnnvCU95VWx3g+HAFPg5sra95YwJNYL1gNdGZ9wBNgF/A06IPsDkj1KQnOUxvYIL1JPMynt16Be8BPGU3JdTMT1gLXRSVNqJQh388WmN8WcOG7eXYGn/hXg9+G3GiNMKmE4afgBjgddoFukB/mGGE+SWd3LaSnqlmk/QX8NFGkMMdjuZmWjeO3cd82qpEnzaHgq29cR1HYTyBZ2QILrAXcIJ4cxNOf3/s89YmnDGWerC/PAj5w/PSQOhidi6fzcnJOVwJPf2nZEL+Pe74+Vyu/+x4Cfg8OdaRXX3XPhaxsgWyBbIG6LeAJ2+95kyB2Mp7UK32f86G1HryTlA31+Jrrq3Qt8oeOg6Gc8/Pzh59CsrIFsgWyBZplAX9p/yn4rU2n5anqH9AJqtGmZNJRxT9sWI+v0b2hVvlG4I8vjRCcaLj6jdH2srIFsgWyBZptAX+s+B48ATrA46AW9SPz86BjCk7qWMKdoR75aWRNuAL81Vmnat1PQuv8fQQrZGULZAu0mAV0OL7+fgw6sFrUlsy++vYCf8m9G96E5shviTpP6/Q1dxz494RZ2QLZAtkC3ywL/B8uo4/92k68GwAAAABJRU5ErkJggg==;strokeColor=#053B70;fontSize=15;" vertex="1" parent="7Cv30EDc3GMNcKOpRmR3-37">
          <mxGeometry x="16.01" y="66" width="148.4" height="28" as="geometry" />
        </mxCell>
        <mxCell id="7Cv30EDc3GMNcKOpRmR3-42" value="" style="shape=image;verticalLabelPosition=bottom;verticalAlign=top;imageAspect=0;aspect=fixed;image=data:image/png,iVBORw0KGgoAAAANSUhEUgAABJ0AAABaCAYAAAASEidYAAAACXBIWXMAAC4jAAAuIwF4pT92AAAgAElEQVR4Ae2d7XEbudKFB1v3P3UjEB2BuBGYG4HpCExHYG4EpiMwHYGpCJaKwFQES0VwpQheMQK8Be8Z74gihwC6gcEMz1M1Za9Xmg98dh80GsZaW6XCGDPFra+qqpocecwWfz5ba3fJXoSQAWKMGVdVNcaXTdDPmrg+9Yz/3llrn9kOCCGEEEIIIYTkQk10MsY4p3eKy/39OuI2T3CUnRi1sdY+9rElGGOWsb9rrY3+XQ0aQmEOKDZ6Yoy5OuhfbyNus2/0LydCbTr5GEIIIUQI7M7DxZa+QPuHEELIxSASnRBpsaiqahYpMp3DiVDOMV71RYCCEfS34BZ/WGu3Hj+XBGNMutC387j6fkR0zg5/312qYQahaYbrXYJH7NG/1l22OUIIISQUY8w2cgGmBO6ttTkX+QgZNBgPYllQBCYkLVGiE6Jhlpkn+3v3zNKdY2PMqqqqT4Jb3Fpr54qvFETHolMb9xBIehsB5wvE3DkE3VGmxz6hf60zPY8QQgiJhqITIaRG6L90uuBPyCXwW8g3usgLY4xzSn90MNG75/1wRkbmLWChzDr+/aHi6v9rVVX/M8ZsCm8DUaB/LRHl9Tmj4FQhUvG7MWY3xLIl4TgDTnCxDRFCCCGEEEL8RSc4ES7C5EPHxVaLTxtsPyoGbK2TbjMcGWMoPLXzricCpDf4ji7EpkNuULarDt+BEEIIIYQQQsgA8BKdjDFzRDd16Qwf4oSHx8IEmoXSfSg6+VELkKvSBMgQIPD8SJQXLZZPiHrqbbkSQgghhBBCCOmWs6ITBKfvhdaTE8H+kpwWp4yWWDSjsx+Ey6G1RS6k3oDtdFthDrCU3KBc2RYJIYQQQgghhATTKjoVLjg1+YxcU52BiCutSLARo52CcQLJDlsciwdCTh+SoFJ4IoQQQgghhBASxUnRCc57n/K6fOhYeNIWiSg6hTPqg0DSEJxuCngdHyg8EUIIIYQQQggJpi3SaV1YDicfOhGe4Ixri0Tv6ORHMYKgUzJ9EpxqbnomQhNCCCGEEEII6ZijohO21fXNKa5xwpNWQm9fNLfWNWG0Uxw3BeX5egFE0T73LbZJQgghhBBCCCFenIp0KtJhD+BrZuc41bNyi2dDYlFaYnG0yQ8FvIqEXp8USAghhBBCCCEkH/85fBKinLSObn/CVqIdriZjXNNEyZTXLi+VtfYxwb1/AQf8XaLbu4idcepvGCgjiKfzEj4P7STF1s+nE/2rQt+aKEfhXUMM7bswTQghhBBCCCEkMa9EJ6WonXvnlFprvXLrNHIizRUFqBGc/KnS/U6ROqJq1qNcOveB+ZSuIIpUiYTHn1strbXPCe4dykpR/Nmjba+ttcfEphcgwmqhWMYuimxVSLkSQgghoexPLNbkostnEzJE7gXfRHuWkMQYa+2vJ0D8+T/hI79Ya6OjIIwxU0RRSB1kZ1A4wSFpYnFjzC5xjp4Ha+3E4+dUMMZYwX2kdT+BSLhQjLb701rbqWiHNv1D6XZ3TpyNEXyQ62ypJH6J6pqUj3As+MN30YEQQmIwxmwFtuK9tTb1oiQhhBBy8VRHcjpJxY1vUkfUOSowBN5DOIrhwYkXGQSncYak0DcQYwaPi9pxApG11pXrR0H9Nykh8bWWOPPRWjuLjTCC+DZVKtciti0SQgghhBBCCCmXQ9FJsuqz18zzYq3dIOdTaLjkLQSnHKHLuQSNi3PwIRhqCCQptu15gygnjXf4qCGiol9orO5e8yQ7QgghhBBCCCFtHIpOktO+1to5Xtz9EPV06/HjezjmUVuPIsklBl2kcw+BRPztHUeKabSRPzWj9lCufyrciqITIYQQQgghhJCTaIpOyU5Yc0LSGeHpKcd2uiYQMlJvrau5vpQtdocgL4yP6NiGpF1Hg+2XH4S3uU+Rkwr3lCRdrCg6EUIIIYQQQghp49jpdUXihCdjTHXEiY9OrCwk95a3xQXn0VkKxRsn2G0U38cXDVEmZZ0vhQnOR26LHbbCEk9wYEOdNP/qTC6958YpR06AfbTWJhP4hwoE4LFHmdfl/fPPoSVDbxzWMDkhxtff766t1rzaeO74RNk/Np5Z1KleePdJ492vjvzYY+MbdkPqo9giXtdds80sSqsrQjDW12PcqbHmEWNNseM7+t2kZcysYBMMbq5q1OH4IB2E+85Fh6+mQqNur1rSXezqOWXAdsiptp3EDpGCehufsQWqhg25Rf0VdzLigR9yOLfXPB+0Q/F8ryk6nSp8TRYopDrCqMuTyWIFhafIk9kuNqrEGfDGmNhy6xKpYPQlpfPiJjJjzL0w59TUR9AzxswF5SE2NIwxK8FBCWtpFCWMqBnKIDRC8h3+/Ix77TGZuWsT00Yw6accO1fGmKCJVvMkKUyoM7TPaeDYUZd3hYWO+0ZZqzvZCnXR6vyjLOpFC59yaH6/W9RZxRi9eO7c8zTSt/XCAsb6NZ6b3Vg7aDszz9M+X4yh+IYN2oy6wyAcT8/2NRjX8zPfn8PmuzgwV0jmm2fJQiza/1pQvyfny5TzMPrEwmN+rfvqZ8ylG9y7U8e+YSPMAmyyXz/XmKs2sXaBxzumrL963PWpw1P3kNRhMhG9UbfT5vx6hsO6fUC/LLFuz9roKIPaDvGZU1XsEAmRfbJqjjF4/4fGONPZghRszTnaoW8fa9ZD7XvUY0z4HGOt/XXhZjby2jXvlepCp3CVNsnxvGMX3iGmnDbodLFlPMvwbbHv5q5lwvfalPheLe87Fpalu8YZ3nMueL9n37JFVFXsc7YK3ykZ26LbD9rBWqEttJYPnIyQ95omfqfgS7HfrdE2U7znLrSsM9TF9MR9ryBmabWxK8/vuUJ/l9bBMxyBpGNghrbzmKDNSMbTk30NbdF3rDza7nJewnFdPK8kbIvSfrvqqG09to0TKeZhtNlHhX66zWFzHXn/ubBcTl1r7e9JZUcFzBetfVZYXurjWWNRVrtut9rvm2oshb+s1b6z9NGEfdKiPWSbO2GPLZTGyOb1jH7rZRf+eh/FRpek05Z4CZzIuVCMWGdooJL6Tyk6SQyhTe52JBQXs9R1411DnKwdDOKgvn5popOyw+97eTu3QxOdUN6pxb3mpSYkpBCdsDKXQjxpXexJ9NykY2HGtrPTWizTFp0ixyuKTmnbpNRJCG5rCotlrW1Cex6W9oMTVxahW1EsO3etQh3DjPU3wbio0mdTtt2Iuk0lWjSvdSF1+6peEtrAz6mCTlBvIe2xiLpr+Z5FwgXYZn14j5mHicSloWubC0l4HbvVrQ6LfMj83Euni20A0q1COfMknXuWC239WFXVG2utG+wXQ9tjrgnGQFc+nzI/2m1h+m6McdtRL2aswLaKR4Wk/SHUZb1FCHYRuC0KxhhnzPzlGcIe+s0bbIN4RcLnfsC91UE/ydV2XDj732ivxYD67GK8IifAtgVpO4npM5J+9i2XXYBxblNvX1Hma6rx5uDdf2RKGeH69bY03wzj4N8ZD2RKDup2hbqVpK3wxc1buwLrthYTU8wpI+32fNAnc7VHV3ePKerO3dMY48r/awJ77JARxsyTtmGTQ9FJmj+hbgyDdXjwbTGVeNfY/xg7oY1KM1h7QhfJTiUDyT5zcu7DZ7l8JN+qqnpvrTXWWrets9O9yH2hITh1aUg5Q/av0gQRbRoCy/cME+sp3sLo63zOa4gHKQWU68P5C/WwS/xcJzwttW6WWJw7x/eUTm0IGK8eh+T4DQUIOHeCz7kxxnjnQkQer1hH+QlRR8lpjHO+uXFiSCJ0N5zxlO9+jJuShCf4Md8LeBU1Ol5s3JbiG+I9tokF1VHbAlgIHfbJqqGZqNVdo/xzz+nv8C2tdaId6VShEGuHRy0xbEFERzmd+HsolxrtJHGesyajRaeTDLhZo4ggcLkElH9WVfW7tXaMaCaeShcABJ5thwLIIcUIItpkElh8qee8zoy+RnnkMDTe1XN75ud+1hBRC2k7yaK3fEE5bAoar8hr3JiyF5TLMqDPSNpjlhOkM4832kJ3HdnT1YE46hEiMQxUcJp2vNg4wmJGp7Zeo25zzCnX2D4WTaPeujykSq3uCliEvTknPL0QnZC5/0np4c7h+eFWQF1D1FAkCyGmYeybopNwi927AZVlCH3atil91+xb19xpRu4kSB6BLaJEB869z3pIY0ZmxyOE7x0JT12UR/2duZ8rcgILazsfQiJREtC1sU3OoLDNbuQjJkFciW0L2bbVYY7N2Xc/ayyeFyS0jHyiEVKBshya4DTHtqwSbL91V6JiR218EduW0RZLqbdKWncQnEpYhL1pS9lyGOlUCVc7Tr3Ad+xdXPd51R2dKqaBHjtaUFLOFxXthJU6iaGRe1uYdNCn8NMz4DyWukVl2cXR8wnJ7XiE0MVq46qD8pjByMn93A8CI7NEsfJrF04C8o5wS10PQMSxZJvd27YxqXGUeQzZttXhHXPkyTlEtGhTYGTPKHPO0Jqrjp6bDIzdq4JeqatFxnFH5TCKEeVRb6W1Ra8FgmNgPi9BcKp5eypK9D9H/m2FwV1b/RuhUJzRuIfxt0HW+77kitHYWtf8t6+R95snEAdLRho9kLt9SQd8ik49AhN8LsM7lHsXwdb3Mq7BRNaF4xHCzxWrjPNaF9Eqow6NnJkgSXKJQsu6g0hejbwjfc/xN9bcPnXAo8uDqHi/+rCEWLvcjUnjE4sPK8F9s2yrA11FJNTbeILbSoGiRI1zCheZbYNBHVTQWMQoLbr9Bm01ZxRtlxGzs5A+hnpbF7qt3OXhc4vE3mMNRO0S+5aLEt282j1z4pi9FMeQtl31MeyzlMcHCo8evIo9TrDlnpKjGceJvlNSj8FHy3u8z1h65GMHbUV0VGqpfUBYJpIxRXy0tfZRvwf3niuMgY8QopeNayN87+dTR7IqHNOvfnnU4aS0d9ZosyXWReHXOqL/Lwr/pqC5swMb7dVVyLyS41jymEs8Zx351pnwnVbKY8+r+/W4vs5dJ+fSM9+b6/j1LN9UQP219ivhvacDa8tBPmKP+2bQXAStoeTvefatOw3/OPH1qr8ei3Ry/2OJcNxcq4I3uD4dREEd25bWFZpRTjVrQbRTkLrbR5QSncbmzuqK+95X3OUh2U51D4ezNScG9p/PIHD59oecq9A50IwceMI804zWmELY0lgBcyvJc+VoB/IPQVFB2D6kEdFS52bcHBxOMUHbkZx+43JTrAbWX4kibpudMeZO0M4+YeW5OdfE2pA5t9WVQL2NJySiYqnkQz1g7mtGDFxhzJkJokxGHUTEDAKkU9CIuH5C3R7af1O0N0kE0VJhl0gvQGT52R0isKO1ooJqraL5XMkJoDWjgLrTiti6O/It48YYE/uMn1u7XxxK1aKgXRWioG0xKAavMmheAhX4ZPQWKjW2XHaJvlNSV2qRTjDkNVaJglfjFN5dsmKgvkJawjXwSKfY+24iv2Xu8T2t98bYszxzSfrd2uP+Ly6Pb5aOBRaCwaTlOVd4lsbc9+hZnzkinR5xpX7OsUt9BTWwv2wUnrk8Z4OgTyUbZw6exUinC4t0sjp2+a5xL0n0X1BUSMb6ek4YXeQ1nlu5bf/reT7lLJyvgqKdGOlktXzjZywKnnvWTPgs72inTHX7nOg5vnWn8ezHtrpD+1gqtJHWulOyibcez7kS2hsvtIpzFTQpLHRr08UWPMEEcnJrXePeRW2xE9aPWHRq5OvQajNJtiGe+QZJn4kSIkq/hio6Cbd8idomxIpj48ejhkgv7HdRTknLu2gIJmeNvMbzrpScFx/DMoXo9IxV+VcCG9psSgNzC4Po6kiZahhj1rd9K5Ttc5tIeeKZsfNXiFObQ3SqHYSmgLzCvxWxOHJpopPV2Wa3FDrO0Qt5CeqrHudezTew2+fKIpTXWKBgw24CxSCJrxYidufobzs851iqgda2J3yur3AhHXt3gXUrsUW8t6Inqttz/VNrHvMRZzXsrG2A7SHVT861dalNHLqlXyJy/aof34LraoX01NWqNGpfghWhsx1euNqkHsUjrJc1OrbvtTgwZLXbSSeGcc6BoC/XgEWn2InM28H0nAyak5uK4CNsx2qik4KTZWPmCyXh6Ww9JxCdVj6GUYIx13dlXuN7c61sBglOCs/1WlRLKDqdFCtLvC5RdFL4bkm0gWhBQ7m+1gEOoFZOt7M2t0KUU9QuBsECWIjYnaq/HV2oiCgDyTv4zF3iSMPI3GCxuXu8I9mU6/bZ15dRitjxqTvp9wX3S6Hw1JaTVVpmUdqBhhbi+6ArpRB17cvLyJVeAsfjrOEmnKDUHFelQbu0K3nbSFCGFJ1eX0MUnc5GQQZ+X30ih5oQLWzHmqKTdO6RrMxrJGpsLQtF0SloPlQWu7yErsazpWKej5Epdf6ix2LBs71WphOJTme3EJZ2XbDo1FUCWdG4rlRfzzHvoeTcnnU8hYmKvZMIKz/bN4Krk4WKgO9P2rYVxMtoMV/wbK8FN8W6DYrSszqRgedsLKktEHWQgLDeTkZZC+0nUWqeyGf/8nd+qzxwyS2ttW61+T0Sn5WCS7L2wyVHRNJpdZCENCYZ4JNPYjMcqx2b7PoaR7KS19ydS85MSIeMcFiDChijnXExqKSgGNclCZr3koS3GJ+lBzbkSOZ5BwPFe8zDz+6Fz3W//9G1u8Ak2G0HbGgh6QtPIccWH4J2cxvxq2pjQgDO/vjdfS8TmfcDtK/ciby/FWBTPUCUCX4PHOrwTfh8H19AMt6vULfRvx/5e10knHbtKaouO0RSTrc+PuEprLWryPl6GvvMQGpbYBYxj6S2B6TzavTciHrz1U32sBveW2uvjrUX+PySAwqkPkLMvPPL3/ESnWqQgdx98BcFY1UT55TsEgkwsRUU0okkJxxdxOkEgexZLqQHrHGaBjmNtHzWCo50rLFXk7qOv0UaetXBaSWh7LHCGDN/5XA0JOWucepgjCE9yryQdIs6lLQD0gFwZnKddlvCaXUPaKuS8Xwp9V3a5mz8P8lpUqJxB4LVXcSv5rRD9nCqe7VAJghAqNE4bTymfeRYyJDYAtWL083SICmDvYI90DZ2HgpN8zPlIemrT1KRF+8WLX4GiU7VvyvqS4Sr/VlQ5JOLetomcOJiG2tII5V0OIorr5EaJoTkYIRIza1m1NPAkI7nYkMPY4lkjL6GwZoKybtJVtV3pYoViJCTOAhi0UlgSOdyAG9h4HKu7C/zTAvAJbSTjfQdFMbyCgvvp5D03TthlFNNzPdJxsoQanEiR6SrNlJnX2OujBEMRontj6pkWwC8FfyueNw50idDhaYmEl9BQ/isIseYn+NmsOhUA/HJhYK6xvwHCrDr6CfnxG20Vgpxn+uIXw0aYIRb7FS36QyAjwUMfpJ+wO2SPUIpNNxNiH8ZY56xVXjBCKhfSPrDg5IRXyV2VLpEq3xKQ1LeT4rtJiYSJUdb+Sk4ZXgOSUimbXYlbKvTROp4taXykMzbWmUcZf9msDn2PY+qlJSPlsgW20b64FfE+sCtKOgB4rqDaOU0klihqYlEQOtyjPn53tGiUxM3IaEAryBAfeswAmqEiCeNThZrlMU0JMnKKkWnf/cTa2yLkCKZVJPkJiNJ0ZosR9gq/BURUNYY8wghaumMwlS56wpGMo5rOkrSe1FMzksJzl8VORekXpWuKDgNh8Tb7ErYVqcKRI9U26Ul47yKGCMQdVKPO+ueb+OVlI/KnALxIsa37oP9kSqSUvrtWnXnNJJYoeknUl1Dsf/FCtvj/yi9wC+wIuKuBQpoClFEos6FMoKII21ssYZZjPCxgbMZw6WLTg8I/2ZeCtIFm4Th6de4nBj1ufpn4H7CGLvFKUlDjVaphPkx1MYDZ+wZYx4E9ZxcSCBq5e3EXS3hKeY9KFDmYa85RhyQ2xaZ45mS8fLofQe6/XKXyCeRlL9bWFJ8lWBSz1F9b0eS9uLqViuHVczC4yXbH5Jvfyps/JMsOu8V7ZrY99AXnZpABHDXCiv004YIFbNtLYQbFx0QewINtqzFTCAPMeKHcxwFTs3PLXY93Sct5QtO/BiKYZRTnCU6rGtBKBNu7PyAq8K4sVZKml0MCtGq2mKcpGwpOuVFUt7XGeyTNrSFA3Icl4dkENuYYT8uBQuXxxjatromW4GtdXRsUZivurb9GGWfjlw5s05xyfaHpF2XtqArGWNGBYwxY5XtdT4gB9QGRyu7DvAGiciT7OMEC8F2lBwJxA+R7DW/pHD5Ognbm0KPeRYZahe4harXINLoS4ffcANn4/+MMesBtR/pd2hHGwzVASOFkSHxKxkY2GanZU8PbludIqcE6b7Pu4ywPAHH414jadel+ZZ9H2PSRjq1AUdthSioMUSTufIK4wj3jBFzYkWnCVacYpA0qHfO2Rz4STSDjOg4woQObr9w4ieiI7te0XLRTzNEeWqdVNFLeCrXRdN3J2E84CTvJB3O3v1b4e5DP9Vwmzk6mfSbvs8nFBTjYMoWZToTnZo0TuBwjlstPmmFgQWLToKtdVW95aUjZhpHPRfEPTr9rme5a6QGTSeiE/re44BD6lMzRb11LTy5seurC/dnwuBioNGXly63xxHSCS61gzHmVmiHPtAGIGRQcMs2KYIiRKcmOH1sDeFnpWA8utxO40DBoq+OWtei01PE6mzTuNkhnHHX81U2qTg2VTjWNwhEG36v/vl71RD8tqgPrrqfAcmmSxGeHB9cXVJ4KgIafYSQpCCvkHTh8+aCc4QSQghJRHGiU42b8JBpfY2TmyR4h6ojH4r0eV3xLkJg02Qdm7h9SCCp517gaHaR3PTwmW9xfar+PTGtKUJxJfQIDeFpWZddxzjhyeXT0zo5hcQRc8wxIYSEoLXo6NJebLlFmRBCiBZBicTd6kfOJLVIPj5TSI4Y4sTH5nIqhb6//1CQ7AUeIdIvJ+eeVx/b7xJW/zDGWGeUGmNWEFkIwLjlRJ7fETHWNZ9YR53DSMG8pDyghJDiQC5RrQjb64EnEudhLYQQkhkv0clFzyDq6K+OJqKcq/R9F224laYMpJFA2dohttbFRPfVkVAUOo/g8mvgSG53Uue3jqNdLi4CMcGJM3RU+gMjNMjFgG112omxh7xYwRx7JAQmlO4vEluAi7XKtG6vQ1TT4TYRNxG5bVTZOqHbymOMeRCs4ng5CwLnuyRiclgRfTZCI9Bti1pkCm+XCpXcatcC+qITzhdwDqaNK1eun7dILN4n40k6hmmfAEZH5TK4LSAyjfM3CSFVLs815g2KuP9yKnpZWkZfhL8vhWPOCZA2QXKLruv2ktkNwK+vkfTRpwIOGtueFJ1wktXqhFO07sAAlyTn9X3XoURszC8xsqEkcIqMJK9TBaEiRz2KRCcmHPUHos+uThQPoXuCa4o/UwlRsz6t2CE3muQW2qdASiKnKMzmZSc4AfeRuQlJX1DeVndIvc1uaDkB1SMYYPNJfp9jTtlI7Pk1AwF6SWkLjZI2VIRd82p7nVvVwFa67y0dzEXTZD1dS7iK4GvwD2VrGrfYlYFUjFmkzqEGcVlyQuSd4utcHM4QcaKdmwzcVjxrravv/1ZV9R5b8jRz0/QxVFiyJVFtex36oaSfMFIgL5Ly1t6WSUgSEm2rO2SI2+wkzmSb4xc9X6EuSblIFuxYt90hWfAbaaVpcDakQh+XiE5FtMFfohMKxAlJf3uuEH6Cw5qL1M73uJBjzjW45gRWBFJhdqRwj5PAkZben1FOyiARuROi3PbKCXJCfcFKm4Q+5iSSGHqakatSp4s5IfIiMTQ5d5K+kGu7xDrnIUIpgW0siSZuc/wkTiHzx5SNZA5n3XaHNMJMq+6cXvK3MeYRBzAFi1nCaLlRCbrAT9EJ4tFjxBHf3zMKT5KK91n1HFp0EKOdOgZbqaTJoz8kPMluKTS+9tbarvcIDx5EQy0RgSGJLOujqC4RD64Vk4mL+qDLS6j0HsQPiYNwkyAJPSGqJN5Wd8j1gLbYSW3jtrFFMs5TmCibUhbASAAQaiQLtlr9sh4/r6G1/M8Y47bkLgLtDcmJ2J2PMb8huqltK905kgtPClFIPoNF7Dc8oBGkuCSCBQe5MtDYQ7vWVqgRLh8qMh+SS3ASfTvGp95HLyCZ67zjU/ByIxVrxI4SVvg/CG4hMRJIBOgrkq2pyRdtBnwyGElMpm11h3zuewQ9xvJSRad3qcVupS0+l4p0ASzpeM+6bUVSdzNplCfq/lh6BqdrfA0UoCTfknzhACmaTpbXb0rbY5zwlDL8VuTcnltlRkeNzdcxRS4W9UsoHF0njJAhniASSLotygnCW60JBffR6Pe58rpF76tWENVDnnWFiSNZv4Mz3YfoMhXjWSFacK4wL0knam5B7QaRcZZyO5Gzl6qq+kHhiUQSOwfsheNpl3PPQsEGWghtgae2LS7wNST2XrJEvyi7XU/sh+JAvUv6Tsq6HWO+2wxlG6wyEhtspGAD+vhKhwLUKdtV8i3XKYOEcO9tW1v/DYOkRjJgtxK80/wgOHFrwSk0lecqc+w736U8SlbB4aLoVAYak00tPInqFE7OVkGEuct8GkdQGUJt3ylEc4WwxsTxV+KDFmLDvHNG3Gg601KDIdrIhjFH0amfSJyrJPn0GuNSHTlHB5AEIdxWtxCOZzd4fheMkBMlyl6H6CIdy32EbMl4/yFFtIqLoMC7X3dch31HMl6/TbEgiXvuMCZc8+Tyo3R2qBP6Xuh4fYPF8lftRUEXWGkLk42c4PUC/8nDJ+pE4nOFaIwKDf47EmWJxCf8/k64raHyHCRiB4IczoTkGRSdCsBau1LaEjWCoBEc9dQYFH4oRf3kPr3SyxhzIgGE6r9z5jDCePWu8U+fsFqRIpKhD/lmxCHJDaRt7V3MfIT33wj7yy2PSu4GGGeSLXYftJwzjL/LI+PSNR3AznB1Mi3g8h4nhdvq7l3ktTukQrjQ3PU2O+djBEV04H01Ftt87HHpfFr65N4AAAs/SURBVKUZ1T6FyP314NtD88iQf5AuEqilyoCt69r0Xwd1O8TTJkUgOORWcI+oxUvU9dfIZz615MyVjDF1AIOKfd6SE/z4O1prf14QKKzyVW8FcS81rp917MLJSlO86KPSe7jnX515ruS7W++tcSEXjaQMZiHvIXzWMnV59PVC29buXzus3E1P1OUEfW+t/NxNaD1g9UXj2cvDsQRjxyzBd3q1a4hAzy2/vz1VRzEX7pe8fyq1T5UxUqluFwHPu8L7S5/ZOu8pjQ3RbUvYL7eC52b5Zox/0jpcx7ZjtKPlmfHBXZOc46nWWNT1JRgLS7q8+69wTBo37nPl0Sbbrl1kf9Csr+dj9kBk//N6XsbvfA613Y+Mr5szzwgev4Xfldw/EJa575yS1RY58vyxxzs8Zq7baFtA6fln6w7lJq23dcD3zITjzsk2ojB+W8wlQXbHwTvMPeajV30+RWc62ziPXBoTgtcHKw4gwY63oHIlIlzQe6Yu70u+MvWv1NezjyN9pF0tevzN50Qn38nS/dxcOBZI2lCQOKFUdvXCwwKGcPOawSE4a7AoGQzWRwDEZKoxJ3kZKBSd0n6z0iJW7eB6iU8NEdy3HQU58RSdfpXDxYhOwjp/bfzL5+Rgey9hfdW5ipaNS/tZIQ6n1iLj1ld8whw5D/zuIPGDopPVtkW87EGIDHMPITG6vIcuOlk9H2zX9jws9ofU07HrrGiouJC/9hWf8G2LQJvqxb3/cxD4tMBNU25LkeRnCmHvGYIWuwUtZy6GjSA3jdtacpUy9xTxJkf/Ss0ycruQ5LjZYsHWGN8x7S329a/qpI+YrM+WJ/btLwTj51PEsf33CuP1CFukRdukXRkZY74onNj0Fgmcn1AHzbKfon9qbD/dM7dCMcyxrVjCCG3PbS16qP5dLGtyhfYT02dcnpUFtmIT8gLhtrqnY7awa2uYV2LHeNcX1oVsH77JYFd5j+durjXG3B1suY+hthn2GHOO2VETXDGHIS1Rh/QPPIEt8k0hX2jTHtydyBc2gcgV07Zd/9xgmzn5h6VCyp6bEzbkGDZk7KFkTXxyz61g20if9wGpBI7ZxDUS23jVzPH6QnRyA08jKVny054SMz83kOJbY75zj33xuVgLB7gZE5Z2D/pXvRLVx/51L3CKBjfxCRyBEYzRd7hPBYHn+aCcxrg0hPqY/l+aIbrCWKbhXFwrGB9txIqzRBlFB7AmlYO7hJPAdkMOkdhvbbbwAnnGYlkrHxpRKjG5+eroXg1b74XNoEidq4b5X8NYosw0BIZRLUAleM81xAKiu3hZJbQh73z0BfiTC+T00iDV97xtLqj9dvh/MbBOlRKLd8WtpyhUcgLxX/AUu+GAuuxj/3qQtCMYvZKkvkXRSDKtxVsYlJ8b1wclQ+ToSrcHRQmFaENah16k5I4RK8UxVzrMISWikxbJMBGeVnfXFuEKe+SLoODewvEZMlFRq/Cl+lA271KcqjZkGrZI6dxcQP8Mwlq7LNgX2Ye0K+gckgTpuVjWBxe8Ep2qfjvGjgdr7dlKg9MYq+p1cQS25JnvtI9IJPGgf/XBea7Z+0QOetCVQ3WLSCJNtFa5crCIrLvijvpH3ynZiHroiTF6UaD9z3ow5r6VnvxLhoNwW93eZ6yEEyYRZJcDPwltFRt9iNOnvum/kjoUuwOBmPuxB6869P4ZQ6n6xizUVofeUfqC/qhe+D4qOlX/GveTnkUnPASE+sYq+7m31tVIJwUasgWBNtQHYXePpHkaUS/rDr733keEDqVHxuS32PFKIcIyCSj7Eo29B/QV5scokJ4spt2WKPaSzpDYfSFbfCVzZK4IvS767T1EuWistYvCoxGCoivIv8AWKT3SZMEt2y+BjVaaLfAxIu9qzbRwreahjhY9KTpVL7fa9SF86zbQ4O/F1roaBQeQk0ph9EDYfcBJdSrbrNA3c247Em0JPAeMyT8K3rZzi3eUUGRUUUN4KsVooODUAwoWntz7/OkEcrYhUsm31T2EbPGFsyNZRMmxzW6V2RdRsx+w8FWiH/WA06UodEeCuv2zwFdzdunvsJXIAYXZAh8l9dQQ0Ur0JW+bgQutolOFj0Gnel/oCmGwsYatZrEJ+brswJKJ4YYhluXhhF1r7aTAqJlvKZzojPupQ0XoKGCsT4R5MVLwTSPCq+Q945ikS5hoXVlPKBb0gwLF/ns4fswDRn4i3FZXRS4WLIU2fvJtPBnFG/VFBLx7KQsl7h2+YN5iFIwQjN0l+chfMKfw5LoWUD7jBOk3fHHt5Q8NYRBaTUm+pBM93x9qM2dFpxo4H2M05lI61l2ksRbrjMUcO66JtGEyWWChICLl9w4Hv5onDIKxeYB8SCkUZI8YwGDvDPY3BQg09UCvueq8wFhbHI3Vqi5Ev199pcSyIadpiP1d2jN1X53S8SMHSGy9bzF2qkJy5Czb7DKIN3epFqzgXE46tvNu4TeJtg2SlzR85C5tJffsN65uuQjmB+z3aQe2QL3YpKopFLADY98QPV8FyniLTtVL56pr8ekOxv4s0liLnVg7DUFV2GJH56hgXP1i8PujA6PkCSGe49TCaiMUVPsbY0VoFeDIziE+fcs8PrYO9BIw7s8QQl5ctGsHol+2vkLSgnYzySwW3zfaD7e1kBcIt9VFnbRWg/YomZezJMJPJN7s0S+Dk/mGADsht523xxj3BgtyFLkT0LCVctvwt9hKF+sTXzwZbYHafky22OTsUmdfQJzPJT49wQcZt4meQaJTTW3kW2uv8FE5lN36g96gY0UZ+wj/jZ3QS9gbKzFSrxG2TQoGA8YUkU+3iR39pgOUrX03Vhc0BsVboQitCozKBcT51OPjA57ROtBrADFvDPGpuL3jB6LflwST7V0XfYWkpdFu/puwbT9BiH4DY5Pth7wC9qlkcVAjQll6su4qx2nJB+KNxFF8Qr/PbQNtD94/hZ1317APKDZl4sCG/5bI8b9Hu/0v6pZb6YQktiGz+1ruOQ3xKYUfUovZ7/FdZ30QY61VeTImmRkiGCYCYafGVbbrRE5c2mp1KLxnlPBSwqq25P3BY9vEY4zxPf0v+N4kHtRLfb0V3KruVxv0qyLqyxgza4wf12d+fI9xwX3DxsfIhtgaawirtOtGHU4g3sSMkfeov53vt6cCDtKkcdXlO8FWiyau3TXL0L1//e7bVGMr3nEaMS/tG/PPDu+YpKwVxvRd7LuhfGLzsDzHzstdfrMPgnZTc4/2vk0xzgrrrQhbRgPhuF4Kv9pyKfWqUK5H50xjzFZgv3xp2xKGMeVwjj1mSzygb9ZzaDHOOsp91phTz9lCTZ4Oxhz1Pl6CHdWG0H9JPadMDtpnSN0mt0eEdRttCyg9P1ndCeqtqWFsCvO1Jo3vObTV23g4GGOC61xNdDp6838HAN+BYIfGyy0LhLTQGKB9+tZjbWT1YZ/3GYd0UMKmr/PNMVEPD8euF/2E5MWnr7KfEnKalKLTUPFwxsUOP+kG1m0/OSdu9s0O8BBr1fyupKITIYQQQggh5LKh6EQIIZdLVE4nQgghhBBCCCGEEELaoOhECCGEEEIIIYQQQtSh6EQIIYQQQgghhBBC1KHoRAghhBBCCCGEEELUoehECCGEEEIIIYQQQtSh6EQIIYQQQgghhBBC1KHoRAghhBBCCCGEEELUoehECCGEEEIIIYQQQtSh6EQIIYQQQgghhBBC1KHoRAghhBBCCCGEEELUoehECCGEEEIIIYQQQtSh6EQIIYQQQgghhBBC1KHoRAghhBBCCCGEEELUoehECCGEEEIIIYQQQtSh6EQIIYQQQgghhBBC1KHoRAghhBBCCCGEEEJ0qarq/wEAGDzyQKJKXQAAAABJRU5ErkJggg==" vertex="1" parent="7Cv30EDc3GMNcKOpRmR3-37">
          <mxGeometry x="16.01" y="175" width="196.86" height="15" as="geometry" />
        </mxCell>
        <mxCell id="7Cv30EDc3GMNcKOpRmR3-43" value="" style="shape=image;verticalLabelPosition=bottom;verticalAlign=top;imageAspect=0;image=data:image/png,iVBORw0KGgoAAAANSUhEUgAAAPMAAAAvCAYAAAA2CvxrAAAAAXNSR0IArs4c6QAAAHhlWElmTU0AKgAAAAgABAEaAAUAAAABAAAAPgEbAAUAAAABAAAARgEoAAMAAAABAAIAAIdpAAQAAAABAAAATgAAAAAAAACWAAAAAQAAAJYAAAABAAOgAQADAAAAAQABAACgAgAEAAAAAQAAAPOgAwAEAAAAAQAAAC8AAAAAPzS2GQAAAAlwSFlzAAAXEgAAFxIBZ5/SUgAAFldJREFUeAHtmQfcXUWZh6X33kNCEhKKFOlICSGhKFWairRNQMSKy6Ko4KoLuKyL6yqiKKwoAousooCCFElCgNAhsFQRTCQ06TVABN3nCXeykzdzTu53v/slEM//93tyztQz8877zsz98q53NWos0FhgnrDAfPPELJpJNBbovgUWpMthMBIehp/AX6FKK1CwP6wUKrxOehzcCa+FsibZWKCxQB9bYH76HwTXwt9gCuwOdVqVwlvAgLdNwmA+HzaERo0FGgvMYQt4yv4OUkD6nAorQ91t9uOUG/h5u/T+PfIHQqPGAo0F5pAFFuE7u0EKwvx5DvkL1IxjOcrGwl8gb+f74+A1vFFjgcYCc8ACnroD4FaIwWjaK/N64DW8SgdQ8BCU2rsZrFvVsMlvLNBYoHsWWIKuDoFSIKa8iyhfrOaT9nEh+Meu1CY9nyHvcKjbDChu1FigsUBvLOCpvDbcByn4Sk+v0MPBv3ZXaQ8K7oVSezeDTasaNvmNBRoL9N4Cy9DFZ6AUgDHP38XWr5K/u8+GVyC2fZG8f4KFoFFjgcYCXbaA115Py4chBl8p/Qb19gaDtkrbUXA7lNqPId/yRo0FGgt02QIr0t+XoRR4VXk3U9//W66Sf/X2v6NegNjHq+R9Fep+e1PcM9X9mT3vaWkSg2AtWBNWB68Zf4X0Q5/XjuRvFX9/eO3wmXC3tP95QQsziTSvNNe0wHNiftqyNIY3w8dLdebkOMNw5kjS9dgEvg2LF77oKaz9ovqR4e/rB8Df0VHa7QnYAgaEQr9pIE+Ch0JZx0k7rZKBvg34p/atYDVYElxwJ+h/oj8LE+E34O8IB+8keiI3hs/BiKyRfTwJH4KXsvy6109TOBL8a+Ls5M5o/y7EXXA3+P+AfaH+dHo6aL8k7f7voN38DdWX0hF1qB+GjziG7cE1TDqbl7VTgqc+cDxcCq/DvKhVmJRXZk/nqGlknAjHQgx0DyH9dhxMhpLfe802LjwEY/+bkbcz3AB96gMr8QEd0IX2dHSgdbjQ18MBsBT0RJtTeQrE/p8nz+BsV6dR0Taxn9mlDWwD+gRYE7qtk+iwdNUaT75B1tcymHeCkh105FxuzLHeEeR19TqYf3Auv3sb3BUMpjhvDyyDUX0NYrlpY+Pz4C21Sv6/8lVQan8n+ftVNexGvgPz414dSgOoy/P/0b4O/aAdGfiHQ6lPr+8/aqeTVp1Ogzl92/m6iw7vwTfbqXoblXSM9J301BE+DJ5+fakmmKut6+atj6U1yZ8G+L6tpivwLG3I1veavB54UlfpCxQ8Cnn/vusX3pg8PPtEBoXXi/jhdtOv0PZkiLs+WbPIK91FUOpbZ/fqW7frUTxDvQ3mNIYx9Oi1qBsaRCePQOo7Pr9ImY7Sl2qCuWzdRcl2M/VmFtdF/x8Huer+28oDLF6j87YDSVT5+QOUjc4rd/q+YGi4BumDwetHLk/JW2ECPAXLg9dj/3CgM+owSf62OAz+DKeAu09J7mTuSFuXCsmz3EDeBi6DTvQmjRzHS1ljT0LHuGzrmRVNf/XqexT4G7y38gq2XE0nH6TMnyfX1tTpbZGO+kc4IXTk2rvx/r1qTSau/Q3qqOfJiPY6k7xjYADEU/hQ8i6G50Cfi/oTGfrwe2BwKBxKemcYA1NCWa+Sn6B1vF47uONgxdCzzmAg/gycfNrdPFHvgAMhbgpkzZBObtCkdqWnY/n5jBb1L6WT+Uma7A8Gr7/7xA1iCLiQvwZ/78dvjyNvZeit7qUD7Rf7z9P/QHncVHv73U7bTyyMdV78zewfST1wphXm60l9IZR0EJkeTvn6pffvkb9aqVErbxWe/w3GR2qTnga7J39X9QN6i4N9gDyvw1ValoKvgyeggaEhtoH5oU7rU3gFpAlVPV+gTjtX0VIwO6Z9YD4oaQMy3Yzit/3Dx7BSgx7kOb+nIfYd08dTx4XurdwQBsBu8DHw9tRTzS6YtaOB4Hh1XL+xMPRU9uMG682sH/QH+1wGqtaKoq7I/jeHyyGuhYE2GTaDkpyrB1Vpg3atR0DdxnwA5XdD/K5pT/Z1oGPFDy9S6MmgFI3gR6OeJ+OboCGc5FnwJ6iTfekMGjXJ9l77PI1zR3TRR8IF0G1p2PGwF3hqJ+mwq6dEh0+vZEuGti+Sdj653fclPQGuhDoNpXDbUMH/bXD8/nQ4BI6GgeAfIq8By7X1qrAzKNPK5/ngT6h25HrtDR+AtUDH9ju3wC/B770KVdKHvI1tDG44G4CBbABrj6ng5uuGck7rOY1nt7U0HW4DyR55/45hHPhHy5Icz5fh5+A65vLAORwmt+Axiy4jZwSsC65Zri1J6Av/lmf25v0UGseT2QD+EqwMyRF4nUUuSBzgLJVaGe7IGsW+E24KBqwLmfJ8GuRXwOx0GhXsI287u5PZPkeDTp+3e5D0KOiNJtHYsef9Hkv69yHP8iNgIajTaApjfzqdAf4NyL/zNOm0yxtEO4XyVNfTMJeBlMrSUwd9P4yFkm9Y73E4HgyUKH1meRgFjjf1W/d0U/gKLAXdlGMZDjdA/L4H0X0wFOqkPcfBXyD24d9mdoe624rlNxfa2tdVsAl0JAeW60YSOkzUiWQYLO5m7kCloHWhNUg76k8lHSSXAWUgXwROLMkF2BHcTPpCBlEMJOeiQ3Wq99JQOzn2pCm8/Ap8RjvpQJ3Mz9NB5/wi9JU2o+MTYCQsUPERT/4jwU0/n7P114ezWmzKsx0tSqWvQrwxtdO2ro6byjBwfaIMRA+NB2NBSBsfjs36Ud7EPgGDY0GWvpr38VC6dWifD0OMS7J6Lq+ak8EBx10npe+n7AewD/QDAyFfQJK1cqB7gMZIferc7lYaW0Po8KksPQ8mr05uNj09mXXC/4T0jfS8lbytoFNdTMO4cxtwLra2i+N8iLy9oc6OoymP6+KmMxXSuNPzafLWAaW9e3Myx2+mb5SeN/GtXfxoS67nUVCqa542eh2cR6nOZPL7QzekbXeD0m9W/c811x/alRvzaxDH7Xw+AsZSlban4GqIbU1fD9tBjxV3gFfp4bNQ2nVS5zqJu4+T8cp4CXgV0+h1zkjxdK3Cv/5m0bGTXuDlWngW/N08AaIcV6dyXDnOeyB8Hhx7lMHm3DrVFjSMp5jzc24/gkmQa00Sa8CCeWYb734jOY1B9xzcAGPhGeiG0ppqE+dwETwAfi9qIzL2zTIdzxi4PcszgO+D42E/GAEfBNdcZ861OokVIdoyr9Puu343DLwpROl3v4UnYkFN2vFrkyiv2J+EtWJBljZgx4GbQdSGZLgZ9NQXYj8z0u5gD4M7lgZuBw1xEgyCOm1Foadw3qfOMbzVaFGeOkRent7XaNUpPUons5vTeDgXzmlxAU+/70KkfvOnDvgt6FQ70NBFyvv8A+mhWYeX8v5GqPN90oOzOvF1NBkGUN6v7+ZNAm9KJc1P5k4Q25nWwXNNJFGqdxb5a2cVl+Ldtda+eX3HciEsB0kGokGkTe6DXaCkJcicBnl/vh8IacPitSNpgw/BnyD27zroI/nhQrItnUGtlyH2qR0+BnV9bkH5JYW29nUH+Nu6a1qWnr4Kj0AcbF36NurvASVpVHfh3NndMNyploGk/rw8CvE7nyBvvlQpPEvBHNu3k3aHXjn03ZPkOCrHTfDT5BkASd/hxdMgH4/zPQiq5jeaMp0kb2PajcnTq0q9Deav0XHJHp6a2jwfj++3QgxYg9EbnRt1STr9uvAUxDkeR17uGyR7rAG0OAXiWE3r30dBJ/L0nQylfr2NGLBVcl2Ohhchtp9K3tmwCLQtO6zS8xScAA54TzgdJoGOWqdNKXQTKO0sBulwyAf5HOlx4FU7yclckxLZ8x95XzBLd/PVeV0KLuyTveh4Y9rGgLyJPOeU5EI9mBKtZz+eslDIr0veQ+Fn4Om6Sr0se5z2pZ9dfybfsqiVyFgvZHqC+7PFTdxT+yPwXZgAjl1fuxvclKLt6nyU6rOVN4P3wYGFmn8h7w74YaGsnSxvXOeB44/ahIwRsHwsaKXdtC6H3xbK3fzcCPYplFVmtWMoF+IS+BS4SFvCl8CFyB2U5Aw5EH8PuXvnGkxiRJ7B+zMwHtydEy7oxRDl7j0U2hl3bFuVNojvgqPgEHgAOtW+NFwacofUWXT6fBN0154CXvFybUBiSJ4xm3ed0c1wbsj5GOQx0HVEAzaXG9TGoON7Ep4LR8I2sAIYcNIXWpNOt4XS7eVh8n8Br0GVZjcuN4LHwNM16qNkbBgzs7Q/O8ZA6fBw3B+Ctm8lPTnl3EmctI44EU6BzcAgeD8sBbneQ8JT+tFWpgtqMBuQuYaQuADsP1dVwO5FpW9BrJ+3Te/TeLkfngaNbfC8Dm5CGtDAvQU06ivQTp9Uq9QxlOSBbEXndy3kfTuWVWEByLULiWvAMZecI687t98dn3aUfO31qUUhyWA9FI6HxVNmeNrXE7AS9MQnQzezJPW5XWG/WUre8mXX/meFspTlPE6Fz8GLKTM83RB+CtZZOZStQ9rY0M8eD2UmnfdY8LA8DHItTGIT2B/OyAuq3qsM53V4c7gSXKwoB2FgTwAD4RtwMLgrJw3gZXBK8BwEw0AD59Khc2fIy0rvHyfzNPBUmp1eoMJJ8BtwzAkDy5MlDzCSvdIitHYDmy/04tzanZ/O0A90olfh7Szn6ZwlV9owzXPee8LJkNvFdXgW3MSvgtvgZbgT3OTyuiQ71vq0HA5LF3p4kLzzYVqhzCz9cjM4HPT1I6FKZ1OwH6wAcYM+kLxr4XEo6Y9k/g52gEGQqz8Jb3sXw5/zgtL7/CHT3eAIGAsOcBuIi0XWTHJRboRHZsqddaHXpHxYqNNJchCN1oVotFJfOo2LZWCIi+LJ7EbQzUDW+Q6CqpOHora1ETWd39td+o5BYsDm0sbPtTI25Hki5MHpehjAXrs/BQb0JHgGXK9uSb/dDTyZo9w49NlLY0GWdl6OXY2C1aa/lf95guwfQyngBpK/BwyGkpzzdWDARnnwbQCHxIJSOgXzMhRuCVfCd2EtcDLfAY0eT1OyZtKipOIpb9C4sMpy+xxqoiUnYVBpWPGaKymdnp6gUXuT4cbzdpF2PLJLg9mBftz08gDoUtdd7Ub/0G/ipvoUefe28r02e7okueY6/MHg5p9vqN2e7+b0PwLiBusYHN958AaUpG9tCyNbhc71m633qsfPKbgf9OkoT23HUzVHbXEVOK6oVcnQ3wfFgphOAbgkBZvA9qGC15Rz4V/hIngeotYlY2fIF806U2CyL2gIaJx84V30s+CHYDBoZJVP2E3gFNjRgkyH8m6+m0VqlxXP0VfH62JrhygdIJ1SscxxDwRPjzWywuV49xTQCd3c5rYMvN/DdZBvrHuS1slyOScd8xYwIJaAKPuIvz+1of15Tc3Xn2RH0nbadftC6xfImwDjC2Vm+f3l4UQTmfbn/SS4D5xnlOt8BgxukZevQmIvuBtsX9LNZP4S1guFxsza8FH4SiibKZmC+Qlyz4RR8F4wuJKG8vJ9OAKugLvAU1MHdrfZHdaBhSDXPSTubGUM4Wm/uR4j4QYxKc8M7/b5U9gx5LtbOWmv+KWdMFTv06Q2PBTceHI9QOJkeDrPDO86uw7sRpjbfGPSG8H1MLe1HQM4Gy6Ea2AqbA37w1qQyyu0J69zXgyi0xsoblQ67bfBOTv3D8JImN1POqq0Jcc8AhYOtR3PRDgP8ltBXs111N82yTN5d52/CXvBG1DSpWQeCP0gzsU4GQP6xZsQ9SQZ42AX2CIU6iN7wM+gdHqH6m8lDdyHwI858RKWGUAao1Ru3v1wECgd9ouQ19cYTtyyOrn4nlTu5PFb/hxwQ0k6jRdvDnk9HWsfsJ++kk7rjpt/1/dDIS4oWbPoFHJegry98/0C5OMeTTq3ofVvhxhQZM0kA2YnyPtP76vMVPMtR09lpafrVrf2N1Ou0yqd/wNQ6sc8+3q9pjy1+2fqLAPtyt/x+kbJhw2YEyC3K8kZMt+Dx4BL38+f+tPiUKddKdT/83bp/WLyN61pvCxlx4C2SW3S8znyToVKudC5HiSxH9wJGqMk27hQVQbxxDWwPHXVOuBOntfXKNfAK1AnJ6Kj6yRRbhbLQ95vrNPXab+9IrgJRl1Nho4/O11OhftCJTcpA82fP3NbnrJTW4NYgGfV2lvvshZW13+mwC0mCrKv/OT0tHS9owzO6KexTp5+H4nhhTZuhDeBp1vpO2RPt7fBWLVBnkmZG1CdxlCov5Z8e0fyt4N83iRnyMPIuBg/I+f/X9zQnJu34aJKRrqDmh7pp8NTUDVximaSu4nGOhp+BGkyGmYzyPUoCSfdjlyEcwoVDeQNocowhSZdz1qMHg+DeAK7IDq3Y5+dxlLhXngzVNRmW4a8uZH8Dz56Njxb83F/prmBfwvSnPWbe+A4MKir9AIFJ4J2fLlQaQB5CxXyS1n6hMG4UaHQMbouceNMVefnZRAcmzLC01j4BsR1CtWm/+/JGWR6MEYtQYa3lbp11Wa/gLhpeHCsDp+FotxlS3qMzCPhx+BJvQNoVHcHHVgZvBrfRb4LLoErwUBNG4CBpqM/0oLH9LIbeDrodqRzXAhHgAZPcuxDwF3MiU+CW0GDKSf/HNQ5ofV6I8ezDriJ5XP+F9KvQjty7BNhICTb2s7+1vClJZ3pRnBeSV4HX0uJmqcB4xhzLUAi3hxcx7w/63hlPB1+BR8GNxmvg47jRdDm58EEyNuSnO7Y1/D8AHwKhoG3Dr/rulwHZ4EHiNKJ3w35Outn+ZxJVmpfSoYXSg3Aa+F/CmUpyzntBf1SRnieTNr5tqPrqeTcBsEykGtbEiPgdpgKUcaU7a8A7ZZL3x4JI+Bq6EiL02oobAU7wc6g0TaClcFFb/T3YQEdyhOiPxiY7cqA1LGHgAdDvnGR7LVWoweD1U0w8kfyPglVWpCCrcENJrY1bft2NxSqTtfG/OuhVervJvLfP71W+R9tczC8BLG9h8SvoafjoUmjxgLvDAsczTCnQHR+bwH/BStBlValwJ8Isa1pbwajoBOdRCNvVLFfx+SV3dtAldam4FyIbU0/CfHUJqtRY4F3vgUGM4VLoeT495J/SM0UF6bsffAKxPZezydCpzIgx0Ds1/T/wn5QJce1N/i3l9h+Gnn+fFkIGjUWmKcscDyzKZ2Ar5P/HVi6ZraDKDsTYsCYNsB7ewIeQx+PFPr/K3k/gFWgSoMoOA1KY/PvIKOgUWOBecYC6zGTsVByeP845+lWpUUp8HQ06GN7r8LjoLcaQAf+cTj2b/oPMAqq5G/5neAxiO29/nu6O4dGjQXe8Rbwj0CnwosQnd0/FJ0Adc7+bsp/VWhrX8/CdtANfZxOHoI4RtPnwECokn/YOwlKbZ3jUVUNm/zGAu8kC2zOYKv+YuxvSk+1KvlX+VHwJsRA8aS+GLqlFenofPBqHb/lH+0+A1Wan4Ktwb+ox7b29zD05H8VqN6oscDbywI6uaea/7cdndzful+ABaBKm1JwFcS2BojX2vWhmzqAzu6B+D3TF8K6UCU3gy9Bqa3Xbf9m0KixwDvWAiMZ+R1QcnB/o763Zmb+QezTFW3dCH5S07bToiVp6H+RGXxxzP5X07FQJX9ObAB3QWxr2p8ZS/0fcxukRq0Xw8oAAAAASUVORK5CYII=;aspect=fixed;" vertex="1" parent="7Cv30EDc3GMNcKOpRmR3-37">
          <mxGeometry x="16.01" y="137" width="107.65" height="21" as="geometry" />
        </mxCell>
        <mxCell id="7Cv30EDc3GMNcKOpRmR3-44" style="rounded=0;orthogonalLoop=1;jettySize=auto;html=1;fontSize=12;fontColor=#808080;startArrow=none;startFill=0;endArrow=block;endFill=1;strokeWidth=2;strokeColor=#595959;edgeStyle=orthogonalEdgeStyle;entryX=0;entryY=0.5;entryDx=0;entryDy=0;exitX=1;exitY=0.5;exitDx=0;exitDy=0;" edge="1" parent="1" source="7Cv30EDc3GMNcKOpRmR3-49" target="7Cv30EDc3GMNcKOpRmR3-37">
          <mxGeometry relative="1" as="geometry">
            <mxPoint x="979.9900000000002" y="230" as="targetPoint" />
            <mxPoint x="869.9900000000002" y="334" as="sourcePoint" />
            <Array as="points">
              <mxPoint x="913.99" y="330" />
              <mxPoint x="913.99" y="330" />
            </Array>
          </mxGeometry>
        </mxCell>
        <mxCell id="7Cv30EDc3GMNcKOpRmR3-45" style="rounded=0;orthogonalLoop=1;jettySize=auto;html=1;fontColor=#FFFFFF;endArrow=block;endFill=1;strokeWidth=2;labelBackgroundColor=#ffffff;endSize=6;startSize=6;jumpSize=3;strokeColor=#C0399F;startArrow=block;startFill=1;exitX=0.5;exitY=1;exitDx=0;exitDy=0;edgeStyle=orthogonalEdgeStyle;" edge="1" parent="1" source="7Cv30EDc3GMNcKOpRmR3-37" target="7Cv30EDc3GMNcKOpRmR3-20">
          <mxGeometry relative="1" as="geometry">
            <mxPoint x="543.99" y="518" as="targetPoint" />
            <mxPoint x="501.99" y="430" as="sourcePoint" />
            <Array as="points">
              <mxPoint x="1062" y="520" />
            </Array>
          </mxGeometry>
        </mxCell>
        <mxCell id="7Cv30EDc3GMNcKOpRmR3-46" value="&lt;font style=&quot;font-size: 11px;&quot;&gt;&lt;font style=&quot;font-size: 11px;&quot;&gt;trust&lt;/font&gt;&lt;br style=&quot;font-size: 11px;&quot;&gt;&lt;/font&gt;" style="rounded=1;whiteSpace=wrap;html=1;arcSize=50;fontColor=#FFFFFF;fontFamily=Helvetica;fontSize=11;strokeWidth=2;autosize=1;absoluteArcSize=1;labelBackgroundColor=none;fillColor=#C0399F;strokeColor=#C0399F;" vertex="1" parent="1">
          <mxGeometry x="866.99" y="508" width="40" height="20" as="geometry" />
        </mxCell>
        <mxCell id="7Cv30EDc3GMNcKOpRmR3-47" style="rounded=0;orthogonalLoop=1;jettySize=auto;html=1;fontColor=#FFFFFF;endArrow=none;endFill=0;strokeWidth=2;labelBackgroundColor=#ffffff;endSize=6;startSize=6;jumpSize=3;strokeColor=#C0399F;startArrow=block;startFill=1;exitX=1;exitY=0.5;exitDx=0;exitDy=0;edgeStyle=orthogonalEdgeStyle;" edge="1" parent="1" source="7Cv30EDc3GMNcKOpRmR3-33">
          <mxGeometry relative="1" as="geometry">
            <mxPoint x="1063.9899999999998" y="520" as="targetPoint" />
            <mxPoint x="1353.99" y="200" as="sourcePoint" />
            <Array as="points">
              <mxPoint x="1234" y="205" />
              <mxPoint x="1234" y="520" />
            </Array>
          </mxGeometry>
        </mxCell>
        <mxCell id="7Cv30EDc3GMNcKOpRmR3-48" value="" style="group" vertex="1" connectable="0" parent="1">
          <mxGeometry x="786.99" y="302" width="125" height="102" as="geometry" />
        </mxCell>
        <mxCell id="7Cv30EDc3GMNcKOpRmR3-49" value="" style="shape=image;verticalLabelPosition=bottom;verticalAlign=top;imageAspect=0;aspect=fixed;image=data:image/svg+xml,PHN2ZyB4bWxucz0iaHR0cDovL3d3dy53My5vcmcvMjAwMC9zdmciIGlkPSJjbG91ZGNvbm5lY3RvciIgdmlld0JveD0iMCAwIDU2IDU2Ij48ZGVmcz48c3R5bGU+LmNscy0xe2ZpbGw6IzA3NGQ5Mjt9LmNscy0ye2ZpbGw6IzdmN2Y3Zjt9PC9zdHlsZT48L2RlZnM+PHRpdGxlPmNsb3VkY29ubmVjdG9yX2NpcmNsZTwvdGl0bGU+PHBhdGggY2xhc3M9ImNscy0xIiBkPSJNMjgsNkEyMiwyMiwwLDEsMSw2LDI4LDIyLjAyNSwyMi4wMjUsMCwwLDEsMjgsNm0wLTJBMjQsMjQsMCwxLDAsNTIsMjgsMjQsMjQsMCwwLDAsMjgsNFoiLz48cGF0aCBjbGFzcz0iY2xzLTIiIGQ9Ik0yMi44MTQsMTUuNzUxQTMuNzY4LDMuNzY4LDAsMCwxLDI2LjIzNSwxOC4xTDI3LDIwLjAyM2wxLjc2Ny0xLjA2NmEyLjI4NywyLjI4NywwLDAsMSwxLjE5Mi0uMzQ1LDIuMzI2LDIuMzI2LDAsMCwxLDIuMjgzLDEuOWwuMTY4Ljg5Mi44MjYuMzc3YTMuMTIxLDMuMTIxLDAsMCwxLDEuNzUsMi43MjRIMzYuNzVhNC44NzYsNC44NzYsMCwwLDAtMi43OTEtNC4zMTcsNC4wNDksNC4wNDksMCwwLDAtNi4xLTIuNzI1QTUuNTE0LDUuNTE0LDAsMCwwLDIyLjc4MiwxNGMtNi4wMzguMzItNS40LDYuMi01LjQsNi4yYTQuODkzLDQuODkzLDAsMCwwLDEuNTI0LDkuNTQ3SDIyLjc1di0xLjc1SDE4LjkwNmEzLjE0MywzLjE0MywwLDAsMS0uOTc3LTYuMTM0bDEuMzQ2LS40NDMtLjE1My0xLjQwOEE0LjczMyw0LjczMywwLDAsMSwyMCwxNi45MjQsMy44LDMuOCwwLDAsMSwyMi44MTQsMTUuNzUxWiIvPjxwYXRoIGNsYXNzPSJjbHMtMiIgZD0iTTQyLDQwLjkwNiw0MS4wMTYsNDIsMzcuNTcsMzguNjA5bC4xMS0uMTA5LTEuMDM5Ljk4NGE0LjU0Myw0LjU0MywwLDAsMS0zLjExOCwxLjM2OCw0LjExMiw0LjExMiwwLDAsMS0zLjA2Mi0xLjM2OGwtMS40MjItMS40MjItMi41MTYtMi40MDZBNC40NzQsNC40NzQsMCwwLDEsMjUuMSwzMi40YTQuMzA1LDQuMzA1LDAsMCwxLDEuNDIxLTMuMmwuNjU3LS43MTEtNC40My00LjUzOSwxLjE0OC0xLjIsNC40Myw0LjUzOS43MTEtLjcxMWEzLjYsMy42LDAsMCwxLDEuNDIyLTEuMDM5LDQuNTE2LDQuNTE2LDAsMCwxLDEuNy0uMzI4LDQuNzI1LDQuNzI1LDAsMCwxLDMuMjgyLDEuMzY3TDM3LjksMjkuMnYuMDU1TDM5LjMyLDMwLjY4YTQuMTczLDQuMTczLDAsMCwxLDAsNi4xNzlsLS42NTYuNjU3Wk0yNi44NTIsMzIuMzc1YTIuNzY4LDIuNzY4LDAsMCwwLC44NzUsMi4wMjNsMS4yNTcsMS4yNThMMzUuNDM4LDI5LjJsLTEuMzEzLTEuNDIyYTIuNjg0LDIuNjg0LDAsMCwwLTEuOTY5LS44MiwyLjI1MiwyLjI1MiwwLDAsMC0xLjguNzY2bC0yLjU3MSwyLjczNEEyLjM4LDIuMzgsMCwwLDAsMjYuODUyLDMyLjM3NVpNMzguMTE3LDM1LjZhMi4yODQsMi4yODQsMCwwLDAsLjgyMS0xLjgsMi41MzgsMi41MzgsMCwwLDAtLjc2Ni0xLjg1OWwtMS41MzEtMS40NzctNi4zNDQsNi40LDEuMzY3LDEuMzY4aC4wNTVsLjA1NC4wNTRhMi4yMjcsMi4yMjcsMCwwLDAsMS43NS44MjEsMi42MTQsMi42MTQsMCwwLDAsMS44Ni0uODc1WiIvPjwvc3ZnPg==;strokeColor=#053B70;imageBackground=none;" vertex="1" parent="7Cv30EDc3GMNcKOpRmR3-48">
          <mxGeometry x="27" width="56" height="56" as="geometry" />
        </mxCell>
        <mxCell id="7Cv30EDc3GMNcKOpRmR3-50" value="&lt;span style=&quot;color: rgb(5, 59, 112); font-family: Helvetica; font-size: 15px; font-style: normal; font-variant-ligatures: normal; font-variant-caps: normal; font-weight: 700; letter-spacing: normal; orphans: 2; text-indent: 0px; text-transform: none; widows: 2; word-spacing: 0px; -webkit-text-stroke-width: 0px; background-color: rgb(248, 249, 250); text-decoration-thickness: initial; text-decoration-style: initial; text-decoration-color: initial; float: none; display: inline !important;&quot;&gt;SAP Cloud Connector&lt;/span&gt;" style="text;whiteSpace=wrap;html=1;align=center;" vertex="1" parent="7Cv30EDc3GMNcKOpRmR3-48">
          <mxGeometry x="-15" y="56" width="140" height="40" as="geometry" />
        </mxCell>
        <mxCell id="7Cv30EDc3GMNcKOpRmR3-51" value="&lt;meta charset=&quot;utf-8&quot;&gt;&lt;span style=&quot;color: rgb(89, 89, 89); font-family: Arial; font-size: 15px; font-style: normal; font-variant-ligatures: normal; font-variant-caps: normal; font-weight: 700; letter-spacing: normal; orphans: 2; text-indent: 0px; text-transform: none; widows: 2; word-spacing: 0px; -webkit-text-stroke-width: 0px; background-color: rgb(248, 249, 250); text-decoration-thickness: initial; text-decoration-style: initial; text-decoration-color: initial; float: none; display: inline !important;&quot;&gt;User&lt;/span&gt;&lt;br style=&quot;padding: 0px; margin: 0px; color: rgb(89, 89, 89); font-family: Arial; font-size: 15px; font-style: normal; font-variant-ligatures: normal; font-variant-caps: normal; font-weight: 700; letter-spacing: normal; orphans: 2; text-indent: 0px; text-transform: none; widows: 2; word-spacing: 0px; -webkit-text-stroke-width: 0px; background-color: rgb(248, 249, 250); text-decoration-thickness: initial; text-decoration-style: initial; text-decoration-color: initial;&quot;&gt;&lt;span style=&quot;color: rgb(89, 89, 89); font-family: Arial; font-size: 15px; font-style: normal; font-variant-ligatures: normal; font-variant-caps: normal; font-weight: 700; letter-spacing: normal; orphans: 2; text-indent: 0px; text-transform: none; widows: 2; word-spacing: 0px; -webkit-text-stroke-width: 0px; background-color: rgb(248, 249, 250); text-decoration-thickness: initial; text-decoration-style: initial; text-decoration-color: initial; float: none; display: inline !important;&quot;&gt;(e.g. Task Approver)&lt;/span&gt;" style="text;whiteSpace=wrap;html=1;align=center;" vertex="1" parent="1">
          <mxGeometry x="20" y="160" width="180" height="50" as="geometry" />
        </mxCell>
      </root>
    </mxGraphModel>
  </diagram>
</mxfile>
